%TF.GenerationSoftware,KiCad,Pcbnew,7.99.0-3539-g7abe2e3ea0*%
%TF.CreationDate,2023-11-11T22:30:26+01:00*%
%TF.ProjectId,KS100,4b533130-302e-46b6-9963-61645f706362,rev?*%
%TF.SameCoordinates,Original*%
%TF.FileFunction,Copper,L1,Top*%
%TF.FilePolarity,Positive*%
%FSLAX46Y46*%
G04 Gerber Fmt 4.6, Leading zero omitted, Abs format (unit mm)*
G04 Created by KiCad (PCBNEW 7.99.0-3539-g7abe2e3ea0) date 2023-11-11 22:30:26*
%MOMM*%
%LPD*%
G01*
G04 APERTURE LIST*
G04 Aperture macros list*
%AMRoundRect*
0 Rectangle with rounded corners*
0 $1 Rounding radius*
0 $2 $3 $4 $5 $6 $7 $8 $9 X,Y pos of 4 corners*
0 Add a 4 corners polygon primitive as box body*
4,1,4,$2,$3,$4,$5,$6,$7,$8,$9,$2,$3,0*
0 Add four circle primitives for the rounded corners*
1,1,$1+$1,$2,$3*
1,1,$1+$1,$4,$5*
1,1,$1+$1,$6,$7*
1,1,$1+$1,$8,$9*
0 Add four rect primitives between the rounded corners*
20,1,$1+$1,$2,$3,$4,$5,0*
20,1,$1+$1,$4,$5,$6,$7,0*
20,1,$1+$1,$6,$7,$8,$9,0*
20,1,$1+$1,$8,$9,$2,$3,0*%
G04 Aperture macros list end*
%TA.AperFunction,ComponentPad*%
%ADD10R,2.250000X2.250000*%
%TD*%
%TA.AperFunction,ComponentPad*%
%ADD11C,2.250000*%
%TD*%
%TA.AperFunction,SMDPad,CuDef*%
%ADD12RoundRect,0.237500X0.237500X-0.250000X0.237500X0.250000X-0.237500X0.250000X-0.237500X-0.250000X0*%
%TD*%
%TA.AperFunction,ComponentPad*%
%ADD13R,0.850000X0.850000*%
%TD*%
%TA.AperFunction,ComponentPad*%
%ADD14O,0.850000X0.850000*%
%TD*%
%TA.AperFunction,SMDPad,CuDef*%
%ADD15RoundRect,0.237500X-0.237500X0.300000X-0.237500X-0.300000X0.237500X-0.300000X0.237500X0.300000X0*%
%TD*%
%TA.AperFunction,ComponentPad*%
%ADD16R,1.350000X1.350000*%
%TD*%
%TA.AperFunction,ComponentPad*%
%ADD17O,1.350000X1.350000*%
%TD*%
%TA.AperFunction,SMDPad,CuDef*%
%ADD18RoundRect,0.237500X-0.250000X-0.237500X0.250000X-0.237500X0.250000X0.237500X-0.250000X0.237500X0*%
%TD*%
%TA.AperFunction,SMDPad,CuDef*%
%ADD19RoundRect,0.237500X0.300000X0.237500X-0.300000X0.237500X-0.300000X-0.237500X0.300000X-0.237500X0*%
%TD*%
%TA.AperFunction,SMDPad,CuDef*%
%ADD20RoundRect,0.237500X0.237500X-0.300000X0.237500X0.300000X-0.237500X0.300000X-0.237500X-0.300000X0*%
%TD*%
%TA.AperFunction,SMDPad,CuDef*%
%ADD21RoundRect,0.237500X-0.300000X-0.237500X0.300000X-0.237500X0.300000X0.237500X-0.300000X0.237500X0*%
%TD*%
%TA.AperFunction,ComponentPad*%
%ADD22C,1.100000*%
%TD*%
%TA.AperFunction,SMDPad,CuDef*%
%ADD23RoundRect,0.075000X-0.075000X0.700000X-0.075000X-0.700000X0.075000X-0.700000X0.075000X0.700000X0*%
%TD*%
%TA.AperFunction,SMDPad,CuDef*%
%ADD24RoundRect,0.075000X-0.700000X0.075000X-0.700000X-0.075000X0.700000X-0.075000X0.700000X0.075000X0*%
%TD*%
%TA.AperFunction,SMDPad,CuDef*%
%ADD25RoundRect,0.237500X0.250000X0.237500X-0.250000X0.237500X-0.250000X-0.237500X0.250000X-0.237500X0*%
%TD*%
%TA.AperFunction,ViaPad*%
%ADD26C,0.800000*%
%TD*%
%TA.AperFunction,Conductor*%
%ADD27C,0.250000*%
%TD*%
%TA.AperFunction,Conductor*%
%ADD28C,0.300000*%
%TD*%
G04 APERTURE END LIST*
D10*
%TO.P,SW28,1,1*%
%TO.N,/Calculator/X6*%
X171450000Y-128270000D03*
D11*
%TO.P,SW28,2,2*%
%TO.N,/Calculator/Y3*%
X177950000Y-128270000D03*
%TD*%
D10*
%TO.P,SW10,1,1*%
%TO.N,/Calculator/X2*%
X130810000Y-143510000D03*
D11*
%TO.P,SW10,2,2*%
%TO.N,/Calculator/Y5*%
X137310000Y-143510000D03*
%TD*%
D10*
%TO.P,SW27,1,1*%
%TO.N,/Calculator/X6*%
X171450000Y-120650000D03*
D11*
%TO.P,SW27,2,2*%
%TO.N,/Calculator/Y2*%
X177950000Y-120650000D03*
%TD*%
D10*
%TO.P,SW11,1,1*%
%TO.N,/Calculator/X3*%
X140970000Y-113030000D03*
D11*
%TO.P,SW11,2,2*%
%TO.N,/Calculator/Y1*%
X147470000Y-113030000D03*
%TD*%
D10*
%TO.P,SW7,1,1*%
%TO.N,/Calculator/X2*%
X130810000Y-120650000D03*
D11*
%TO.P,SW7,2,2*%
%TO.N,/Calculator/Y2*%
X137310000Y-120650000D03*
%TD*%
D10*
%TO.P,SW15,1,1*%
%TO.N,/Calculator/X3*%
X140970000Y-143510000D03*
D11*
%TO.P,SW15,2,2*%
%TO.N,/Calculator/Y5*%
X147470000Y-143510000D03*
%TD*%
D12*
%TO.P,R10,1*%
%TO.N,Net-(J3-Pin_24)*%
X135024500Y-71524500D03*
%TO.P,R10,2*%
%TO.N,GND*%
X135024500Y-69699500D03*
%TD*%
D10*
%TO.P,SW24,1,1*%
%TO.N,/Calculator/X5*%
X161290000Y-135890000D03*
D11*
%TO.P,SW24,2,2*%
%TO.N,/Calculator/Y4*%
X167790000Y-135890000D03*
%TD*%
D12*
%TO.P,R6,1*%
%TO.N,Net-(J3-Pin_26)*%
X139065000Y-81788000D03*
%TO.P,R6,2*%
%TO.N,Net-(J3-Pin_23)*%
X139065000Y-79963000D03*
%TD*%
D10*
%TO.P,SW6,1,1*%
%TO.N,/Calculator/X2*%
X130810000Y-113030000D03*
D11*
%TO.P,SW6,2,2*%
%TO.N,/Calculator/Y1*%
X137310000Y-113030000D03*
%TD*%
D10*
%TO.P,SW12,1,1*%
%TO.N,/Calculator/X3*%
X140970000Y-120650000D03*
D11*
%TO.P,SW12,2,2*%
%TO.N,/Calculator/Y2*%
X147470000Y-120650000D03*
%TD*%
D10*
%TO.P,SW3,1,1*%
%TO.N,/Calculator/X1*%
X119940000Y-128270000D03*
D11*
%TO.P,SW3,2,2*%
%TO.N,/Calculator/Y3*%
X126440000Y-128270000D03*
%TD*%
D10*
%TO.P,SW14,1,1*%
%TO.N,/Calculator/X3*%
X140970000Y-135890000D03*
D11*
%TO.P,SW14,2,2*%
%TO.N,/Calculator/Y4*%
X147470000Y-135890000D03*
%TD*%
D13*
%TO.P,J2,1,Pin_1*%
%TO.N,/Calculator/NRST*%
X147415000Y-108585000D03*
D14*
%TO.P,J2,2,Pin_2*%
%TO.N,/Calculator/SWCLK*%
X146415000Y-108585000D03*
%TO.P,J2,3,Pin_3*%
%TO.N,/Calculator/SWDIO*%
X145415000Y-108585000D03*
%TO.P,J2,4,Pin_4*%
%TO.N,GND*%
X144415000Y-108585000D03*
%TD*%
D10*
%TO.P,SW4,1,1*%
%TO.N,/Calculator/X1*%
X119940000Y-135890000D03*
D11*
%TO.P,SW4,2,2*%
%TO.N,/Calculator/Y4*%
X126440000Y-135890000D03*
%TD*%
D10*
%TO.P,SW23,1,1*%
%TO.N,/Calculator/X5*%
X161290000Y-128270000D03*
D11*
%TO.P,SW23,2,2*%
%TO.N,/Calculator/Y3*%
X167790000Y-128270000D03*
%TD*%
D10*
%TO.P,SW19,1,1*%
%TO.N,/Calculator/X4*%
X151130000Y-135890000D03*
D11*
%TO.P,SW19,2,2*%
%TO.N,/Calculator/Y4*%
X157630000Y-135890000D03*
%TD*%
D15*
%TO.P,C4,1*%
%TO.N,+BATT*%
X155049000Y-92940500D03*
%TO.P,C4,2*%
%TO.N,GND*%
X155049000Y-94665500D03*
%TD*%
D10*
%TO.P,SW26,1,1*%
%TO.N,/Calculator/X6*%
X171450000Y-113030000D03*
D11*
%TO.P,SW26,2,2*%
%TO.N,/Calculator/Y1*%
X177950000Y-113030000D03*
%TD*%
D10*
%TO.P,SW29,1,1*%
%TO.N,/Calculator/X6*%
X171450000Y-135890000D03*
D11*
%TO.P,SW29,2,2*%
%TO.N,/Calculator/Y4*%
X177950000Y-135890000D03*
%TD*%
D10*
%TO.P,SW1,1,1*%
%TO.N,/Calculator/X1*%
X119940000Y-113030000D03*
D11*
%TO.P,SW1,2,2*%
%TO.N,/Calculator/Y1*%
X126440000Y-113030000D03*
%TD*%
D16*
%TO.P,J1,1,Pin_1*%
%TO.N,+BATT*%
X113030000Y-98790000D03*
D17*
%TO.P,J1,2,Pin_2*%
%TO.N,GND*%
X113030000Y-96790000D03*
%TD*%
D10*
%TO.P,SW30,1,1*%
%TO.N,/Calculator/X6*%
X171450000Y-143510000D03*
D11*
%TO.P,SW30,2,2*%
%TO.N,/Calculator/Y5*%
X177950000Y-143510000D03*
%TD*%
D18*
%TO.P,R11,1*%
%TO.N,Net-(J3-Pin_23)*%
X139041500Y-69850000D03*
%TO.P,R11,2*%
%TO.N,GND*%
X140866500Y-69850000D03*
%TD*%
D10*
%TO.P,SW25,1,1*%
%TO.N,/Calculator/X5*%
X161290000Y-143510000D03*
D11*
%TO.P,SW25,2,2*%
%TO.N,/Calculator/Y5*%
X167790000Y-143510000D03*
%TD*%
D19*
%TO.P,C1,1*%
%TO.N,/Calculator/NRST*%
X148926500Y-90247000D03*
%TO.P,C1,2*%
%TO.N,GND*%
X147201500Y-90247000D03*
%TD*%
D18*
%TO.P,R12,1*%
%TO.N,Net-(J3-Pin_22)*%
X139041500Y-71374000D03*
%TO.P,R12,2*%
%TO.N,GND*%
X140866500Y-71374000D03*
%TD*%
D20*
%TO.P,C6,1*%
%TO.N,+BATT*%
X138793000Y-96443500D03*
%TO.P,C6,2*%
%TO.N,GND*%
X138793000Y-94718500D03*
%TD*%
D21*
%TO.P,C10,1*%
%TO.N,Net-(J3-Pin_21)*%
X138710500Y-76327000D03*
%TO.P,C10,2*%
%TO.N,Net-(J3-Pin_20)*%
X140435500Y-76327000D03*
%TD*%
D19*
%TO.P,C8,1*%
%TO.N,Net-(J3-Pin_17)*%
X145515500Y-77851000D03*
%TO.P,C8,2*%
%TO.N,Net-(J3-Pin_18)*%
X143790500Y-77851000D03*
%TD*%
D21*
%TO.P,C5,1*%
%TO.N,+BATT*%
X143772500Y-90247000D03*
%TO.P,C5,2*%
%TO.N,GND*%
X145497500Y-90247000D03*
%TD*%
D12*
%TO.P,R8,1*%
%TO.N,Net-(J3-Pin_26)*%
X140589000Y-81788000D03*
%TO.P,R8,2*%
%TO.N,Net-(J3-Pin_22)*%
X140589000Y-79963000D03*
%TD*%
D19*
%TO.P,C3,1*%
%TO.N,+BATT*%
X151085500Y-106249000D03*
%TO.P,C3,2*%
%TO.N,GND*%
X149360500Y-106249000D03*
%TD*%
D10*
%TO.P,SW5,1,1*%
%TO.N,/Calculator/X1*%
X119940000Y-142875000D03*
D11*
%TO.P,SW5,2,2*%
%TO.N,/Calculator/Y5*%
X126440000Y-142875000D03*
%TD*%
D22*
%TO.P,J3,1,Pin_1*%
%TO.N,/Calculator/NCS*%
X165100000Y-73660000D03*
%TO.P,J3,2,Pin_2*%
%TO.N,/Calculator/LCD_RST*%
X163830000Y-73660000D03*
%TO.P,J3,3,Pin_3*%
%TO.N,/Calculator/A0*%
X162560000Y-73660000D03*
%TO.P,J3,4,Pin_4*%
%TO.N,/Calculator/WR*%
X161290000Y-73660000D03*
%TO.P,J3,5,Pin_5*%
%TO.N,/Calculator/RD*%
X160020000Y-73660000D03*
%TO.P,J3,6,Pin_6*%
%TO.N,+BATT*%
X158750000Y-73660000D03*
%TO.P,J3,7,Pin_7*%
X157480000Y-73660000D03*
%TO.P,J3,8,Pin_8*%
X156210000Y-73660000D03*
%TO.P,J3,9,Pin_9*%
X154940000Y-73660000D03*
%TO.P,J3,10,Pin_10*%
X153670000Y-73660000D03*
%TO.P,J3,11,Pin_11*%
X152400000Y-73660000D03*
%TO.P,J3,12,Pin_12*%
%TO.N,/Calculator/SCL*%
X151130000Y-73660000D03*
%TO.P,J3,13,Pin_13*%
%TO.N,/Calculator/SI*%
X149860000Y-73660000D03*
%TO.P,J3,14,Pin_14*%
%TO.N,+BATT*%
X148590000Y-73660000D03*
%TO.P,J3,15,Pin_15*%
%TO.N,GND*%
X147320000Y-73660000D03*
%TO.P,J3,16,Pin_16*%
%TO.N,Net-(J3-Pin_16)*%
X146050000Y-73660000D03*
%TO.P,J3,17,Pin_17*%
%TO.N,Net-(J3-Pin_17)*%
X144780000Y-73660000D03*
%TO.P,J3,18,Pin_18*%
%TO.N,Net-(J3-Pin_18)*%
X143510000Y-73660000D03*
%TO.P,J3,19,Pin_19*%
%TO.N,Net-(J3-Pin_19)*%
X142240000Y-73660000D03*
%TO.P,J3,20,Pin_20*%
%TO.N,Net-(J3-Pin_20)*%
X140970000Y-73660000D03*
%TO.P,J3,21,Pin_21*%
%TO.N,Net-(J3-Pin_21)*%
X139700000Y-73660000D03*
%TO.P,J3,22,Pin_22*%
%TO.N,Net-(J3-Pin_22)*%
X138430000Y-73660000D03*
%TO.P,J3,23,Pin_23*%
%TO.N,Net-(J3-Pin_23)*%
X137160000Y-73660000D03*
%TO.P,J3,24,Pin_24*%
%TO.N,Net-(J3-Pin_24)*%
X135890000Y-73660000D03*
%TO.P,J3,25,Pin_25*%
%TO.N,Net-(J3-Pin_25)*%
X134620000Y-73660000D03*
%TO.P,J3,26,Pin_26*%
%TO.N,Net-(J3-Pin_26)*%
X133350000Y-73660000D03*
%TO.P,J3,27,Pin_27*%
%TO.N,/Calculator/C86*%
X132080000Y-73660000D03*
%TO.P,J3,28,Pin_28*%
%TO.N,GND*%
X130810000Y-73660000D03*
%TD*%
D10*
%TO.P,SW21,1,1*%
%TO.N,/Calculator/X5*%
X161290000Y-113030000D03*
D11*
%TO.P,SW21,2,2*%
%TO.N,/Calculator/Y1*%
X167790000Y-113030000D03*
%TD*%
D10*
%TO.P,SW17,1,1*%
%TO.N,/Calculator/X4*%
X151130000Y-120650000D03*
D11*
%TO.P,SW17,2,2*%
%TO.N,/Calculator/Y2*%
X157630000Y-120650000D03*
%TD*%
D10*
%TO.P,SW22,1,1*%
%TO.N,/Calculator/X5*%
X161290000Y-120650000D03*
D11*
%TO.P,SW22,2,2*%
%TO.N,/Calculator/Y2*%
X167790000Y-120650000D03*
%TD*%
D20*
%TO.P,C2,1*%
%TO.N,+BATT*%
X139428000Y-103682500D03*
%TO.P,C2,2*%
%TO.N,GND*%
X139428000Y-101957500D03*
%TD*%
D10*
%TO.P,SW18,1,1*%
%TO.N,/Calculator/X4*%
X151130000Y-128270000D03*
D11*
%TO.P,SW18,2,2*%
%TO.N,/Calculator/Y3*%
X157630000Y-128270000D03*
%TD*%
D12*
%TO.P,R5,1*%
%TO.N,Net-(J3-Pin_26)*%
X137541000Y-81788000D03*
%TO.P,R5,2*%
%TO.N,Net-(J3-Pin_24)*%
X137541000Y-79963000D03*
%TD*%
D10*
%TO.P,SW16,1,1*%
%TO.N,/Calculator/X4*%
X151130000Y-113030000D03*
D11*
%TO.P,SW16,2,2*%
%TO.N,/Calculator/Y1*%
X157630000Y-113030000D03*
%TD*%
D21*
%TO.P,C9,1*%
%TO.N,Net-(J3-Pin_19)*%
X142012500Y-76327000D03*
%TO.P,C9,2*%
%TO.N,Net-(J3-Pin_18)*%
X143737500Y-76327000D03*
%TD*%
D10*
%TO.P,SW2,1,1*%
%TO.N,/Calculator/X1*%
X119940000Y-120650000D03*
D11*
%TO.P,SW2,2,2*%
%TO.N,/Calculator/Y2*%
X126440000Y-120650000D03*
%TD*%
D10*
%TO.P,SW13,1,1*%
%TO.N,/Calculator/X3*%
X140970000Y-128270000D03*
D11*
%TO.P,SW13,2,2*%
%TO.N,/Calculator/Y3*%
X147470000Y-128270000D03*
%TD*%
D10*
%TO.P,SW20,1,1*%
%TO.N,/Calculator/X4*%
X151130000Y-143510000D03*
D11*
%TO.P,SW20,2,2*%
%TO.N,/Calculator/Y5*%
X157630000Y-143510000D03*
%TD*%
D23*
%TO.P,U1,1,VDD*%
%TO.N,+BATT*%
X150798000Y-92700000D03*
%TO.P,U1,2,PC13*%
%TO.N,/Calculator/A0*%
X150298000Y-92700000D03*
%TO.P,U1,3,PC14*%
%TO.N,/Calculator/WR*%
X149798000Y-92700000D03*
%TO.P,U1,4,PC15*%
%TO.N,/Calculator/RD*%
X149298000Y-92700000D03*
%TO.P,U1,5,PH0*%
%TO.N,/Calculator/LCD_RST*%
X148798000Y-92700000D03*
%TO.P,U1,6,PH1*%
%TO.N,/Calculator/NCS*%
X148298000Y-92700000D03*
%TO.P,U1,7,NRST*%
%TO.N,/Calculator/NRST*%
X147798000Y-92700000D03*
%TO.P,U1,8,PC0*%
%TO.N,unconnected-(U1-PC0-Pad8)*%
X147298000Y-92700000D03*
%TO.P,U1,9,PC1*%
%TO.N,unconnected-(U1-PC1-Pad9)*%
X146798000Y-92700000D03*
%TO.P,U1,10,PC2*%
%TO.N,unconnected-(U1-PC2-Pad10)*%
X146298000Y-92700000D03*
%TO.P,U1,11,PC3*%
%TO.N,/Calculator/SI*%
X145798000Y-92700000D03*
%TO.P,U1,12,VSSA*%
%TO.N,GND*%
X145298000Y-92700000D03*
%TO.P,U1,13,VDDA*%
%TO.N,+BATT*%
X144798000Y-92700000D03*
%TO.P,U1,14,PA0*%
%TO.N,unconnected-(U1-PA0-Pad14)*%
X144298000Y-92700000D03*
%TO.P,U1,15,PA1*%
%TO.N,unconnected-(U1-PA1-Pad15)*%
X143798000Y-92700000D03*
%TO.P,U1,16,PA2*%
%TO.N,unconnected-(U1-PA2-Pad16)*%
X143298000Y-92700000D03*
D24*
%TO.P,U1,17,PA3*%
%TO.N,unconnected-(U1-PA3-Pad17)*%
X141373000Y-94625000D03*
%TO.P,U1,18,VSS*%
%TO.N,GND*%
X141373000Y-95125000D03*
%TO.P,U1,19,VDD*%
%TO.N,+BATT*%
X141373000Y-95625000D03*
%TO.P,U1,20,PA4*%
%TO.N,unconnected-(U1-PA4-Pad20)*%
X141373000Y-96125000D03*
%TO.P,U1,21,PA5*%
%TO.N,/Calculator/C86*%
X141373000Y-96625000D03*
%TO.P,U1,22,PA6*%
%TO.N,unconnected-(U1-PA6-Pad22)*%
X141373000Y-97125000D03*
%TO.P,U1,23,PA7*%
%TO.N,unconnected-(U1-PA7-Pad23)*%
X141373000Y-97625000D03*
%TO.P,U1,24,PC4*%
%TO.N,unconnected-(U1-PC4-Pad24)*%
X141373000Y-98125000D03*
%TO.P,U1,25,PC5*%
%TO.N,unconnected-(U1-PC5-Pad25)*%
X141373000Y-98625000D03*
%TO.P,U1,26,PB0*%
%TO.N,/Calculator/X1*%
X141373000Y-99125000D03*
%TO.P,U1,27,PB1*%
%TO.N,/Calculator/X2*%
X141373000Y-99625000D03*
%TO.P,U1,28,PB2*%
%TO.N,/Calculator/X3*%
X141373000Y-100125000D03*
%TO.P,U1,29,PB10*%
%TO.N,/Calculator/SCL*%
X141373000Y-100625000D03*
%TO.P,U1,30,PB11*%
%TO.N,/Calculator/Y5*%
X141373000Y-101125000D03*
%TO.P,U1,31,VSS*%
%TO.N,GND*%
X141373000Y-101625000D03*
%TO.P,U1,32,VDD*%
%TO.N,+BATT*%
X141373000Y-102125000D03*
D23*
%TO.P,U1,33,PB12*%
%TO.N,unconnected-(U1-PB12-Pad33)*%
X143298000Y-104050000D03*
%TO.P,U1,34,PB13*%
%TO.N,unconnected-(U1-PB13-Pad34)*%
X143798000Y-104050000D03*
%TO.P,U1,35,PB14*%
%TO.N,unconnected-(U1-PB14-Pad35)*%
X144298000Y-104050000D03*
%TO.P,U1,36,PB15*%
%TO.N,unconnected-(U1-PB15-Pad36)*%
X144798000Y-104050000D03*
%TO.P,U1,37,PC6*%
%TO.N,unconnected-(U1-PC6-Pad37)*%
X145298000Y-104050000D03*
%TO.P,U1,38,PC7*%
%TO.N,unconnected-(U1-PC7-Pad38)*%
X145798000Y-104050000D03*
%TO.P,U1,39,PC8*%
%TO.N,unconnected-(U1-PC8-Pad39)*%
X146298000Y-104050000D03*
%TO.P,U1,40,PC9*%
%TO.N,unconnected-(U1-PC9-Pad40)*%
X146798000Y-104050000D03*
%TO.P,U1,41,PA8*%
%TO.N,unconnected-(U1-PA8-Pad41)*%
X147298000Y-104050000D03*
%TO.P,U1,42,PA9*%
%TO.N,unconnected-(U1-PA9-Pad42)*%
X147798000Y-104050000D03*
%TO.P,U1,43,PA10*%
%TO.N,unconnected-(U1-PA10-Pad43)*%
X148298000Y-104050000D03*
%TO.P,U1,44,PA11*%
%TO.N,unconnected-(U1-PA11-Pad44)*%
X148798000Y-104050000D03*
%TO.P,U1,45,PA12*%
%TO.N,unconnected-(U1-PA12-Pad45)*%
X149298000Y-104050000D03*
%TO.P,U1,46,PA13*%
%TO.N,/Calculator/SWDIO*%
X149798000Y-104050000D03*
%TO.P,U1,47,VSS*%
%TO.N,GND*%
X150298000Y-104050000D03*
%TO.P,U1,48,VDDIO2*%
%TO.N,+BATT*%
X150798000Y-104050000D03*
D24*
%TO.P,U1,49,PA14*%
%TO.N,/Calculator/SWCLK*%
X152723000Y-102125000D03*
%TO.P,U1,50,PA15*%
%TO.N,unconnected-(U1-PA15-Pad50)*%
X152723000Y-101625000D03*
%TO.P,U1,51,PC10*%
%TO.N,unconnected-(U1-PC10-Pad51)*%
X152723000Y-101125000D03*
%TO.P,U1,52,PC11*%
%TO.N,unconnected-(U1-PC11-Pad52)*%
X152723000Y-100625000D03*
%TO.P,U1,53,PC12*%
%TO.N,unconnected-(U1-PC12-Pad53)*%
X152723000Y-100125000D03*
%TO.P,U1,54,PD2*%
%TO.N,unconnected-(U1-PD2-Pad54)*%
X152723000Y-99625000D03*
%TO.P,U1,55,PB3*%
%TO.N,/Calculator/X4*%
X152723000Y-99125000D03*
%TO.P,U1,56,PB4*%
%TO.N,/Calculator/X5*%
X152723000Y-98625000D03*
%TO.P,U1,57,PB5*%
%TO.N,/Calculator/X6*%
X152723000Y-98125000D03*
%TO.P,U1,58,PB6*%
%TO.N,/Calculator/Y1*%
X152723000Y-97625000D03*
%TO.P,U1,59,PB7*%
%TO.N,/Calculator/Y2*%
X152723000Y-97125000D03*
%TO.P,U1,60,BOOT0*%
%TO.N,Net-(U1-BOOT0)*%
X152723000Y-96625000D03*
%TO.P,U1,61,PB8*%
%TO.N,/Calculator/Y3*%
X152723000Y-96125000D03*
%TO.P,U1,62,PB9*%
%TO.N,/Calculator/Y4*%
X152723000Y-95625000D03*
%TO.P,U1,63,VSS*%
%TO.N,GND*%
X152723000Y-95125000D03*
%TO.P,U1,64,VDD*%
%TO.N,+BATT*%
X152723000Y-94625000D03*
%TD*%
D10*
%TO.P,SW31,1,1*%
%TO.N,GND*%
X142782000Y-86310000D03*
D11*
%TO.P,SW31,2,2*%
%TO.N,/Calculator/NRST*%
X149282000Y-86310000D03*
%TD*%
D12*
%TO.P,R9,1*%
%TO.N,Net-(J3-Pin_25)*%
X133477000Y-71501000D03*
%TO.P,R9,2*%
%TO.N,GND*%
X133477000Y-69676000D03*
%TD*%
D25*
%TO.P,R1,1*%
%TO.N,+BATT*%
X153820500Y-86360000D03*
%TO.P,R1,2*%
%TO.N,/Calculator/NRST*%
X151995500Y-86360000D03*
%TD*%
D10*
%TO.P,SW9,1,1*%
%TO.N,/Calculator/X2*%
X130810000Y-135890000D03*
D11*
%TO.P,SW9,2,2*%
%TO.N,/Calculator/Y4*%
X137310000Y-135890000D03*
%TD*%
D21*
%TO.P,C7,1*%
%TO.N,Net-(J3-Pin_16)*%
X146584500Y-76327000D03*
%TO.P,C7,2*%
%TO.N,GND*%
X148309500Y-76327000D03*
%TD*%
D18*
%TO.P,R2,1*%
%TO.N,Net-(U1-BOOT0)*%
X157075500Y-97155000D03*
%TO.P,R2,2*%
%TO.N,GND*%
X158900500Y-97155000D03*
%TD*%
D12*
%TO.P,R7,1*%
%TO.N,Net-(J3-Pin_26)*%
X136017000Y-81788000D03*
%TO.P,R7,2*%
%TO.N,Net-(J3-Pin_25)*%
X136017000Y-79963000D03*
%TD*%
D10*
%TO.P,SW8,1,1*%
%TO.N,/Calculator/X2*%
X130810000Y-128270000D03*
D11*
%TO.P,SW8,2,2*%
%TO.N,/Calculator/Y3*%
X137310000Y-128270000D03*
%TD*%
D26*
%TO.N,/Calculator/NCS*%
X148522500Y-94615000D03*
%TO.N,/Calculator/LCD_RST*%
X149224664Y-91321500D03*
%TO.N,/Calculator/RD*%
X149987000Y-95885000D03*
%TO.N,/Calculator/WR*%
X150368000Y-94742000D03*
%TO.N,/Calculator/A0*%
X150749000Y-91059000D03*
%TO.N,unconnected-(U1-PA2-Pad16)*%
X144018000Y-94615000D03*
%TO.N,/Calculator/C86*%
X132334000Y-97282000D03*
X132334000Y-88138000D03*
%TO.N,/Calculator/NCS*%
X165100000Y-94742000D03*
%TO.N,GND*%
X149479000Y-76327000D03*
X147320000Y-88900000D03*
X142839701Y-101400500D03*
X137160000Y-94615000D03*
X159893000Y-97155000D03*
X147955000Y-106590500D03*
X141986000Y-71374000D03*
X156210000Y-94615000D03*
%TO.N,/Calculator/LCD_RST*%
X163703000Y-88519000D03*
%TO.N,/Calculator/WR*%
X161290000Y-91313000D03*
%TO.N,/Calculator/SCL*%
X143637000Y-116078000D03*
%TO.N,/Calculator/A0*%
X162560000Y-89916000D03*
%TO.N,/Calculator/RD*%
X160020000Y-94615000D03*
%TO.N,/Calculator/SI*%
X145798000Y-94107000D03*
%TD*%
D27*
%TO.N,/Calculator/RD*%
X160020000Y-73660000D02*
X160020000Y-94615000D01*
%TO.N,/Calculator/NCS*%
X148298000Y-94390500D02*
X148522500Y-94615000D01*
X148298000Y-92700000D02*
X148298000Y-94390500D01*
%TO.N,/Calculator/LCD_RST*%
X163830000Y-88392000D02*
X163830000Y-73660000D01*
X163703000Y-88519000D02*
X163830000Y-88392000D01*
X148798000Y-91748164D02*
X149224664Y-91321500D01*
X148798000Y-92700000D02*
X148798000Y-91748164D01*
%TO.N,/Calculator/RD*%
X149987000Y-95885000D02*
X149298000Y-95196000D01*
X149298000Y-95196000D02*
X149298000Y-92700000D01*
%TO.N,/Calculator/WR*%
X149798000Y-94172000D02*
X149798000Y-92700000D01*
X150368000Y-94742000D02*
X149798000Y-94172000D01*
X161290000Y-73660000D02*
X161290000Y-91313000D01*
%TO.N,/Calculator/A0*%
X162560000Y-73660000D02*
X162560000Y-89916000D01*
X150298000Y-91510000D02*
X150749000Y-91059000D01*
X150298000Y-92700000D02*
X150298000Y-91510000D01*
%TO.N,unconnected-(U1-PA2-Pad16)*%
X143298000Y-93542764D02*
X143298000Y-92700000D01*
X144018000Y-94615000D02*
X143298000Y-93542764D01*
%TO.N,/Calculator/SI*%
X145798000Y-94107000D02*
X145798000Y-92700000D01*
%TO.N,/Calculator/C86*%
X140103000Y-96625000D02*
X141373000Y-96625000D01*
X139422000Y-97306000D02*
X140103000Y-96625000D01*
X132358000Y-97306000D02*
X139422000Y-97306000D01*
X132334000Y-97282000D02*
X132358000Y-97306000D01*
X132080000Y-87884000D02*
X132334000Y-88138000D01*
X132080000Y-73660000D02*
X132080000Y-87884000D01*
%TO.N,Net-(J3-Pin_16)*%
X146584500Y-76327000D02*
X146584500Y-75464500D01*
X146050000Y-74930000D02*
X146050000Y-73660000D01*
X146584500Y-75464500D02*
X146050000Y-74930000D01*
%TO.N,Net-(J3-Pin_17)*%
X144780000Y-75311000D02*
X144780000Y-73660000D01*
X145515500Y-76046500D02*
X144780000Y-75311000D01*
X145515500Y-77851000D02*
X145515500Y-76046500D01*
%TO.N,Net-(J3-Pin_18)*%
X143510000Y-73660000D02*
X143510000Y-76099500D01*
X143737500Y-76327000D02*
X143737500Y-77798000D01*
X143737500Y-77798000D02*
X143790500Y-77851000D01*
X143510000Y-76099500D02*
X143737500Y-76327000D01*
%TO.N,Net-(J3-Pin_19)*%
X142240000Y-75057000D02*
X142012500Y-75284500D01*
X142012500Y-75284500D02*
X142012500Y-76327000D01*
X142240000Y-73660000D02*
X142240000Y-75057000D01*
%TO.N,Net-(J3-Pin_20)*%
X140970000Y-74549000D02*
X140435500Y-75083500D01*
X140970000Y-73660000D02*
X140970000Y-74549000D01*
X140435500Y-75083500D02*
X140435500Y-76327000D01*
%TO.N,Net-(J3-Pin_21)*%
X138710500Y-75615250D02*
X138710500Y-76327000D01*
X139700000Y-73660000D02*
X139700000Y-74625750D01*
X139700000Y-74625750D02*
X138710500Y-75615250D01*
%TO.N,/Calculator/NCS*%
X165100000Y-73660000D02*
X165100000Y-94742000D01*
%TO.N,/Calculator/Y2*%
X177950000Y-120650000D02*
X179832000Y-118768000D01*
X163576000Y-105283000D02*
X155418000Y-97125000D01*
X179832000Y-118768000D02*
X179832000Y-111633000D01*
X173482000Y-105283000D02*
X163576000Y-105283000D01*
X179832000Y-111633000D02*
X173482000Y-105283000D01*
X155418000Y-97125000D02*
X152723000Y-97125000D01*
%TO.N,/Calculator/X1*%
X119940000Y-113030000D02*
X119940000Y-110751000D01*
X136779000Y-99125000D02*
X126400500Y-109503500D01*
X126400500Y-109503500D02*
X121187500Y-109503500D01*
D28*
X119940000Y-113030000D02*
X119940000Y-120650000D01*
D27*
X119940000Y-110751000D02*
X121187500Y-109503500D01*
D28*
X119940000Y-128270000D02*
X119940000Y-135890000D01*
D27*
X136779000Y-99125000D02*
X141373000Y-99125000D01*
D28*
X119940000Y-142875000D02*
X119940000Y-135890000D01*
X119940000Y-120650000D02*
X119940000Y-128270000D01*
D27*
%TO.N,/Calculator/Y3*%
X180576000Y-111361000D02*
X165340000Y-96125000D01*
X165340000Y-96125000D02*
X152723000Y-96125000D01*
X177950000Y-128270000D02*
X177950000Y-126401000D01*
X177950000Y-126401000D02*
X180576000Y-123775000D01*
X180576000Y-123775000D02*
X180576000Y-111361000D01*
%TO.N,/Calculator/Y4*%
X177950000Y-132878000D02*
X181719000Y-129109000D01*
X181719000Y-129109000D02*
X181719000Y-109075000D01*
X177950000Y-135890000D02*
X177950000Y-132878000D01*
X181719000Y-109075000D02*
X168269000Y-95625000D01*
X168269000Y-95625000D02*
X152723000Y-95625000D01*
%TO.N,/Calculator/Y5*%
X138650698Y-101058698D02*
X138158698Y-101550698D01*
X146020000Y-142060000D02*
X147470000Y-143510000D01*
X139935076Y-101125000D02*
X139868774Y-101058698D01*
X139868774Y-101058698D02*
X138650698Y-101058698D01*
X138158000Y-106249000D02*
X146020000Y-114111000D01*
X138158000Y-101550000D02*
X138158000Y-106249000D01*
X146020000Y-114111000D02*
X146020000Y-142060000D01*
X141373000Y-101125000D02*
X139935076Y-101125000D01*
%TO.N,/Calculator/X2*%
X130810000Y-113030000D02*
X130810000Y-106172000D01*
X130810000Y-106172000D02*
X137357000Y-99625000D01*
D28*
X130810000Y-143510000D02*
X130810000Y-135890000D01*
X130810000Y-120650000D02*
X130810000Y-113030000D01*
D27*
X137357000Y-99625000D02*
X141373000Y-99625000D01*
D28*
X130810000Y-135890000D02*
X130810000Y-128270000D01*
X130810000Y-128270000D02*
X130810000Y-120650000D01*
D27*
%TO.N,/Calculator/X3*%
X137033000Y-107537000D02*
X137033000Y-100838000D01*
X140970000Y-111474000D02*
X137033000Y-107537000D01*
X137746000Y-100125000D02*
X141373000Y-100125000D01*
D28*
X140970000Y-143510000D02*
X140970000Y-135890000D01*
X140970000Y-128270000D02*
X140970000Y-120650000D01*
D27*
X140970000Y-113030000D02*
X140970000Y-111474000D01*
X137033000Y-100838000D02*
X137746000Y-100125000D01*
D28*
X140970000Y-120650000D02*
X140970000Y-113030000D01*
X140970000Y-135890000D02*
X140970000Y-128270000D01*
%TO.N,/Calculator/X4*%
X151130000Y-128270000D02*
X151130000Y-135890000D01*
X151130000Y-120650000D02*
X151130000Y-128270000D01*
D27*
X153862000Y-99125000D02*
X152723000Y-99125000D01*
X155575000Y-104961000D02*
X155575000Y-100838000D01*
X151130000Y-109406000D02*
X155575000Y-104961000D01*
D28*
X151130000Y-135890000D02*
X151130000Y-143510000D01*
D27*
X155575000Y-100838000D02*
X153862000Y-99125000D01*
X151130000Y-113030000D02*
X151130000Y-109406000D01*
D28*
X151130000Y-113030000D02*
X151130000Y-120650000D01*
D27*
%TO.N,/Calculator/X5*%
X161290000Y-113030000D02*
X161290000Y-105918000D01*
D28*
X161290000Y-113030000D02*
X161290000Y-120650000D01*
X161290000Y-120650000D02*
X161290000Y-128270000D01*
D27*
X161290000Y-105918000D02*
X153997000Y-98625000D01*
D28*
X161290000Y-135890000D02*
X161290000Y-140970000D01*
D27*
X153997000Y-98625000D02*
X152723000Y-98625000D01*
D28*
X161290000Y-128270000D02*
X161290000Y-135890000D01*
X161290000Y-140970000D02*
X161290000Y-143510000D01*
D27*
%TO.N,/Calculator/X6*%
X171450000Y-109728000D02*
X169037000Y-107315000D01*
X169037000Y-107315000D02*
X163576000Y-107315000D01*
X171450000Y-113030000D02*
X171450000Y-109728000D01*
X154386000Y-98125000D02*
X152723000Y-98125000D01*
D28*
X171450000Y-143510000D02*
X171450000Y-113030000D01*
D27*
X163576000Y-107315000D02*
X154386000Y-98125000D01*
%TO.N,/Calculator/Y1*%
X172974000Y-106426000D02*
X163957000Y-106426000D01*
X177950000Y-113030000D02*
X177950000Y-111402000D01*
X163957000Y-106426000D02*
X155156000Y-97625000D01*
X177950000Y-111402000D02*
X172974000Y-106426000D01*
X155156000Y-97625000D02*
X152723000Y-97625000D01*
%TO.N,+BATT*%
X113030000Y-98790000D02*
X121555000Y-98790000D01*
X121555000Y-98790000D02*
X123901500Y-96443500D01*
X150798000Y-104050000D02*
X150798000Y-105961500D01*
X140597500Y-103682500D02*
X141333000Y-102947000D01*
X138793000Y-96443500D02*
X139327500Y-96443500D01*
X123901500Y-96443500D02*
X138793000Y-96443500D01*
X141333000Y-102947000D02*
X141333000Y-102165000D01*
X144798000Y-92700000D02*
X144798000Y-91272500D01*
X150798000Y-105961500D02*
X151085500Y-106249000D01*
X139428000Y-103682500D02*
X140597500Y-103682500D01*
X141333000Y-102165000D02*
X141373000Y-102125000D01*
X139327500Y-96443500D02*
X140146000Y-95625000D01*
X144798000Y-91272500D02*
X143772500Y-90247000D01*
X140146000Y-95625000D02*
X141373000Y-95625000D01*
%TO.N,Net-(U1-BOOT0)*%
X152723000Y-96625000D02*
X156545500Y-96625000D01*
X156545500Y-96625000D02*
X157075500Y-97155000D01*
%TO.N,GND*%
X142615201Y-101625000D02*
X142839701Y-101400500D01*
X148309500Y-76327000D02*
X149479000Y-76327000D01*
X137263500Y-94718500D02*
X137160000Y-94615000D01*
X140866500Y-71374000D02*
X141986000Y-71374000D01*
X140866500Y-69850000D02*
X140866500Y-71374000D01*
X140335000Y-68453000D02*
X140866500Y-68984500D01*
X149360500Y-106249000D02*
X148296500Y-106249000D01*
X141373000Y-101625000D02*
X142615201Y-101625000D01*
X158900500Y-97155000D02*
X159893000Y-97155000D01*
X147320000Y-73660000D02*
X147320000Y-75337500D01*
X147320000Y-75337500D02*
X148309500Y-76327000D01*
X145497500Y-89025500D02*
X142782000Y-86310000D01*
X140866500Y-68984500D02*
X140866500Y-69850000D01*
X155049000Y-94665500D02*
X156159500Y-94665500D01*
X156159500Y-94665500D02*
X156210000Y-94615000D01*
X152723000Y-95125000D02*
X154589500Y-95125000D01*
X150298000Y-104050000D02*
X150298000Y-105311500D01*
X141373000Y-101625000D02*
X139760500Y-101625000D01*
X135024500Y-69699500D02*
X136802500Y-69699500D01*
X150298000Y-105311500D02*
X149360500Y-106249000D01*
X145298000Y-92700000D02*
X145298000Y-90446500D01*
X138049000Y-68453000D02*
X140335000Y-68453000D01*
X138793000Y-94718500D02*
X139529500Y-94718500D01*
X139529500Y-94718500D02*
X139936000Y-95125000D01*
X135001000Y-69676000D02*
X135024500Y-69699500D01*
X145497500Y-90247000D02*
X145497500Y-89025500D01*
X133477000Y-69676000D02*
X135001000Y-69676000D01*
X136802500Y-69699500D02*
X138049000Y-68453000D01*
X145298000Y-90446500D02*
X145497500Y-90247000D01*
X138793000Y-94718500D02*
X137263500Y-94718500D01*
X130786500Y-73683500D02*
X130810000Y-73660000D01*
X139760500Y-101625000D02*
X139428000Y-101957500D01*
X148296500Y-106249000D02*
X147955000Y-106590500D01*
X147201500Y-90247000D02*
X147201500Y-89018500D01*
X147201500Y-89018500D02*
X147320000Y-88900000D01*
X141373000Y-95125000D02*
X139936000Y-95125000D01*
X154589500Y-95125000D02*
X155049000Y-94665500D01*
%TO.N,Net-(J3-Pin_23)*%
X137033000Y-73533000D02*
X137033000Y-71858500D01*
X139065000Y-79963000D02*
X137160000Y-78058000D01*
X137160000Y-73660000D02*
X137033000Y-73533000D01*
X137033000Y-71858500D02*
X139041500Y-69850000D01*
X137160000Y-78058000D02*
X137160000Y-73660000D01*
%TO.N,Net-(J3-Pin_24)*%
X137541000Y-79963000D02*
X135890000Y-78312000D01*
X135890000Y-73660000D02*
X135890000Y-72390000D01*
X135890000Y-78312000D02*
X135890000Y-73660000D01*
X135890000Y-72390000D02*
X135024500Y-71524500D01*
X135024500Y-71524500D02*
X135024500Y-71374000D01*
%TO.N,Net-(J3-Pin_26)*%
X134805000Y-81211000D02*
X135382000Y-81788000D01*
X136017000Y-81788000D02*
X137541000Y-81788000D01*
X139065000Y-81788000D02*
X140589000Y-81788000D01*
X133350000Y-73660000D02*
X133350000Y-74539695D01*
X135382000Y-81788000D02*
X136017000Y-81788000D01*
X137541000Y-81788000D02*
X139065000Y-81788000D01*
X133350000Y-74539695D02*
X134805000Y-75994695D01*
X134805000Y-75994695D02*
X134805000Y-81211000D01*
%TO.N,Net-(J3-Pin_22)*%
X138430000Y-73660000D02*
X137848000Y-74242000D01*
X137848000Y-77222000D02*
X140589000Y-79963000D01*
X138430000Y-73660000D02*
X138430000Y-71985500D01*
X137848000Y-74242000D02*
X137848000Y-77222000D01*
X138430000Y-71985500D02*
X139041500Y-71374000D01*
%TO.N,/Calculator/SWDIO*%
X149280764Y-105410000D02*
X147988960Y-105410000D01*
X149798000Y-104892764D02*
X149280764Y-105410000D01*
X149798000Y-104050000D02*
X149798000Y-104892764D01*
X145415000Y-107983960D02*
X145415000Y-108585000D01*
X147988960Y-105410000D02*
X145415000Y-107983960D01*
%TO.N,/Calculator/SWCLK*%
X147320000Y-107315000D02*
X146415000Y-108220000D01*
X154686000Y-104394000D02*
X151765000Y-107315000D01*
X151765000Y-107315000D02*
X147320000Y-107315000D01*
X146415000Y-108220000D02*
X146415000Y-108585000D01*
X154195000Y-102125000D02*
X154686000Y-102616000D01*
X152723000Y-102125000D02*
X154195000Y-102125000D01*
X154686000Y-102616000D02*
X154686000Y-104394000D01*
%TO.N,/Calculator/NRST*%
X142240000Y-107950000D02*
X144145000Y-109855000D01*
X147798000Y-92700000D02*
X147798000Y-91375500D01*
X142240000Y-103765236D02*
X142240000Y-107950000D01*
X147415000Y-109760000D02*
X147415000Y-108585000D01*
X147798000Y-91375500D02*
X148926500Y-90247000D01*
X148926500Y-86665500D02*
X149282000Y-86310000D01*
X149098000Y-90309750D02*
X149098000Y-86728250D01*
X147798000Y-92700000D02*
X147798000Y-98207236D01*
X147798000Y-98207236D02*
X142240000Y-103765236D01*
X147320000Y-109855000D02*
X147415000Y-109760000D01*
X144145000Y-109855000D02*
X147320000Y-109855000D01*
X151995500Y-86360000D02*
X149332000Y-86360000D01*
X149332000Y-86360000D02*
X149282000Y-86310000D01*
%TO.N,Net-(J3-Pin_25)*%
X134620000Y-73660000D02*
X134620000Y-72644000D01*
X136017000Y-79963000D02*
X135255000Y-79201000D01*
X135255000Y-79201000D02*
X135255000Y-74295000D01*
X135255000Y-74295000D02*
X134620000Y-73660000D01*
X134620000Y-72644000D02*
X133477000Y-71501000D01*
%TO.N,/Calculator/SCL*%
X138278302Y-100608698D02*
X137668000Y-101219000D01*
X141373000Y-100625000D02*
X141356698Y-100608698D01*
X137668000Y-101219000D02*
X137668000Y-106934000D01*
X141356698Y-100608698D02*
X138278302Y-100608698D01*
X143637000Y-112903000D02*
X143637000Y-116078000D01*
X137668000Y-106934000D02*
X143637000Y-112903000D01*
%TD*%
%TA.AperFunction,Conductor*%
%TO.N,+BATT*%
G36*
X132744539Y-71139685D02*
G01*
X132790294Y-71192489D01*
X132801500Y-71244000D01*
X132801500Y-71803760D01*
X132804274Y-71833349D01*
X132847884Y-71957976D01*
X132926288Y-72064210D01*
X132926289Y-72064211D01*
X133032523Y-72142615D01*
X133032524Y-72142615D01*
X133032525Y-72142616D01*
X133157151Y-72186225D01*
X133157150Y-72186225D01*
X133186740Y-72189000D01*
X133186744Y-72189000D01*
X133653311Y-72189000D01*
X133720350Y-72208685D01*
X133740992Y-72225319D01*
X134258181Y-72742508D01*
X134291666Y-72803831D01*
X134294500Y-72830189D01*
X134294500Y-72909635D01*
X134274815Y-72976674D01*
X134236473Y-73014628D01*
X134149112Y-73069521D01*
X134149109Y-73069523D01*
X134072681Y-73145952D01*
X134011358Y-73179437D01*
X133941666Y-73174453D01*
X133897319Y-73145952D01*
X133820890Y-73069523D01*
X133820884Y-73069518D01*
X133677697Y-72979547D01*
X133677694Y-72979545D01*
X133518056Y-72923685D01*
X133350003Y-72904751D01*
X133349997Y-72904751D01*
X133181943Y-72923685D01*
X133022305Y-72979545D01*
X133022302Y-72979547D01*
X132879115Y-73069518D01*
X132879109Y-73069523D01*
X132802681Y-73145952D01*
X132741358Y-73179437D01*
X132671666Y-73174453D01*
X132627319Y-73145952D01*
X132550890Y-73069523D01*
X132550884Y-73069518D01*
X132407697Y-72979547D01*
X132407694Y-72979545D01*
X132248056Y-72923685D01*
X132080003Y-72904751D01*
X132079997Y-72904751D01*
X131911943Y-72923685D01*
X131752305Y-72979545D01*
X131752302Y-72979547D01*
X131609115Y-73069518D01*
X131609109Y-73069523D01*
X131532681Y-73145952D01*
X131471358Y-73179437D01*
X131401666Y-73174453D01*
X131357319Y-73145952D01*
X131280890Y-73069523D01*
X131280884Y-73069518D01*
X131137697Y-72979547D01*
X131137694Y-72979545D01*
X130978056Y-72923685D01*
X130810003Y-72904751D01*
X130809997Y-72904751D01*
X130641943Y-72923685D01*
X130482305Y-72979545D01*
X130482302Y-72979547D01*
X130339115Y-73069518D01*
X130339109Y-73069523D01*
X130219523Y-73189109D01*
X130219518Y-73189115D01*
X130129547Y-73332302D01*
X130129545Y-73332305D01*
X130073685Y-73491943D01*
X130054751Y-73659997D01*
X130054751Y-73660002D01*
X130073685Y-73828056D01*
X130129545Y-73987694D01*
X130129547Y-73987697D01*
X130219518Y-74130884D01*
X130219523Y-74130890D01*
X130339109Y-74250476D01*
X130339115Y-74250481D01*
X130482302Y-74340452D01*
X130482305Y-74340454D01*
X130482309Y-74340455D01*
X130482310Y-74340456D01*
X130531605Y-74357705D01*
X130641943Y-74396314D01*
X130809997Y-74415249D01*
X130810000Y-74415249D01*
X130810003Y-74415249D01*
X130978056Y-74396314D01*
X130979205Y-74395912D01*
X131137690Y-74340456D01*
X131137692Y-74340454D01*
X131137694Y-74340454D01*
X131137697Y-74340452D01*
X131280884Y-74250481D01*
X131280885Y-74250480D01*
X131280890Y-74250477D01*
X131357319Y-74174048D01*
X131418642Y-74140563D01*
X131488334Y-74145547D01*
X131532681Y-74174048D01*
X131609110Y-74250477D01*
X131696472Y-74305371D01*
X131742763Y-74357705D01*
X131754500Y-74410364D01*
X131754500Y-87934979D01*
X131752952Y-87934979D01*
X131748009Y-87972566D01*
X131751060Y-87973384D01*
X131748956Y-87981235D01*
X131728318Y-88137999D01*
X131728318Y-88138001D01*
X131748955Y-88294760D01*
X131748956Y-88294762D01*
X131802474Y-88423967D01*
X131809464Y-88440841D01*
X131905718Y-88566282D01*
X132031159Y-88662536D01*
X132177238Y-88723044D01*
X132255619Y-88733363D01*
X132333999Y-88743682D01*
X132334000Y-88743682D01*
X132334001Y-88743682D01*
X132386254Y-88736802D01*
X132490762Y-88723044D01*
X132636841Y-88662536D01*
X132762282Y-88566282D01*
X132858536Y-88440841D01*
X132919044Y-88294762D01*
X132939682Y-88138000D01*
X132937612Y-88122279D01*
X132919044Y-87981239D01*
X132919044Y-87981238D01*
X132858536Y-87835159D01*
X132762282Y-87709718D01*
X132636841Y-87613464D01*
X132490762Y-87552956D01*
X132490760Y-87552955D01*
X132483253Y-87549846D01*
X132484483Y-87546874D01*
X132437691Y-87518310D01*
X132407203Y-87455443D01*
X132405500Y-87434961D01*
X132405500Y-74410364D01*
X132425185Y-74343325D01*
X132463526Y-74305371D01*
X132550890Y-74250477D01*
X132627319Y-74174048D01*
X132688642Y-74140563D01*
X132758334Y-74145547D01*
X132802681Y-74174048D01*
X132879110Y-74250477D01*
X132966472Y-74305371D01*
X133012763Y-74357705D01*
X133024500Y-74410364D01*
X133024500Y-74582547D01*
X133046682Y-74665335D01*
X133068108Y-74702445D01*
X133089535Y-74739557D01*
X133781563Y-75431585D01*
X134443181Y-76093202D01*
X134476666Y-76154525D01*
X134479500Y-76180883D01*
X134479500Y-81253852D01*
X134501682Y-81336640D01*
X134523108Y-81373750D01*
X134544535Y-81410862D01*
X135182138Y-82048465D01*
X135256361Y-82091318D01*
X135278857Y-82097345D01*
X135338517Y-82133709D01*
X135363805Y-82176164D01*
X135387884Y-82244976D01*
X135466288Y-82351210D01*
X135466289Y-82351211D01*
X135572523Y-82429615D01*
X135572524Y-82429615D01*
X135572525Y-82429616D01*
X135697151Y-82473225D01*
X135697150Y-82473225D01*
X135726740Y-82476000D01*
X135726744Y-82476000D01*
X136307260Y-82476000D01*
X136336849Y-82473225D01*
X136461475Y-82429616D01*
X136567711Y-82351211D01*
X136646116Y-82244975D01*
X136661959Y-82199699D01*
X136702680Y-82142923D01*
X136767633Y-82117176D01*
X136836195Y-82130632D01*
X136886597Y-82179020D01*
X136896041Y-82199699D01*
X136911884Y-82244975D01*
X136911884Y-82244976D01*
X136990288Y-82351210D01*
X136990289Y-82351211D01*
X137096523Y-82429615D01*
X137096524Y-82429615D01*
X137096525Y-82429616D01*
X137221151Y-82473225D01*
X137221150Y-82473225D01*
X137250740Y-82476000D01*
X137250744Y-82476000D01*
X137831260Y-82476000D01*
X137860849Y-82473225D01*
X137985475Y-82429616D01*
X138091711Y-82351211D01*
X138170116Y-82244975D01*
X138185959Y-82199699D01*
X138226680Y-82142923D01*
X138291633Y-82117176D01*
X138360195Y-82130632D01*
X138410597Y-82179020D01*
X138420041Y-82199699D01*
X138435884Y-82244975D01*
X138435884Y-82244976D01*
X138514288Y-82351210D01*
X138514289Y-82351211D01*
X138620523Y-82429615D01*
X138620524Y-82429615D01*
X138620525Y-82429616D01*
X138745151Y-82473225D01*
X138745150Y-82473225D01*
X138774740Y-82476000D01*
X138774744Y-82476000D01*
X139355260Y-82476000D01*
X139384849Y-82473225D01*
X139509475Y-82429616D01*
X139615711Y-82351211D01*
X139694116Y-82244975D01*
X139709959Y-82199699D01*
X139750680Y-82142923D01*
X139815633Y-82117176D01*
X139884195Y-82130632D01*
X139934597Y-82179020D01*
X139944041Y-82199699D01*
X139959884Y-82244975D01*
X139959884Y-82244976D01*
X140038288Y-82351210D01*
X140038289Y-82351211D01*
X140144523Y-82429615D01*
X140144524Y-82429615D01*
X140144525Y-82429616D01*
X140269151Y-82473225D01*
X140269150Y-82473225D01*
X140298740Y-82476000D01*
X140298744Y-82476000D01*
X140879260Y-82476000D01*
X140908849Y-82473225D01*
X141033475Y-82429616D01*
X141139711Y-82351211D01*
X141218116Y-82244975D01*
X141261725Y-82120349D01*
X141263882Y-82097345D01*
X141264500Y-82090760D01*
X141264500Y-81485239D01*
X141261725Y-81455650D01*
X141218115Y-81331023D01*
X141139711Y-81224789D01*
X141139710Y-81224788D01*
X141033476Y-81146384D01*
X140908848Y-81102774D01*
X140908849Y-81102774D01*
X140879260Y-81100000D01*
X140879256Y-81100000D01*
X140298744Y-81100000D01*
X140298740Y-81100000D01*
X140269150Y-81102774D01*
X140144523Y-81146384D01*
X140038289Y-81224788D01*
X140038288Y-81224789D01*
X139959884Y-81331023D01*
X139944041Y-81376301D01*
X139903319Y-81433076D01*
X139838366Y-81458823D01*
X139769805Y-81445366D01*
X139719402Y-81396979D01*
X139709959Y-81376301D01*
X139694115Y-81331023D01*
X139615711Y-81224789D01*
X139615710Y-81224788D01*
X139509476Y-81146384D01*
X139384848Y-81102774D01*
X139384849Y-81102774D01*
X139355260Y-81100000D01*
X139355256Y-81100000D01*
X138774744Y-81100000D01*
X138774740Y-81100000D01*
X138745150Y-81102774D01*
X138620523Y-81146384D01*
X138514289Y-81224788D01*
X138514288Y-81224789D01*
X138435884Y-81331023D01*
X138420041Y-81376301D01*
X138379319Y-81433076D01*
X138314366Y-81458823D01*
X138245805Y-81445366D01*
X138195402Y-81396979D01*
X138185959Y-81376301D01*
X138170115Y-81331023D01*
X138091711Y-81224789D01*
X138091710Y-81224788D01*
X137985476Y-81146384D01*
X137860848Y-81102774D01*
X137860849Y-81102774D01*
X137831260Y-81100000D01*
X137831256Y-81100000D01*
X137250744Y-81100000D01*
X137250740Y-81100000D01*
X137221150Y-81102774D01*
X137096523Y-81146384D01*
X136990289Y-81224788D01*
X136990288Y-81224789D01*
X136911884Y-81331023D01*
X136896041Y-81376301D01*
X136855319Y-81433076D01*
X136790366Y-81458823D01*
X136721805Y-81445366D01*
X136671402Y-81396979D01*
X136661959Y-81376301D01*
X136646115Y-81331023D01*
X136567711Y-81224789D01*
X136567710Y-81224788D01*
X136461476Y-81146384D01*
X136336848Y-81102774D01*
X136336849Y-81102774D01*
X136307260Y-81100000D01*
X136307256Y-81100000D01*
X135726744Y-81100000D01*
X135726740Y-81100000D01*
X135697150Y-81102774D01*
X135572523Y-81146384D01*
X135466291Y-81224786D01*
X135460380Y-81230698D01*
X135399055Y-81264180D01*
X135329364Y-81259193D01*
X135285021Y-81230694D01*
X135166819Y-81112492D01*
X135133334Y-81051169D01*
X135130500Y-81024811D01*
X135130500Y-80414226D01*
X135150185Y-80347187D01*
X135202989Y-80301432D01*
X135272147Y-80291488D01*
X135335703Y-80320513D01*
X135371541Y-80373271D01*
X135387883Y-80419975D01*
X135387884Y-80419976D01*
X135466288Y-80526210D01*
X135466289Y-80526211D01*
X135572523Y-80604615D01*
X135572524Y-80604615D01*
X135572525Y-80604616D01*
X135697151Y-80648225D01*
X135697150Y-80648225D01*
X135726740Y-80651000D01*
X135726744Y-80651000D01*
X136307260Y-80651000D01*
X136336849Y-80648225D01*
X136461475Y-80604616D01*
X136567711Y-80526211D01*
X136646116Y-80419975D01*
X136661959Y-80374699D01*
X136702681Y-80317924D01*
X136767634Y-80292177D01*
X136836195Y-80305634D01*
X136886598Y-80354021D01*
X136896041Y-80374699D01*
X136911884Y-80419976D01*
X136990288Y-80526210D01*
X136990289Y-80526211D01*
X137096523Y-80604615D01*
X137096524Y-80604615D01*
X137096525Y-80604616D01*
X137221151Y-80648225D01*
X137221150Y-80648225D01*
X137250740Y-80651000D01*
X137250744Y-80651000D01*
X137831260Y-80651000D01*
X137860849Y-80648225D01*
X137985475Y-80604616D01*
X138091711Y-80526211D01*
X138170116Y-80419975D01*
X138185959Y-80374699D01*
X138226681Y-80317924D01*
X138291634Y-80292177D01*
X138360195Y-80305634D01*
X138410598Y-80354021D01*
X138420041Y-80374699D01*
X138435884Y-80419976D01*
X138514288Y-80526210D01*
X138514289Y-80526211D01*
X138620523Y-80604615D01*
X138620524Y-80604615D01*
X138620525Y-80604616D01*
X138745151Y-80648225D01*
X138745150Y-80648225D01*
X138774740Y-80651000D01*
X138774744Y-80651000D01*
X139355260Y-80651000D01*
X139384849Y-80648225D01*
X139509475Y-80604616D01*
X139615711Y-80526211D01*
X139694116Y-80419975D01*
X139709959Y-80374699D01*
X139750681Y-80317924D01*
X139815634Y-80292177D01*
X139884195Y-80305634D01*
X139934598Y-80354021D01*
X139944041Y-80374699D01*
X139959884Y-80419976D01*
X140038288Y-80526210D01*
X140038289Y-80526211D01*
X140144523Y-80604615D01*
X140144524Y-80604615D01*
X140144525Y-80604616D01*
X140269151Y-80648225D01*
X140269150Y-80648225D01*
X140298740Y-80651000D01*
X140298744Y-80651000D01*
X140879260Y-80651000D01*
X140908849Y-80648225D01*
X141033475Y-80604616D01*
X141139711Y-80526211D01*
X141218116Y-80419975D01*
X141261725Y-80295349D01*
X141264500Y-80265756D01*
X141264500Y-79660244D01*
X141261725Y-79630651D01*
X141218116Y-79506025D01*
X141139711Y-79399789D01*
X141139710Y-79399788D01*
X141033476Y-79321384D01*
X140908848Y-79277774D01*
X140908849Y-79277774D01*
X140879260Y-79275000D01*
X140879256Y-79275000D01*
X140412689Y-79275000D01*
X140345650Y-79255315D01*
X140325008Y-79238681D01*
X138300508Y-77214181D01*
X138267023Y-77152858D01*
X138272007Y-77083166D01*
X138313879Y-77027233D01*
X138379343Y-77002816D01*
X138388189Y-77002500D01*
X139063260Y-77002500D01*
X139092849Y-76999725D01*
X139145698Y-76981232D01*
X139217475Y-76956116D01*
X139323711Y-76877711D01*
X139402116Y-76771475D01*
X139445725Y-76646849D01*
X139448500Y-76617256D01*
X139448500Y-76036744D01*
X139448116Y-76032650D01*
X139445725Y-76007150D01*
X139417442Y-75926323D01*
X139402116Y-75882525D01*
X139386172Y-75860922D01*
X139323712Y-75776291D01*
X139323713Y-75776291D01*
X139323711Y-75776289D01*
X139259023Y-75728547D01*
X139216774Y-75672902D01*
X139211315Y-75603246D01*
X139244382Y-75541697D01*
X139244806Y-75541269D01*
X139916213Y-74869863D01*
X139977534Y-74836380D01*
X140047226Y-74841364D01*
X140103159Y-74883236D01*
X140127576Y-74948700D01*
X140123667Y-74989638D01*
X140110000Y-75040645D01*
X140110000Y-75546399D01*
X140090315Y-75613438D01*
X140037511Y-75659193D01*
X140026956Y-75663440D01*
X139928523Y-75697884D01*
X139822289Y-75776288D01*
X139822288Y-75776289D01*
X139743884Y-75882523D01*
X139700274Y-76007150D01*
X139697500Y-76036739D01*
X139697500Y-76617260D01*
X139700274Y-76646849D01*
X139743884Y-76771476D01*
X139822288Y-76877710D01*
X139822289Y-76877711D01*
X139928523Y-76956115D01*
X139928524Y-76956115D01*
X139928525Y-76956116D01*
X140053151Y-76999725D01*
X140053150Y-76999725D01*
X140082740Y-77002500D01*
X140082744Y-77002500D01*
X140788260Y-77002500D01*
X140817849Y-76999725D01*
X140870698Y-76981232D01*
X140942475Y-76956116D01*
X141048711Y-76877711D01*
X141124230Y-76775386D01*
X141179877Y-76733135D01*
X141249533Y-76727676D01*
X141311083Y-76760743D01*
X141323770Y-76775386D01*
X141399288Y-76877710D01*
X141399289Y-76877711D01*
X141505523Y-76956115D01*
X141505524Y-76956115D01*
X141505525Y-76956116D01*
X141630151Y-76999725D01*
X141630150Y-76999725D01*
X141659740Y-77002500D01*
X141659744Y-77002500D01*
X142365260Y-77002500D01*
X142394849Y-76999725D01*
X142447698Y-76981232D01*
X142519475Y-76956116D01*
X142625711Y-76877711D01*
X142704116Y-76771475D01*
X142747725Y-76646849D01*
X142750500Y-76617256D01*
X142750500Y-76036744D01*
X142750116Y-76032650D01*
X142747725Y-76007150D01*
X142719442Y-75926323D01*
X142704116Y-75882525D01*
X142688172Y-75860922D01*
X142625711Y-75776289D01*
X142625710Y-75776288D01*
X142519476Y-75697884D01*
X142519477Y-75697884D01*
X142421044Y-75663440D01*
X142364268Y-75622717D01*
X142338522Y-75557764D01*
X142338000Y-75546399D01*
X142338000Y-75470688D01*
X142357685Y-75403649D01*
X142374318Y-75383008D01*
X142403474Y-75353852D01*
X142439860Y-75317466D01*
X142439862Y-75317465D01*
X142500465Y-75256862D01*
X142543318Y-75182638D01*
X142555376Y-75137638D01*
X142565501Y-75099852D01*
X142565501Y-75014147D01*
X142565501Y-75009983D01*
X142565500Y-75009965D01*
X142565500Y-74410364D01*
X142585185Y-74343325D01*
X142623526Y-74305371D01*
X142710890Y-74250477D01*
X142787319Y-74174048D01*
X142848642Y-74140563D01*
X142918334Y-74145547D01*
X142962681Y-74174048D01*
X143039110Y-74250477D01*
X143126472Y-74305371D01*
X143172763Y-74357705D01*
X143184500Y-74410364D01*
X143184500Y-75669252D01*
X143164815Y-75736291D01*
X143134137Y-75769020D01*
X143124292Y-75776286D01*
X143124286Y-75776291D01*
X143045884Y-75882523D01*
X143002274Y-76007150D01*
X142999500Y-76036739D01*
X142999500Y-76617260D01*
X143002274Y-76646849D01*
X143045884Y-76771476D01*
X143124288Y-76877710D01*
X143124289Y-76877711D01*
X143230523Y-76956115D01*
X143230524Y-76956115D01*
X143230525Y-76956116D01*
X143249301Y-76962686D01*
X143302301Y-76981232D01*
X143359076Y-77021954D01*
X143384823Y-77086907D01*
X143371366Y-77155468D01*
X143322979Y-77205871D01*
X143302301Y-77215314D01*
X143283523Y-77221884D01*
X143177289Y-77300288D01*
X143177288Y-77300289D01*
X143098884Y-77406523D01*
X143055274Y-77531150D01*
X143052500Y-77560739D01*
X143052500Y-78141260D01*
X143055274Y-78170849D01*
X143098884Y-78295476D01*
X143177288Y-78401710D01*
X143177289Y-78401711D01*
X143283523Y-78480115D01*
X143283524Y-78480115D01*
X143283525Y-78480116D01*
X143408151Y-78523725D01*
X143408150Y-78523725D01*
X143437740Y-78526500D01*
X143437744Y-78526500D01*
X144143260Y-78526500D01*
X144172849Y-78523725D01*
X144206751Y-78511862D01*
X144297475Y-78480116D01*
X144403711Y-78401711D01*
X144482116Y-78295475D01*
X144525725Y-78170849D01*
X144528500Y-78141256D01*
X144528500Y-77560744D01*
X144525758Y-77531508D01*
X144525725Y-77531150D01*
X144502251Y-77464067D01*
X144482116Y-77406525D01*
X144403711Y-77300289D01*
X144403710Y-77300288D01*
X144297476Y-77221884D01*
X144225699Y-77196768D01*
X144168924Y-77156046D01*
X144143177Y-77091093D01*
X144156634Y-77022532D01*
X144205021Y-76972129D01*
X144225699Y-76962686D01*
X144244475Y-76956116D01*
X144350711Y-76877711D01*
X144429116Y-76771475D01*
X144472725Y-76646849D01*
X144475500Y-76617256D01*
X144475500Y-76036744D01*
X144475116Y-76032650D01*
X144472725Y-76007150D01*
X144444442Y-75926323D01*
X144429116Y-75882525D01*
X144413172Y-75860922D01*
X144350711Y-75776289D01*
X144350710Y-75776288D01*
X144244476Y-75697884D01*
X144119848Y-75654274D01*
X144119849Y-75654274D01*
X144090260Y-75651500D01*
X144090256Y-75651500D01*
X143959500Y-75651500D01*
X143892461Y-75631815D01*
X143846706Y-75579011D01*
X143835500Y-75527500D01*
X143835500Y-74410364D01*
X143855185Y-74343325D01*
X143893526Y-74305371D01*
X143980890Y-74250477D01*
X144057319Y-74174048D01*
X144118642Y-74140563D01*
X144188334Y-74145547D01*
X144232681Y-74174048D01*
X144309110Y-74250477D01*
X144396472Y-74305371D01*
X144442763Y-74357705D01*
X144454500Y-74410364D01*
X144454500Y-75353852D01*
X144476682Y-75436640D01*
X144491982Y-75463139D01*
X144519535Y-75510862D01*
X144519537Y-75510864D01*
X145153681Y-76145008D01*
X145187166Y-76206331D01*
X145190000Y-76232689D01*
X145190000Y-77070399D01*
X145170315Y-77137438D01*
X145117511Y-77183193D01*
X145106956Y-77187440D01*
X145008523Y-77221884D01*
X144902289Y-77300288D01*
X144902288Y-77300289D01*
X144823884Y-77406523D01*
X144780274Y-77531150D01*
X144777500Y-77560739D01*
X144777500Y-78141260D01*
X144780274Y-78170849D01*
X144823884Y-78295476D01*
X144902288Y-78401710D01*
X144902289Y-78401711D01*
X145008523Y-78480115D01*
X145008524Y-78480115D01*
X145008525Y-78480116D01*
X145133151Y-78523725D01*
X145133150Y-78523725D01*
X145162740Y-78526500D01*
X145162744Y-78526500D01*
X145868260Y-78526500D01*
X145897849Y-78523725D01*
X145931751Y-78511862D01*
X146022475Y-78480116D01*
X146128711Y-78401711D01*
X146207116Y-78295475D01*
X146250725Y-78170849D01*
X146253500Y-78141256D01*
X146253500Y-77560744D01*
X146250758Y-77531508D01*
X146250725Y-77531150D01*
X146227251Y-77464067D01*
X146207116Y-77406525D01*
X146128711Y-77300289D01*
X146128710Y-77300288D01*
X146022476Y-77221884D01*
X146022477Y-77221884D01*
X145924044Y-77187440D01*
X145867268Y-77146717D01*
X145841522Y-77081764D01*
X145841000Y-77070399D01*
X145841000Y-77027183D01*
X145860685Y-76960144D01*
X145913489Y-76914389D01*
X145982647Y-76904445D01*
X146038632Y-76927412D01*
X146077525Y-76956116D01*
X146202151Y-76999725D01*
X146202150Y-76999725D01*
X146231740Y-77002500D01*
X146231744Y-77002500D01*
X146937260Y-77002500D01*
X146966849Y-76999725D01*
X147019698Y-76981232D01*
X147091475Y-76956116D01*
X147197711Y-76877711D01*
X147276116Y-76771475D01*
X147319725Y-76646849D01*
X147322500Y-76617256D01*
X147322500Y-76099689D01*
X147342185Y-76032650D01*
X147394989Y-75986895D01*
X147464147Y-75976951D01*
X147527703Y-76005976D01*
X147534181Y-76012008D01*
X147535181Y-76013008D01*
X147568666Y-76074331D01*
X147571500Y-76100689D01*
X147571500Y-76617260D01*
X147574274Y-76646849D01*
X147617884Y-76771476D01*
X147696288Y-76877710D01*
X147696289Y-76877711D01*
X147802523Y-76956115D01*
X147802524Y-76956115D01*
X147802525Y-76956116D01*
X147927151Y-76999725D01*
X147927150Y-76999725D01*
X147956740Y-77002500D01*
X147956744Y-77002500D01*
X148662260Y-77002500D01*
X148691849Y-76999725D01*
X148744698Y-76981232D01*
X148816475Y-76956116D01*
X148922711Y-76877711D01*
X148951656Y-76838490D01*
X149007302Y-76796240D01*
X149076958Y-76790781D01*
X149126912Y-76813748D01*
X149176157Y-76851535D01*
X149176158Y-76851535D01*
X149176159Y-76851536D01*
X149322238Y-76912044D01*
X149400619Y-76922363D01*
X149478999Y-76932682D01*
X149479000Y-76932682D01*
X149479001Y-76932682D01*
X149531254Y-76925802D01*
X149635762Y-76912044D01*
X149781841Y-76851536D01*
X149907282Y-76755282D01*
X150003536Y-76629841D01*
X150064044Y-76483762D01*
X150084682Y-76327000D01*
X150064044Y-76170238D01*
X150003536Y-76024159D01*
X149907282Y-75898718D01*
X149781841Y-75802464D01*
X149635762Y-75741956D01*
X149635760Y-75741955D01*
X149479001Y-75721318D01*
X149478999Y-75721318D01*
X149322239Y-75741955D01*
X149322237Y-75741956D01*
X149176158Y-75802464D01*
X149126911Y-75840252D01*
X149061741Y-75865445D01*
X148993297Y-75851406D01*
X148951656Y-75815508D01*
X148922711Y-75776289D01*
X148922710Y-75776288D01*
X148816476Y-75697884D01*
X148691848Y-75654274D01*
X148691849Y-75654274D01*
X148662260Y-75651500D01*
X148662256Y-75651500D01*
X148145689Y-75651500D01*
X148078650Y-75631815D01*
X148058008Y-75615181D01*
X147681819Y-75238992D01*
X147648334Y-75177669D01*
X147645500Y-75151311D01*
X147645500Y-74410364D01*
X147665185Y-74343325D01*
X147703526Y-74305371D01*
X147790890Y-74250477D01*
X147910477Y-74130890D01*
X147910480Y-74130884D01*
X147914817Y-74125447D01*
X147915067Y-74125646D01*
X147926274Y-74111591D01*
X148317391Y-73720474D01*
X148356866Y-73815775D01*
X148434225Y-73893134D01*
X148529523Y-73932607D01*
X148104331Y-74357798D01*
X148104332Y-74357799D01*
X148162654Y-74400173D01*
X148162659Y-74400176D01*
X148325884Y-74472849D01*
X148325889Y-74472851D01*
X148500661Y-74510000D01*
X148679339Y-74510000D01*
X148854110Y-74472851D01*
X148854115Y-74472849D01*
X149017339Y-74400176D01*
X149075666Y-74357798D01*
X149075667Y-74357798D01*
X148650476Y-73932607D01*
X148745775Y-73893134D01*
X148823134Y-73815775D01*
X148862607Y-73720475D01*
X149253728Y-74111596D01*
X149264932Y-74125645D01*
X149265182Y-74125446D01*
X149269525Y-74130892D01*
X149389109Y-74250476D01*
X149389115Y-74250481D01*
X149532302Y-74340452D01*
X149532305Y-74340454D01*
X149532309Y-74340455D01*
X149532310Y-74340456D01*
X149581605Y-74357705D01*
X149691943Y-74396314D01*
X149859997Y-74415249D01*
X149860000Y-74415249D01*
X149860003Y-74415249D01*
X150028056Y-74396314D01*
X150029205Y-74395912D01*
X150187690Y-74340456D01*
X150187692Y-74340454D01*
X150187694Y-74340454D01*
X150187697Y-74340452D01*
X150330884Y-74250481D01*
X150330885Y-74250480D01*
X150330890Y-74250477D01*
X150407319Y-74174048D01*
X150468642Y-74140563D01*
X150538334Y-74145547D01*
X150582681Y-74174048D01*
X150659109Y-74250476D01*
X150659115Y-74250481D01*
X150802302Y-74340452D01*
X150802305Y-74340454D01*
X150802309Y-74340455D01*
X150802310Y-74340456D01*
X150851605Y-74357705D01*
X150961943Y-74396314D01*
X151129997Y-74415249D01*
X151130000Y-74415249D01*
X151130003Y-74415249D01*
X151298056Y-74396314D01*
X151299205Y-74395912D01*
X151457690Y-74340456D01*
X151457692Y-74340454D01*
X151457694Y-74340454D01*
X151457697Y-74340452D01*
X151600884Y-74250481D01*
X151600884Y-74250480D01*
X151600890Y-74250477D01*
X151720477Y-74130890D01*
X151720480Y-74130884D01*
X151724817Y-74125447D01*
X151725067Y-74125646D01*
X151736274Y-74111591D01*
X152127391Y-73720474D01*
X152166866Y-73815775D01*
X152244225Y-73893134D01*
X152339523Y-73932607D01*
X151914331Y-74357798D01*
X151914332Y-74357799D01*
X151972654Y-74400173D01*
X151972659Y-74400176D01*
X152135884Y-74472849D01*
X152135889Y-74472851D01*
X152310661Y-74510000D01*
X152489339Y-74510000D01*
X152664110Y-74472851D01*
X152664115Y-74472849D01*
X152827339Y-74400176D01*
X152885666Y-74357798D01*
X152885667Y-74357798D01*
X152460476Y-73932607D01*
X152555775Y-73893134D01*
X152633134Y-73815775D01*
X152672607Y-73720475D01*
X153035000Y-74082868D01*
X153397392Y-73720475D01*
X153436866Y-73815775D01*
X153514225Y-73893134D01*
X153609523Y-73932607D01*
X153184331Y-74357798D01*
X153184332Y-74357799D01*
X153242654Y-74400173D01*
X153242659Y-74400176D01*
X153405884Y-74472849D01*
X153405889Y-74472851D01*
X153580661Y-74510000D01*
X153759339Y-74510000D01*
X153934110Y-74472851D01*
X153934115Y-74472849D01*
X154097339Y-74400176D01*
X154155666Y-74357798D01*
X154155667Y-74357798D01*
X153730476Y-73932607D01*
X153825775Y-73893134D01*
X153903134Y-73815775D01*
X153942607Y-73720475D01*
X154305000Y-74082868D01*
X154667392Y-73720475D01*
X154706866Y-73815775D01*
X154784225Y-73893134D01*
X154879523Y-73932607D01*
X154454331Y-74357798D01*
X154454332Y-74357799D01*
X154512654Y-74400173D01*
X154512659Y-74400176D01*
X154675884Y-74472849D01*
X154675889Y-74472851D01*
X154850661Y-74510000D01*
X155029339Y-74510000D01*
X155204110Y-74472851D01*
X155204115Y-74472849D01*
X155367339Y-74400176D01*
X155425666Y-74357798D01*
X155425667Y-74357798D01*
X155000476Y-73932607D01*
X155095775Y-73893134D01*
X155173134Y-73815775D01*
X155212607Y-73720475D01*
X155575000Y-74082868D01*
X155937392Y-73720475D01*
X155976866Y-73815775D01*
X156054225Y-73893134D01*
X156149523Y-73932607D01*
X155724331Y-74357798D01*
X155724332Y-74357799D01*
X155782654Y-74400173D01*
X155782659Y-74400176D01*
X155945884Y-74472849D01*
X155945889Y-74472851D01*
X156120661Y-74510000D01*
X156299339Y-74510000D01*
X156474110Y-74472851D01*
X156474115Y-74472849D01*
X156637339Y-74400176D01*
X156695666Y-74357798D01*
X156695667Y-74357798D01*
X156270476Y-73932607D01*
X156365775Y-73893134D01*
X156443134Y-73815775D01*
X156482607Y-73720475D01*
X156845000Y-74082868D01*
X157207392Y-73720475D01*
X157246866Y-73815775D01*
X157324225Y-73893134D01*
X157419523Y-73932607D01*
X156994331Y-74357798D01*
X156994332Y-74357799D01*
X157052654Y-74400173D01*
X157052659Y-74400176D01*
X157215884Y-74472849D01*
X157215889Y-74472851D01*
X157390661Y-74510000D01*
X157569339Y-74510000D01*
X157744110Y-74472851D01*
X157744115Y-74472849D01*
X157907339Y-74400176D01*
X157965666Y-74357798D01*
X157965667Y-74357798D01*
X157540476Y-73932607D01*
X157635775Y-73893134D01*
X157713134Y-73815775D01*
X157752607Y-73720475D01*
X158115000Y-74082868D01*
X158477392Y-73720475D01*
X158516866Y-73815775D01*
X158594225Y-73893134D01*
X158689523Y-73932607D01*
X158264331Y-74357798D01*
X158264332Y-74357799D01*
X158322654Y-74400173D01*
X158322659Y-74400176D01*
X158485884Y-74472849D01*
X158485889Y-74472851D01*
X158660661Y-74510000D01*
X158839339Y-74510000D01*
X159014110Y-74472851D01*
X159014115Y-74472849D01*
X159177339Y-74400176D01*
X159235666Y-74357798D01*
X159235667Y-74357798D01*
X158810476Y-73932607D01*
X158905775Y-73893134D01*
X158983134Y-73815775D01*
X159022607Y-73720475D01*
X159413728Y-74111596D01*
X159424932Y-74125645D01*
X159425182Y-74125446D01*
X159429519Y-74130884D01*
X159429523Y-74130890D01*
X159549110Y-74250477D01*
X159636472Y-74305371D01*
X159682763Y-74357705D01*
X159694500Y-74410364D01*
X159694500Y-94046699D01*
X159674815Y-94113738D01*
X159645988Y-94145074D01*
X159591720Y-94186715D01*
X159495463Y-94312160D01*
X159434956Y-94458237D01*
X159434955Y-94458239D01*
X159414318Y-94614998D01*
X159414318Y-94615001D01*
X159434955Y-94771760D01*
X159434956Y-94771762D01*
X159495464Y-94917841D01*
X159591718Y-95043282D01*
X159635824Y-95077125D01*
X159677025Y-95133552D01*
X159681180Y-95203298D01*
X159646968Y-95264219D01*
X159585250Y-95296971D01*
X159560336Y-95299500D01*
X156669664Y-95299500D01*
X156602625Y-95279815D01*
X156556870Y-95227011D01*
X156546926Y-95157853D01*
X156575951Y-95094297D01*
X156594172Y-95077128D01*
X156638282Y-95043282D01*
X156734536Y-94917841D01*
X156795044Y-94771762D01*
X156815682Y-94615000D01*
X156795044Y-94458238D01*
X156734536Y-94312159D01*
X156638282Y-94186718D01*
X156512841Y-94090464D01*
X156471862Y-94073490D01*
X156366762Y-94029956D01*
X156366760Y-94029955D01*
X156210001Y-94009318D01*
X156209999Y-94009318D01*
X156053239Y-94029955D01*
X156053237Y-94029956D01*
X155907157Y-94090464D01*
X155829091Y-94150367D01*
X155763922Y-94175561D01*
X155695477Y-94161522D01*
X155653835Y-94125625D01*
X155615358Y-94073490D01*
X155599711Y-94052289D01*
X155599709Y-94052288D01*
X155599709Y-94052287D01*
X155493477Y-93973885D01*
X155493475Y-93973884D01*
X155489391Y-93972455D01*
X155485527Y-93969683D01*
X155485260Y-93969542D01*
X155485279Y-93969505D01*
X155432618Y-93931733D01*
X155406872Y-93866780D01*
X155420329Y-93798219D01*
X155468717Y-93747817D01*
X155484860Y-93740060D01*
X155552413Y-93713420D01*
X155670143Y-93624143D01*
X155759420Y-93506413D01*
X155759423Y-93506407D01*
X155813626Y-93368958D01*
X155824000Y-93282571D01*
X155824000Y-93090500D01*
X154274000Y-93090500D01*
X154274000Y-93282571D01*
X154284373Y-93368958D01*
X154338576Y-93506407D01*
X154338579Y-93506413D01*
X154427856Y-93624143D01*
X154545586Y-93713420D01*
X154545592Y-93713423D01*
X154613139Y-93740061D01*
X154668283Y-93782967D01*
X154691476Y-93848875D01*
X154675355Y-93916859D01*
X154625038Y-93965335D01*
X154608608Y-93972455D01*
X154604524Y-93973884D01*
X154604523Y-93973884D01*
X154498289Y-94052288D01*
X154498288Y-94052289D01*
X154419884Y-94158523D01*
X154376274Y-94283150D01*
X154373500Y-94312739D01*
X154373500Y-94675500D01*
X154353815Y-94742539D01*
X154301011Y-94788294D01*
X154249500Y-94799500D01*
X153870147Y-94799500D01*
X153803108Y-94779815D01*
X153797556Y-94775000D01*
X153458257Y-94775000D01*
X153452177Y-94774701D01*
X153450135Y-94774500D01*
X151995868Y-94774500D01*
X151993837Y-94774701D01*
X151987755Y-94775000D01*
X151653742Y-94775000D01*
X151658619Y-94808479D01*
X151713587Y-94920919D01*
X151719556Y-94929278D01*
X151718069Y-94930339D01*
X151745614Y-94980783D01*
X151747852Y-95019283D01*
X151747500Y-95022860D01*
X151747500Y-95227129D01*
X151763486Y-95307498D01*
X151768159Y-95318780D01*
X151766714Y-95319378D01*
X151783436Y-95372788D01*
X151767482Y-95430938D01*
X151768159Y-95431219D01*
X151765926Y-95436609D01*
X151764950Y-95440168D01*
X151763550Y-95442345D01*
X151763484Y-95442505D01*
X151747500Y-95522863D01*
X151747500Y-95727129D01*
X151763486Y-95807498D01*
X151768159Y-95818780D01*
X151766714Y-95819378D01*
X151783436Y-95872788D01*
X151767482Y-95930938D01*
X151768159Y-95931219D01*
X151765926Y-95936609D01*
X151764950Y-95940168D01*
X151763550Y-95942345D01*
X151763484Y-95942505D01*
X151747500Y-96022863D01*
X151747500Y-96227129D01*
X151750565Y-96242539D01*
X151760701Y-96293500D01*
X151763486Y-96307498D01*
X151768159Y-96318780D01*
X151766714Y-96319378D01*
X151783436Y-96372788D01*
X151767482Y-96430938D01*
X151768159Y-96431219D01*
X151765926Y-96436609D01*
X151764950Y-96440168D01*
X151763550Y-96442345D01*
X151763484Y-96442505D01*
X151747500Y-96522863D01*
X151747500Y-96727129D01*
X151753534Y-96757463D01*
X151760005Y-96790000D01*
X151763486Y-96807498D01*
X151768159Y-96818780D01*
X151766714Y-96819378D01*
X151783436Y-96872788D01*
X151767482Y-96930938D01*
X151768159Y-96931219D01*
X151765926Y-96936609D01*
X151764950Y-96940168D01*
X151763550Y-96942345D01*
X151763484Y-96942505D01*
X151747500Y-97022863D01*
X151747500Y-97227129D01*
X151763486Y-97307498D01*
X151768159Y-97318780D01*
X151766714Y-97319378D01*
X151783436Y-97372788D01*
X151767482Y-97430938D01*
X151768159Y-97431219D01*
X151765926Y-97436609D01*
X151764950Y-97440168D01*
X151763550Y-97442345D01*
X151763484Y-97442505D01*
X151747500Y-97522863D01*
X151747500Y-97727129D01*
X151750069Y-97740043D01*
X151763294Y-97806536D01*
X151763486Y-97807498D01*
X151768159Y-97818780D01*
X151766714Y-97819378D01*
X151783436Y-97872788D01*
X151767482Y-97930938D01*
X151768159Y-97931219D01*
X151765926Y-97936609D01*
X151764950Y-97940168D01*
X151763550Y-97942345D01*
X151763484Y-97942505D01*
X151747500Y-98022863D01*
X151747500Y-98227129D01*
X151763486Y-98307498D01*
X151768159Y-98318780D01*
X151766714Y-98319378D01*
X151783436Y-98372788D01*
X151767482Y-98430938D01*
X151768159Y-98431219D01*
X151765926Y-98436609D01*
X151764950Y-98440168D01*
X151763550Y-98442345D01*
X151763484Y-98442505D01*
X151747500Y-98522863D01*
X151747500Y-98727129D01*
X151763486Y-98807498D01*
X151768159Y-98818780D01*
X151766714Y-98819378D01*
X151783436Y-98872788D01*
X151767482Y-98930938D01*
X151768159Y-98931219D01*
X151765926Y-98936609D01*
X151764950Y-98940168D01*
X151763550Y-98942345D01*
X151763484Y-98942505D01*
X151747500Y-99022863D01*
X151747500Y-99227129D01*
X151763486Y-99307498D01*
X151768159Y-99318780D01*
X151766714Y-99319378D01*
X151783436Y-99372788D01*
X151767482Y-99430938D01*
X151768159Y-99431219D01*
X151765926Y-99436609D01*
X151764950Y-99440168D01*
X151763550Y-99442345D01*
X151763484Y-99442505D01*
X151747500Y-99522863D01*
X151747500Y-99727129D01*
X151763486Y-99807498D01*
X151768159Y-99818780D01*
X151766714Y-99819378D01*
X151783436Y-99872788D01*
X151767482Y-99930938D01*
X151768159Y-99931219D01*
X151765926Y-99936609D01*
X151764950Y-99940168D01*
X151763550Y-99942345D01*
X151763484Y-99942505D01*
X151747500Y-100022863D01*
X151747500Y-100227129D01*
X151763486Y-100307498D01*
X151768159Y-100318780D01*
X151766714Y-100319378D01*
X151783436Y-100372788D01*
X151767482Y-100430938D01*
X151768159Y-100431219D01*
X151765926Y-100436609D01*
X151764950Y-100440168D01*
X151763550Y-100442345D01*
X151763484Y-100442505D01*
X151747500Y-100522863D01*
X151747500Y-100727129D01*
X151763486Y-100807498D01*
X151768159Y-100818780D01*
X151766714Y-100819378D01*
X151783436Y-100872788D01*
X151767482Y-100930938D01*
X151768159Y-100931219D01*
X151765926Y-100936609D01*
X151764950Y-100940168D01*
X151763550Y-100942345D01*
X151763484Y-100942505D01*
X151747500Y-101022863D01*
X151747500Y-101227129D01*
X151763486Y-101307498D01*
X151768159Y-101318780D01*
X151766714Y-101319378D01*
X151783436Y-101372788D01*
X151767482Y-101430938D01*
X151768159Y-101431219D01*
X151765926Y-101436609D01*
X151764950Y-101440168D01*
X151763550Y-101442345D01*
X151763484Y-101442505D01*
X151747500Y-101522863D01*
X151747500Y-101727129D01*
X151763486Y-101807498D01*
X151768159Y-101818780D01*
X151766714Y-101819378D01*
X151783436Y-101872788D01*
X151767482Y-101930938D01*
X151768159Y-101931219D01*
X151765926Y-101936609D01*
X151764950Y-101940168D01*
X151763550Y-101942345D01*
X151763484Y-101942505D01*
X151747500Y-102022863D01*
X151747500Y-102227129D01*
X151763485Y-102307495D01*
X151824375Y-102398624D01*
X151857741Y-102420918D01*
X151915505Y-102459515D01*
X151915508Y-102459515D01*
X151915509Y-102459516D01*
X151955686Y-102467507D01*
X151995867Y-102475500D01*
X153450132Y-102475499D01*
X153530495Y-102459515D01*
X153530496Y-102459514D01*
X153542473Y-102457132D01*
X153542515Y-102457344D01*
X153576924Y-102450500D01*
X154008811Y-102450500D01*
X154075850Y-102470185D01*
X154096492Y-102486819D01*
X154324181Y-102714508D01*
X154357666Y-102775831D01*
X154360500Y-102802189D01*
X154360500Y-104207810D01*
X154340815Y-104274849D01*
X154324181Y-104295491D01*
X152134681Y-106484991D01*
X152073358Y-106518476D01*
X152003666Y-106513492D01*
X151947733Y-106471620D01*
X151923316Y-106406156D01*
X151923062Y-106399062D01*
X151923000Y-106399000D01*
X151059500Y-106399000D01*
X150992461Y-106379315D01*
X150946706Y-106326511D01*
X150935500Y-106275000D01*
X150935500Y-105474000D01*
X151235500Y-105474000D01*
X151235500Y-106099000D01*
X151923000Y-106099000D01*
X151923000Y-105969428D01*
X151912626Y-105883041D01*
X151858423Y-105745592D01*
X151858420Y-105745586D01*
X151769143Y-105627856D01*
X151651413Y-105538579D01*
X151651407Y-105538576D01*
X151513958Y-105484373D01*
X151427572Y-105474000D01*
X151235500Y-105474000D01*
X150935500Y-105474000D01*
X150747500Y-105474000D01*
X150680461Y-105454315D01*
X150634706Y-105401511D01*
X150623500Y-105350000D01*
X150623500Y-105197144D01*
X150643185Y-105130105D01*
X150648000Y-105124553D01*
X150648000Y-104785254D01*
X150648299Y-104779171D01*
X150648497Y-104777143D01*
X150648500Y-104777133D01*
X150648500Y-104200000D01*
X150948000Y-104200000D01*
X150948000Y-105119257D01*
X150981477Y-105114380D01*
X150981479Y-105114379D01*
X151093918Y-105059412D01*
X151182412Y-104970918D01*
X151237379Y-104858482D01*
X151248000Y-104785582D01*
X151248000Y-104200000D01*
X150948000Y-104200000D01*
X150648500Y-104200000D01*
X150648499Y-103322868D01*
X150648499Y-103322865D01*
X150648299Y-103320834D01*
X150648000Y-103314754D01*
X150648000Y-102980742D01*
X150647999Y-102980741D01*
X150948000Y-102980741D01*
X150948000Y-103900000D01*
X151248000Y-103900000D01*
X151248000Y-103314417D01*
X151237379Y-103241517D01*
X151182412Y-103129081D01*
X151093918Y-103040587D01*
X150981479Y-102985619D01*
X150948000Y-102980741D01*
X150647999Y-102980741D01*
X150614519Y-102985619D01*
X150502084Y-103040586D01*
X150493723Y-103046556D01*
X150492662Y-103045071D01*
X150442207Y-103072616D01*
X150403717Y-103074852D01*
X150400139Y-103074500D01*
X150195870Y-103074500D01*
X150135867Y-103086434D01*
X150115505Y-103090485D01*
X150115504Y-103090485D01*
X150115501Y-103090486D01*
X150104220Y-103095159D01*
X150103621Y-103093714D01*
X150050204Y-103110436D01*
X149992061Y-103094481D01*
X149991781Y-103095159D01*
X149986383Y-103092923D01*
X149982825Y-103091947D01*
X149980648Y-103090547D01*
X149980494Y-103090484D01*
X149900135Y-103074500D01*
X149695870Y-103074500D01*
X149635867Y-103086434D01*
X149615505Y-103090485D01*
X149615504Y-103090485D01*
X149615501Y-103090486D01*
X149604220Y-103095159D01*
X149603621Y-103093714D01*
X149550204Y-103110436D01*
X149492061Y-103094481D01*
X149491781Y-103095159D01*
X149486383Y-103092923D01*
X149482825Y-103091947D01*
X149480648Y-103090547D01*
X149480494Y-103090484D01*
X149400135Y-103074500D01*
X149195870Y-103074500D01*
X149135867Y-103086434D01*
X149115505Y-103090485D01*
X149115504Y-103090485D01*
X149115501Y-103090486D01*
X149104220Y-103095159D01*
X149103621Y-103093714D01*
X149050204Y-103110436D01*
X148992061Y-103094481D01*
X148991781Y-103095159D01*
X148986383Y-103092923D01*
X148982825Y-103091947D01*
X148980648Y-103090547D01*
X148980494Y-103090484D01*
X148900135Y-103074500D01*
X148695870Y-103074500D01*
X148635867Y-103086434D01*
X148615505Y-103090485D01*
X148615504Y-103090485D01*
X148615501Y-103090486D01*
X148604220Y-103095159D01*
X148603621Y-103093714D01*
X148550204Y-103110436D01*
X148492061Y-103094481D01*
X148491781Y-103095159D01*
X148486383Y-103092923D01*
X148482825Y-103091947D01*
X148480648Y-103090547D01*
X148480494Y-103090484D01*
X148400135Y-103074500D01*
X148195870Y-103074500D01*
X148135867Y-103086434D01*
X148115505Y-103090485D01*
X148115504Y-103090485D01*
X148115501Y-103090486D01*
X148104220Y-103095159D01*
X148103621Y-103093714D01*
X148050204Y-103110436D01*
X147992061Y-103094481D01*
X147991781Y-103095159D01*
X147986383Y-103092923D01*
X147982825Y-103091947D01*
X147980648Y-103090547D01*
X147980494Y-103090484D01*
X147900135Y-103074500D01*
X147695870Y-103074500D01*
X147635867Y-103086434D01*
X147615505Y-103090485D01*
X147615504Y-103090485D01*
X147615501Y-103090486D01*
X147604220Y-103095159D01*
X147603621Y-103093714D01*
X147550204Y-103110436D01*
X147492061Y-103094481D01*
X147491781Y-103095159D01*
X147486383Y-103092923D01*
X147482825Y-103091947D01*
X147480648Y-103090547D01*
X147480494Y-103090484D01*
X147400135Y-103074500D01*
X147195870Y-103074500D01*
X147135867Y-103086434D01*
X147115505Y-103090485D01*
X147115504Y-103090485D01*
X147115501Y-103090486D01*
X147104220Y-103095159D01*
X147103621Y-103093714D01*
X147050204Y-103110436D01*
X146992061Y-103094481D01*
X146991781Y-103095159D01*
X146986383Y-103092923D01*
X146982825Y-103091947D01*
X146980648Y-103090547D01*
X146980494Y-103090484D01*
X146900135Y-103074500D01*
X146695870Y-103074500D01*
X146635867Y-103086434D01*
X146615505Y-103090485D01*
X146615504Y-103090485D01*
X146615501Y-103090486D01*
X146604220Y-103095159D01*
X146603621Y-103093714D01*
X146550204Y-103110436D01*
X146492061Y-103094481D01*
X146491781Y-103095159D01*
X146486383Y-103092923D01*
X146482825Y-103091947D01*
X146480648Y-103090547D01*
X146480494Y-103090484D01*
X146400135Y-103074500D01*
X146195870Y-103074500D01*
X146135867Y-103086434D01*
X146115505Y-103090485D01*
X146115504Y-103090485D01*
X146115501Y-103090486D01*
X146104220Y-103095159D01*
X146103621Y-103093714D01*
X146050204Y-103110436D01*
X145992061Y-103094481D01*
X145991781Y-103095159D01*
X145986383Y-103092923D01*
X145982825Y-103091947D01*
X145980648Y-103090547D01*
X145980494Y-103090484D01*
X145900135Y-103074500D01*
X145695870Y-103074500D01*
X145635867Y-103086434D01*
X145615505Y-103090485D01*
X145615504Y-103090485D01*
X145615501Y-103090486D01*
X145604220Y-103095159D01*
X145603621Y-103093714D01*
X145550204Y-103110436D01*
X145492061Y-103094481D01*
X145491781Y-103095159D01*
X145486383Y-103092923D01*
X145482825Y-103091947D01*
X145480648Y-103090547D01*
X145480494Y-103090484D01*
X145400135Y-103074500D01*
X145195870Y-103074500D01*
X145135867Y-103086434D01*
X145115505Y-103090485D01*
X145115504Y-103090485D01*
X145115501Y-103090486D01*
X145104220Y-103095159D01*
X145103621Y-103093714D01*
X145050204Y-103110436D01*
X144992061Y-103094481D01*
X144991781Y-103095159D01*
X144986383Y-103092923D01*
X144982825Y-103091947D01*
X144980648Y-103090547D01*
X144980494Y-103090484D01*
X144900135Y-103074500D01*
X144695870Y-103074500D01*
X144635867Y-103086434D01*
X144615505Y-103090485D01*
X144615504Y-103090485D01*
X144615501Y-103090486D01*
X144604220Y-103095159D01*
X144603621Y-103093714D01*
X144550204Y-103110436D01*
X144492061Y-103094481D01*
X144491781Y-103095159D01*
X144486383Y-103092923D01*
X144482825Y-103091947D01*
X144480648Y-103090547D01*
X144480494Y-103090484D01*
X144400135Y-103074500D01*
X144195870Y-103074500D01*
X144135867Y-103086434D01*
X144115505Y-103090485D01*
X144115504Y-103090485D01*
X144115501Y-103090486D01*
X144104220Y-103095159D01*
X144103621Y-103093714D01*
X144050204Y-103110436D01*
X143992061Y-103094481D01*
X143991781Y-103095159D01*
X143986383Y-103092923D01*
X143982825Y-103091947D01*
X143980648Y-103090547D01*
X143980494Y-103090484D01*
X143900136Y-103074500D01*
X143690423Y-103074500D01*
X143623384Y-103054815D01*
X143577629Y-103002011D01*
X143567685Y-102932853D01*
X143596710Y-102869297D01*
X143602727Y-102862834D01*
X148058465Y-98407098D01*
X148101318Y-98332875D01*
X148123500Y-98250089D01*
X148123500Y-98164383D01*
X148123500Y-95285284D01*
X148143185Y-95218245D01*
X148195989Y-95172490D01*
X148265147Y-95162546D01*
X148294946Y-95170721D01*
X148365738Y-95200044D01*
X148444119Y-95210363D01*
X148522499Y-95220682D01*
X148522500Y-95220682D01*
X148522501Y-95220682D01*
X148599582Y-95210534D01*
X148679262Y-95200044D01*
X148803215Y-95148700D01*
X148872682Y-95141232D01*
X148935162Y-95172507D01*
X148970441Y-95231168D01*
X148972500Y-95238852D01*
X148972500Y-95238853D01*
X148994682Y-95321639D01*
X149037535Y-95395862D01*
X149037537Y-95395864D01*
X149354988Y-95713315D01*
X149388473Y-95774638D01*
X149390246Y-95817181D01*
X149381318Y-95884998D01*
X149381318Y-95885001D01*
X149401955Y-96041760D01*
X149401956Y-96041762D01*
X149426670Y-96101428D01*
X149462464Y-96187841D01*
X149558718Y-96313282D01*
X149684159Y-96409536D01*
X149830238Y-96470044D01*
X149902064Y-96479500D01*
X149986999Y-96490682D01*
X149987000Y-96490682D01*
X149987001Y-96490682D01*
X150071936Y-96479500D01*
X150143762Y-96470044D01*
X150289841Y-96409536D01*
X150415282Y-96313282D01*
X150511536Y-96187841D01*
X150572044Y-96041762D01*
X150592682Y-95885000D01*
X150591365Y-95875000D01*
X150572044Y-95728239D01*
X150572044Y-95728238D01*
X150511536Y-95582159D01*
X150511535Y-95582158D01*
X150511535Y-95582157D01*
X150464393Y-95520721D01*
X150439198Y-95455552D01*
X150453236Y-95387107D01*
X150502050Y-95337117D01*
X150517526Y-95330815D01*
X150517253Y-95330154D01*
X150524760Y-95327044D01*
X150524762Y-95327044D01*
X150670841Y-95266536D01*
X150796282Y-95170282D01*
X150892536Y-95044841D01*
X150953044Y-94898762D01*
X150968704Y-94779815D01*
X150973682Y-94742001D01*
X150973682Y-94741998D01*
X150953044Y-94585239D01*
X150953044Y-94585238D01*
X150907381Y-94474999D01*
X151653741Y-94474999D01*
X151653742Y-94475000D01*
X152573000Y-94475000D01*
X152573000Y-94175000D01*
X152873000Y-94175000D01*
X152873000Y-94475000D01*
X153792258Y-94475000D01*
X153792258Y-94474999D01*
X153787380Y-94441520D01*
X153732412Y-94329081D01*
X153643918Y-94240587D01*
X153531482Y-94185620D01*
X153458582Y-94175000D01*
X152873000Y-94175000D01*
X152573000Y-94175000D01*
X151987418Y-94175000D01*
X151914517Y-94185620D01*
X151802081Y-94240587D01*
X151713587Y-94329081D01*
X151658619Y-94441520D01*
X151653741Y-94474999D01*
X150907381Y-94474999D01*
X150892536Y-94439159D01*
X150796282Y-94313718D01*
X150670841Y-94217464D01*
X150656498Y-94211523D01*
X150524762Y-94156956D01*
X150524760Y-94156955D01*
X150368001Y-94136318D01*
X150367999Y-94136318D01*
X150300181Y-94145246D01*
X150231145Y-94134480D01*
X150196314Y-94109987D01*
X150159818Y-94073490D01*
X150126333Y-94012166D01*
X150123500Y-93985810D01*
X150123500Y-93799499D01*
X150143185Y-93732460D01*
X150195989Y-93686705D01*
X150247496Y-93675499D01*
X150400132Y-93675499D01*
X150400136Y-93675498D01*
X150403700Y-93675147D01*
X150405556Y-93675499D01*
X150406224Y-93675499D01*
X150406224Y-93675625D01*
X150472346Y-93688165D01*
X150493590Y-93703628D01*
X150493722Y-93703444D01*
X150502080Y-93709411D01*
X150614520Y-93764379D01*
X150614522Y-93764380D01*
X150647999Y-93769257D01*
X150648000Y-93769257D01*
X150648000Y-93435254D01*
X150648299Y-93429171D01*
X150648497Y-93427143D01*
X150648500Y-93427133D01*
X150648499Y-92850000D01*
X150948000Y-92850000D01*
X150948000Y-93769257D01*
X150981477Y-93764380D01*
X150981479Y-93764379D01*
X151093918Y-93709412D01*
X151182412Y-93620918D01*
X151237379Y-93508482D01*
X151248000Y-93435582D01*
X151248000Y-92850000D01*
X150948000Y-92850000D01*
X150648499Y-92850000D01*
X150648499Y-92790500D01*
X154274000Y-92790500D01*
X154899000Y-92790500D01*
X154899000Y-92103000D01*
X155199000Y-92103000D01*
X155199000Y-92790500D01*
X155824000Y-92790500D01*
X155824000Y-92598428D01*
X155813626Y-92512041D01*
X155759423Y-92374592D01*
X155759420Y-92374586D01*
X155670143Y-92256856D01*
X155552413Y-92167579D01*
X155552407Y-92167576D01*
X155414958Y-92113373D01*
X155328572Y-92103000D01*
X155199000Y-92103000D01*
X154899000Y-92103000D01*
X154769428Y-92103000D01*
X154683041Y-92113373D01*
X154545592Y-92167576D01*
X154545586Y-92167579D01*
X154427856Y-92256856D01*
X154338579Y-92374586D01*
X154338576Y-92374592D01*
X154284373Y-92512041D01*
X154274000Y-92598428D01*
X154274000Y-92790500D01*
X150648499Y-92790500D01*
X150648499Y-92673998D01*
X150668183Y-92606961D01*
X150720987Y-92561206D01*
X150772499Y-92550000D01*
X151248000Y-92550000D01*
X151248000Y-91964417D01*
X151237379Y-91891517D01*
X151182412Y-91779081D01*
X151115058Y-91711727D01*
X151081573Y-91650404D01*
X151086557Y-91580712D01*
X151127252Y-91525671D01*
X151177282Y-91487282D01*
X151273536Y-91361841D01*
X151334044Y-91215762D01*
X151347802Y-91111254D01*
X151354682Y-91059001D01*
X151354682Y-91058998D01*
X151337095Y-90925410D01*
X151334044Y-90902238D01*
X151273536Y-90756159D01*
X151177282Y-90630718D01*
X151051841Y-90534464D01*
X151028203Y-90524673D01*
X150905762Y-90473956D01*
X150905760Y-90473955D01*
X150749001Y-90453318D01*
X150748999Y-90453318D01*
X150592239Y-90473955D01*
X150592237Y-90473956D01*
X150446160Y-90534463D01*
X150320718Y-90630718D01*
X150224463Y-90756160D01*
X150163956Y-90902237D01*
X150163955Y-90902239D01*
X150143318Y-91058998D01*
X150143318Y-91059001D01*
X150152246Y-91126817D01*
X150141480Y-91195852D01*
X150116989Y-91230682D01*
X150031789Y-91315884D01*
X150029537Y-91313632D01*
X149985156Y-91346000D01*
X149915408Y-91350115D01*
X149854507Y-91315868D01*
X149821789Y-91254132D01*
X149820338Y-91245488D01*
X149809708Y-91164738D01*
X149749200Y-91018659D01*
X149652946Y-90893218D01*
X149652944Y-90893217D01*
X149652944Y-90893216D01*
X149641865Y-90884715D01*
X149632201Y-90877300D01*
X149590999Y-90820873D01*
X149586844Y-90751127D01*
X149607917Y-90705293D01*
X149618116Y-90691475D01*
X149661725Y-90566849D01*
X149664500Y-90537260D01*
X149664500Y-89956739D01*
X149661725Y-89927150D01*
X149621130Y-89811139D01*
X149618116Y-89802525D01*
X149586168Y-89759237D01*
X149539711Y-89696289D01*
X149539710Y-89696288D01*
X149473867Y-89647694D01*
X149431616Y-89592047D01*
X149423500Y-89547924D01*
X149423500Y-87739492D01*
X149443185Y-87672453D01*
X149495989Y-87626698D01*
X149515402Y-87619718D01*
X149737079Y-87560320D01*
X149947282Y-87462301D01*
X150137269Y-87329270D01*
X150301270Y-87165269D01*
X150434301Y-86975282D01*
X150532320Y-86765079D01*
X150532320Y-86765078D01*
X150534608Y-86760172D01*
X150536150Y-86760891D01*
X150573016Y-86710824D01*
X150638285Y-86685890D01*
X150648110Y-86685500D01*
X151224270Y-86685500D01*
X151291309Y-86705185D01*
X151337064Y-86757989D01*
X151341311Y-86768544D01*
X151353884Y-86804476D01*
X151432288Y-86910710D01*
X151432289Y-86910711D01*
X151538523Y-86989115D01*
X151538524Y-86989115D01*
X151538525Y-86989116D01*
X151663151Y-87032725D01*
X151663150Y-87032725D01*
X151692740Y-87035500D01*
X151692744Y-87035500D01*
X152298260Y-87035500D01*
X152327849Y-87032725D01*
X152452475Y-86989116D01*
X152558711Y-86910711D01*
X152637116Y-86804475D01*
X152680725Y-86679849D01*
X152683500Y-86650256D01*
X152683500Y-86510000D01*
X153033000Y-86510000D01*
X153033000Y-86639571D01*
X153043373Y-86725958D01*
X153097576Y-86863407D01*
X153097579Y-86863413D01*
X153186856Y-86981143D01*
X153304586Y-87070420D01*
X153304592Y-87070423D01*
X153442041Y-87124626D01*
X153528428Y-87135000D01*
X153670500Y-87135000D01*
X153670500Y-86510000D01*
X153970500Y-86510000D01*
X153970500Y-87135000D01*
X154112572Y-87135000D01*
X154198958Y-87124626D01*
X154336407Y-87070423D01*
X154336413Y-87070420D01*
X154454143Y-86981143D01*
X154543420Y-86863413D01*
X154543423Y-86863407D01*
X154597626Y-86725958D01*
X154608000Y-86639571D01*
X154608000Y-86510000D01*
X153970500Y-86510000D01*
X153670500Y-86510000D01*
X153033000Y-86510000D01*
X152683500Y-86510000D01*
X152683500Y-86210000D01*
X153033000Y-86210000D01*
X153670500Y-86210000D01*
X153670500Y-85585000D01*
X153970500Y-85585000D01*
X153970500Y-86210000D01*
X154608000Y-86210000D01*
X154608000Y-86080428D01*
X154597626Y-85994041D01*
X154543423Y-85856592D01*
X154543420Y-85856586D01*
X154454143Y-85738856D01*
X154336413Y-85649579D01*
X154336407Y-85649576D01*
X154198958Y-85595373D01*
X154112572Y-85585000D01*
X153970500Y-85585000D01*
X153670500Y-85585000D01*
X153528428Y-85585000D01*
X153442041Y-85595373D01*
X153304592Y-85649576D01*
X153304586Y-85649579D01*
X153186856Y-85738856D01*
X153097579Y-85856586D01*
X153097576Y-85856592D01*
X153043373Y-85994041D01*
X153033000Y-86080428D01*
X153033000Y-86210000D01*
X152683500Y-86210000D01*
X152683500Y-86069744D01*
X152680725Y-86040151D01*
X152671859Y-86014815D01*
X152637115Y-85915523D01*
X152558711Y-85809289D01*
X152558710Y-85809288D01*
X152452476Y-85730884D01*
X152327848Y-85687274D01*
X152327849Y-85687274D01*
X152298260Y-85684500D01*
X152298256Y-85684500D01*
X151692744Y-85684500D01*
X151692740Y-85684500D01*
X151663150Y-85687274D01*
X151538523Y-85730884D01*
X151432289Y-85809288D01*
X151432288Y-85809289D01*
X151353884Y-85915523D01*
X151341311Y-85951456D01*
X151300589Y-86008231D01*
X151235636Y-86033978D01*
X151224270Y-86034500D01*
X150675587Y-86034500D01*
X150608548Y-86014815D01*
X150562793Y-85962011D01*
X150555812Y-85942594D01*
X150532320Y-85854921D01*
X150434301Y-85644719D01*
X150434299Y-85644716D01*
X150434298Y-85644714D01*
X150301273Y-85454735D01*
X150301268Y-85454729D01*
X150137269Y-85290730D01*
X150137263Y-85290726D01*
X149947282Y-85157699D01*
X149737079Y-85059680D01*
X149737076Y-85059679D01*
X149737074Y-85059678D01*
X149513051Y-84999651D01*
X149513044Y-84999650D01*
X149282002Y-84979437D01*
X149281998Y-84979437D01*
X149050955Y-84999650D01*
X149050948Y-84999651D01*
X148826917Y-85059681D01*
X148616718Y-85157699D01*
X148616714Y-85157701D01*
X148426735Y-85290726D01*
X148426729Y-85290731D01*
X148262731Y-85454729D01*
X148262726Y-85454735D01*
X148129701Y-85644714D01*
X148129699Y-85644718D01*
X148031681Y-85854917D01*
X147971651Y-86078948D01*
X147971650Y-86078955D01*
X147951437Y-86309998D01*
X147951437Y-86310001D01*
X147971650Y-86541044D01*
X147971651Y-86541051D01*
X148031678Y-86765074D01*
X148031679Y-86765076D01*
X148031680Y-86765079D01*
X148129699Y-86975282D01*
X148262730Y-87165269D01*
X148426731Y-87329270D01*
X148616718Y-87462301D01*
X148700907Y-87501558D01*
X148753344Y-87547728D01*
X148772500Y-87613939D01*
X148772500Y-89447500D01*
X148752815Y-89514539D01*
X148700011Y-89560294D01*
X148648500Y-89571500D01*
X148573740Y-89571500D01*
X148544150Y-89574274D01*
X148419523Y-89617884D01*
X148313289Y-89696288D01*
X148313288Y-89696289D01*
X148234884Y-89802523D01*
X148191274Y-89927150D01*
X148188500Y-89956739D01*
X148188500Y-90473311D01*
X148168815Y-90540350D01*
X148152181Y-90560992D01*
X148151181Y-90561992D01*
X148089858Y-90595477D01*
X148020166Y-90590493D01*
X147964233Y-90548621D01*
X147939816Y-90483157D01*
X147939500Y-90474311D01*
X147939500Y-89956739D01*
X147936725Y-89927150D01*
X147896130Y-89811139D01*
X147893116Y-89802525D01*
X147861168Y-89759237D01*
X147814711Y-89696289D01*
X147814710Y-89696288D01*
X147708477Y-89617885D01*
X147708475Y-89617884D01*
X147693127Y-89612513D01*
X147636353Y-89571791D01*
X147610607Y-89506838D01*
X147624064Y-89438277D01*
X147658596Y-89397099D01*
X147748282Y-89328282D01*
X147844536Y-89202841D01*
X147905044Y-89056762D01*
X147925682Y-88900000D01*
X147925663Y-88899859D01*
X147905044Y-88743239D01*
X147905044Y-88743238D01*
X147844536Y-88597159D01*
X147748282Y-88471718D01*
X147622841Y-88375464D01*
X147590908Y-88362237D01*
X147476762Y-88314956D01*
X147476760Y-88314955D01*
X147320001Y-88294318D01*
X147319999Y-88294318D01*
X147163239Y-88314955D01*
X147163237Y-88314956D01*
X147017160Y-88375463D01*
X146891718Y-88471718D01*
X146795463Y-88597160D01*
X146734956Y-88743237D01*
X146734955Y-88743239D01*
X146714318Y-88899998D01*
X146714318Y-88900001D01*
X146734955Y-89056760D01*
X146734957Y-89056765D01*
X146795461Y-89202836D01*
X146795464Y-89202841D01*
X146850376Y-89274404D01*
X146875570Y-89339573D01*
X146876000Y-89349890D01*
X146876000Y-89466399D01*
X146856315Y-89533438D01*
X146803511Y-89579193D01*
X146792956Y-89583440D01*
X146694523Y-89617884D01*
X146588289Y-89696288D01*
X146588288Y-89696289D01*
X146509884Y-89802523D01*
X146466541Y-89926389D01*
X146425819Y-89983164D01*
X146360866Y-90008911D01*
X146292305Y-89995454D01*
X146241902Y-89947067D01*
X146232459Y-89926389D01*
X146192130Y-89811139D01*
X146189116Y-89802525D01*
X146157168Y-89759237D01*
X146110711Y-89696289D01*
X146110710Y-89696288D01*
X146004476Y-89617884D01*
X146004477Y-89617884D01*
X145906044Y-89583440D01*
X145849268Y-89542717D01*
X145823522Y-89477764D01*
X145823000Y-89466399D01*
X145823000Y-88982649D01*
X145823000Y-88982647D01*
X145800818Y-88899862D01*
X145800818Y-88899861D01*
X145757965Y-88825638D01*
X144143819Y-87211492D01*
X144110334Y-87150169D01*
X144107500Y-87123811D01*
X144107500Y-85165249D01*
X144107499Y-85165247D01*
X144095868Y-85106770D01*
X144095867Y-85106769D01*
X144051552Y-85040447D01*
X143985230Y-84996132D01*
X143985229Y-84996131D01*
X143926752Y-84984500D01*
X143926748Y-84984500D01*
X141637252Y-84984500D01*
X141637247Y-84984500D01*
X141578770Y-84996131D01*
X141578769Y-84996132D01*
X141512447Y-85040447D01*
X141468132Y-85106769D01*
X141468131Y-85106770D01*
X141456500Y-85165247D01*
X141456500Y-87454752D01*
X141468131Y-87513229D01*
X141468132Y-87513230D01*
X141512447Y-87579552D01*
X141578769Y-87623867D01*
X141578770Y-87623868D01*
X141637247Y-87635499D01*
X141637250Y-87635500D01*
X141637252Y-87635500D01*
X143595811Y-87635500D01*
X143662850Y-87655185D01*
X143683492Y-87671819D01*
X145135681Y-89124008D01*
X145169166Y-89185331D01*
X145172000Y-89211689D01*
X145172000Y-89466399D01*
X145152315Y-89533438D01*
X145099511Y-89579193D01*
X145088956Y-89583440D01*
X144990523Y-89617884D01*
X144884289Y-89696288D01*
X144884288Y-89696289D01*
X144805884Y-89802523D01*
X144805884Y-89802524D01*
X144804455Y-89806608D01*
X144801684Y-89810470D01*
X144801542Y-89810740D01*
X144801505Y-89810720D01*
X144763731Y-89863383D01*
X144698777Y-89889127D01*
X144630216Y-89875668D01*
X144579815Y-89827279D01*
X144572061Y-89811139D01*
X144545423Y-89743592D01*
X144545420Y-89743586D01*
X144456143Y-89625856D01*
X144338413Y-89536579D01*
X144338407Y-89536576D01*
X144200958Y-89482373D01*
X144114572Y-89472000D01*
X143922500Y-89472000D01*
X143922500Y-91022000D01*
X144114572Y-91022000D01*
X144200958Y-91011626D01*
X144338407Y-90957423D01*
X144338413Y-90957420D01*
X144456143Y-90868143D01*
X144545420Y-90750413D01*
X144572060Y-90682860D01*
X144614966Y-90627716D01*
X144680874Y-90604523D01*
X144748858Y-90620643D01*
X144797335Y-90670960D01*
X144804454Y-90687388D01*
X144805884Y-90691475D01*
X144805885Y-90691477D01*
X144853623Y-90756160D01*
X144884289Y-90797711D01*
X144922135Y-90825642D01*
X144964384Y-90881285D01*
X144972500Y-90925410D01*
X144972500Y-91552854D01*
X144952815Y-91619893D01*
X144948000Y-91625444D01*
X144948000Y-91964743D01*
X144947701Y-91970823D01*
X144947500Y-91972864D01*
X144947500Y-93427131D01*
X144947701Y-93429160D01*
X144948000Y-93435244D01*
X144948000Y-93769257D01*
X144981477Y-93764380D01*
X144981481Y-93764379D01*
X145073818Y-93719238D01*
X145142691Y-93707478D01*
X145206988Y-93734821D01*
X145246296Y-93792585D01*
X145248134Y-93862430D01*
X145242840Y-93878090D01*
X145212957Y-93950234D01*
X145212955Y-93950239D01*
X145192318Y-94106998D01*
X145192318Y-94107001D01*
X145212955Y-94263760D01*
X145212956Y-94263762D01*
X145260050Y-94377458D01*
X145273464Y-94409841D01*
X145369718Y-94535282D01*
X145495159Y-94631536D01*
X145641238Y-94692044D01*
X145719619Y-94702363D01*
X145797999Y-94712682D01*
X145798000Y-94712682D01*
X145798001Y-94712682D01*
X145850254Y-94705802D01*
X145954762Y-94692044D01*
X146100841Y-94631536D01*
X146226282Y-94535282D01*
X146322536Y-94409841D01*
X146383044Y-94263762D01*
X146398647Y-94145246D01*
X146403682Y-94107001D01*
X146403682Y-94106998D01*
X146385585Y-93969542D01*
X146383044Y-93950238D01*
X146337027Y-93839145D01*
X146329559Y-93769676D01*
X146360834Y-93707197D01*
X146420923Y-93671545D01*
X146427383Y-93670078D01*
X146480495Y-93659515D01*
X146480498Y-93659512D01*
X146491778Y-93654841D01*
X146492376Y-93656286D01*
X146545782Y-93639563D01*
X146603943Y-93655516D01*
X146604223Y-93654842D01*
X146609590Y-93657065D01*
X146613162Y-93658045D01*
X146615351Y-93659451D01*
X146615506Y-93659516D01*
X146668594Y-93670075D01*
X146695867Y-93675500D01*
X146900132Y-93675499D01*
X146980495Y-93659515D01*
X146980498Y-93659512D01*
X146991778Y-93654841D01*
X146992376Y-93656286D01*
X147045782Y-93639563D01*
X147103943Y-93655516D01*
X147104223Y-93654842D01*
X147109590Y-93657065D01*
X147113162Y-93658045D01*
X147115351Y-93659451D01*
X147115506Y-93659516D01*
X147168594Y-93670075D01*
X147195867Y-93675500D01*
X147348499Y-93675499D01*
X147415539Y-93695183D01*
X147461294Y-93747987D01*
X147472500Y-93799499D01*
X147472500Y-98021047D01*
X147452815Y-98088086D01*
X147436181Y-98108728D01*
X141979537Y-103565371D01*
X141979533Y-103565377D01*
X141936682Y-103639595D01*
X141936682Y-103639599D01*
X141914500Y-103722383D01*
X141914500Y-107318000D01*
X141894815Y-107385039D01*
X141842011Y-107430794D01*
X141790500Y-107442000D01*
X139862689Y-107442000D01*
X139795650Y-107422315D01*
X139775008Y-107405681D01*
X138519819Y-106150492D01*
X138486334Y-106089169D01*
X138483500Y-106062811D01*
X138483500Y-104305641D01*
X138503185Y-104238602D01*
X138555989Y-104192847D01*
X138625147Y-104182903D01*
X138688703Y-104211928D01*
X138715588Y-104244872D01*
X138717577Y-104248410D01*
X138806856Y-104366143D01*
X138924586Y-104455420D01*
X138924592Y-104455423D01*
X139062041Y-104509626D01*
X139148428Y-104520000D01*
X139278000Y-104520000D01*
X139278000Y-103832500D01*
X139578000Y-103832500D01*
X139578000Y-104520000D01*
X139707572Y-104520000D01*
X139793958Y-104509626D01*
X139931407Y-104455423D01*
X139931413Y-104455420D01*
X140049143Y-104366143D01*
X140138420Y-104248413D01*
X140138423Y-104248407D01*
X140192626Y-104110958D01*
X140203000Y-104024571D01*
X140203000Y-103832500D01*
X139578000Y-103832500D01*
X139278000Y-103832500D01*
X139278000Y-103656500D01*
X139297685Y-103589461D01*
X139350489Y-103543706D01*
X139402000Y-103532500D01*
X140203000Y-103532500D01*
X140203000Y-103340428D01*
X140192626Y-103254041D01*
X140138423Y-103116592D01*
X140138420Y-103116586D01*
X140049143Y-102998856D01*
X139931413Y-102909579D01*
X139931409Y-102909577D01*
X139863859Y-102882938D01*
X139808715Y-102840032D01*
X139785523Y-102774124D01*
X139801644Y-102706139D01*
X139851962Y-102657663D01*
X139868387Y-102650546D01*
X139872475Y-102649116D01*
X139978711Y-102570711D01*
X140057116Y-102464475D01*
X140095797Y-102353930D01*
X140136517Y-102297158D01*
X140201470Y-102271411D01*
X140270031Y-102284867D01*
X140320434Y-102333254D01*
X140324237Y-102340428D01*
X140363586Y-102420916D01*
X140363586Y-102420917D01*
X140452081Y-102509412D01*
X140564517Y-102564379D01*
X140637418Y-102575000D01*
X141223000Y-102575000D01*
X141223000Y-102275000D01*
X141523000Y-102275000D01*
X141523000Y-102575000D01*
X142108582Y-102575000D01*
X142181482Y-102564379D01*
X142293918Y-102509412D01*
X142382412Y-102420918D01*
X142437380Y-102308479D01*
X142442258Y-102275000D01*
X141523000Y-102275000D01*
X141223000Y-102275000D01*
X141223000Y-102099499D01*
X141242685Y-102032460D01*
X141295489Y-101986705D01*
X141346997Y-101975499D01*
X142100132Y-101975499D01*
X142102163Y-101975299D01*
X142108245Y-101975000D01*
X142454908Y-101975000D01*
X142485100Y-101955556D01*
X142520147Y-101950500D01*
X142572348Y-101950500D01*
X142573670Y-101950500D01*
X142621122Y-101959939D01*
X142652290Y-101972848D01*
X142682939Y-101985544D01*
X142761320Y-101995863D01*
X142839700Y-102006182D01*
X142839701Y-102006182D01*
X142839702Y-102006182D01*
X142891955Y-101999302D01*
X142996463Y-101985544D01*
X143142542Y-101925036D01*
X143267983Y-101828782D01*
X143364237Y-101703341D01*
X143424745Y-101557262D01*
X143445383Y-101400500D01*
X143424745Y-101243738D01*
X143364237Y-101097659D01*
X143267983Y-100972218D01*
X143142542Y-100875964D01*
X143134874Y-100872788D01*
X142996463Y-100815456D01*
X142996461Y-100815455D01*
X142839702Y-100794818D01*
X142839700Y-100794818D01*
X142682940Y-100815455D01*
X142682938Y-100815456D01*
X142536857Y-100875965D01*
X142529820Y-100880028D01*
X142528442Y-100877642D01*
X142475810Y-100897973D01*
X142407369Y-100883915D01*
X142357393Y-100835088D01*
X142341748Y-100766992D01*
X142343910Y-100750207D01*
X142348500Y-100727133D01*
X142348499Y-100522868D01*
X142332515Y-100442505D01*
X142332513Y-100442502D01*
X142327841Y-100431222D01*
X142329285Y-100430623D01*
X142312563Y-100377211D01*
X142328517Y-100319056D01*
X142327842Y-100318777D01*
X142330070Y-100313396D01*
X142331049Y-100309831D01*
X142332452Y-100307647D01*
X142332516Y-100307493D01*
X142348499Y-100227136D01*
X142348500Y-100227133D01*
X142348499Y-100022868D01*
X142332515Y-99942505D01*
X142332513Y-99942502D01*
X142327841Y-99931222D01*
X142329285Y-99930623D01*
X142312563Y-99877211D01*
X142328517Y-99819056D01*
X142327842Y-99818777D01*
X142330070Y-99813396D01*
X142331049Y-99809831D01*
X142332452Y-99807647D01*
X142332516Y-99807493D01*
X142348499Y-99727136D01*
X142348500Y-99727133D01*
X142348499Y-99522868D01*
X142332515Y-99442505D01*
X142332513Y-99442502D01*
X142327841Y-99431222D01*
X142329285Y-99430623D01*
X142312563Y-99377211D01*
X142328517Y-99319056D01*
X142327842Y-99318777D01*
X142330070Y-99313396D01*
X142331049Y-99309831D01*
X142332452Y-99307647D01*
X142332516Y-99307493D01*
X142348499Y-99227136D01*
X142348500Y-99227133D01*
X142348499Y-99022868D01*
X142332515Y-98942505D01*
X142332513Y-98942502D01*
X142327841Y-98931222D01*
X142329285Y-98930623D01*
X142312563Y-98877211D01*
X142328517Y-98819056D01*
X142327842Y-98818777D01*
X142330070Y-98813396D01*
X142331049Y-98809831D01*
X142332452Y-98807647D01*
X142332516Y-98807493D01*
X142342088Y-98759365D01*
X142348500Y-98727133D01*
X142348499Y-98522868D01*
X142332515Y-98442505D01*
X142332513Y-98442502D01*
X142327841Y-98431222D01*
X142329285Y-98430623D01*
X142312563Y-98377211D01*
X142328517Y-98319056D01*
X142327842Y-98318777D01*
X142330070Y-98313396D01*
X142331049Y-98309831D01*
X142332452Y-98307647D01*
X142332516Y-98307493D01*
X142348499Y-98227136D01*
X142348500Y-98227133D01*
X142348499Y-98022868D01*
X142332515Y-97942505D01*
X142332513Y-97942502D01*
X142327841Y-97931222D01*
X142329285Y-97930623D01*
X142312563Y-97877211D01*
X142328517Y-97819056D01*
X142327842Y-97818777D01*
X142330070Y-97813396D01*
X142331049Y-97809831D01*
X142332452Y-97807647D01*
X142332516Y-97807493D01*
X142348499Y-97727136D01*
X142348500Y-97727133D01*
X142348499Y-97522868D01*
X142332515Y-97442505D01*
X142332513Y-97442502D01*
X142327841Y-97431222D01*
X142329285Y-97430623D01*
X142312563Y-97377211D01*
X142328517Y-97319056D01*
X142327842Y-97318777D01*
X142330070Y-97313396D01*
X142331049Y-97309831D01*
X142332452Y-97307647D01*
X142332516Y-97307493D01*
X142348499Y-97227136D01*
X142348500Y-97227133D01*
X142348499Y-97022868D01*
X142332515Y-96942505D01*
X142332513Y-96942502D01*
X142327841Y-96931222D01*
X142329285Y-96930623D01*
X142312563Y-96877211D01*
X142328517Y-96819056D01*
X142327842Y-96818777D01*
X142330070Y-96813396D01*
X142331049Y-96809831D01*
X142332452Y-96807647D01*
X142332516Y-96807493D01*
X142348499Y-96727136D01*
X142348500Y-96727133D01*
X142348499Y-96522868D01*
X142332515Y-96442505D01*
X142332513Y-96442502D01*
X142327841Y-96431222D01*
X142329285Y-96430623D01*
X142312563Y-96377211D01*
X142328517Y-96319056D01*
X142327842Y-96318777D01*
X142330070Y-96313396D01*
X142331049Y-96309831D01*
X142332452Y-96307647D01*
X142332516Y-96307493D01*
X142345278Y-96243331D01*
X142348500Y-96227133D01*
X142348499Y-96022868D01*
X142348498Y-96022863D01*
X142348147Y-96019298D01*
X142348499Y-96017441D01*
X142348499Y-96016777D01*
X142348625Y-96016776D01*
X142361165Y-95950652D01*
X142376625Y-95929413D01*
X142376441Y-95929282D01*
X142382411Y-95920919D01*
X142437380Y-95808480D01*
X142442258Y-95775000D01*
X142108257Y-95775000D01*
X142102177Y-95774701D01*
X142100135Y-95774500D01*
X140645868Y-95774500D01*
X140643837Y-95774701D01*
X140637755Y-95775000D01*
X140303742Y-95775000D01*
X140308619Y-95808479D01*
X140363587Y-95920919D01*
X140369556Y-95929278D01*
X140368069Y-95930339D01*
X140395614Y-95980783D01*
X140397852Y-96019283D01*
X140397500Y-96022860D01*
X140397500Y-96022866D01*
X140397500Y-96022867D01*
X140397500Y-96101428D01*
X140397501Y-96175499D01*
X140377817Y-96242539D01*
X140325013Y-96288294D01*
X140273501Y-96299500D01*
X140060147Y-96299500D01*
X139977362Y-96321682D01*
X139977359Y-96321683D01*
X139925930Y-96351376D01*
X139903141Y-96364533D01*
X139903135Y-96364537D01*
X139708767Y-96558905D01*
X139647444Y-96592390D01*
X139619362Y-96590381D01*
X139619362Y-96593500D01*
X138018000Y-96593500D01*
X138018000Y-96785571D01*
X138024742Y-96841716D01*
X138013190Y-96910624D01*
X137966218Y-96962348D01*
X137901626Y-96980500D01*
X132920715Y-96980500D01*
X132853676Y-96960815D01*
X132822341Y-96931989D01*
X132762282Y-96853718D01*
X132636841Y-96757464D01*
X132523520Y-96710525D01*
X132490762Y-96696956D01*
X132490760Y-96696955D01*
X132334001Y-96676318D01*
X132333999Y-96676318D01*
X132177239Y-96696955D01*
X132177237Y-96696956D01*
X132031160Y-96757463D01*
X131905718Y-96853718D01*
X131809463Y-96979160D01*
X131748956Y-97125237D01*
X131748955Y-97125239D01*
X131728318Y-97281998D01*
X131728318Y-97282001D01*
X131748955Y-97438760D01*
X131748956Y-97438762D01*
X131796018Y-97552381D01*
X131809464Y-97584841D01*
X131905718Y-97710282D01*
X132031159Y-97806536D01*
X132177238Y-97867044D01*
X132237670Y-97875000D01*
X132333999Y-97887682D01*
X132334000Y-97887682D01*
X132334001Y-97887682D01*
X132386254Y-97880802D01*
X132490762Y-97867044D01*
X132636841Y-97806536D01*
X132762282Y-97710282D01*
X132785507Y-97680013D01*
X132841935Y-97638811D01*
X132883883Y-97631500D01*
X139464851Y-97631500D01*
X139464853Y-97631500D01*
X139547639Y-97609318D01*
X139621862Y-97566465D01*
X140185821Y-97002505D01*
X140247142Y-96969022D01*
X140316833Y-96974006D01*
X140372767Y-97015877D01*
X140397184Y-97081342D01*
X140397500Y-97090187D01*
X140397500Y-97227129D01*
X140413486Y-97307498D01*
X140418159Y-97318780D01*
X140416714Y-97319378D01*
X140433436Y-97372788D01*
X140417482Y-97430938D01*
X140418159Y-97431219D01*
X140415926Y-97436609D01*
X140414950Y-97440168D01*
X140413550Y-97442345D01*
X140413484Y-97442505D01*
X140397500Y-97522863D01*
X140397500Y-97727129D01*
X140400069Y-97740043D01*
X140413294Y-97806536D01*
X140413486Y-97807498D01*
X140418159Y-97818780D01*
X140416714Y-97819378D01*
X140433436Y-97872788D01*
X140417482Y-97930938D01*
X140418159Y-97931219D01*
X140415926Y-97936609D01*
X140414950Y-97940168D01*
X140413550Y-97942345D01*
X140413484Y-97942505D01*
X140397500Y-98022863D01*
X140397500Y-98227129D01*
X140413486Y-98307498D01*
X140418159Y-98318780D01*
X140416714Y-98319378D01*
X140433436Y-98372788D01*
X140417482Y-98430938D01*
X140418159Y-98431219D01*
X140415926Y-98436609D01*
X140414950Y-98440168D01*
X140413550Y-98442345D01*
X140413484Y-98442505D01*
X140397500Y-98522863D01*
X140397500Y-98522865D01*
X140397501Y-98675499D01*
X140377817Y-98742539D01*
X140325013Y-98788294D01*
X140273501Y-98799500D01*
X136736147Y-98799500D01*
X136653362Y-98821682D01*
X136653359Y-98821683D01*
X136601930Y-98851376D01*
X136579141Y-98864533D01*
X136579135Y-98864537D01*
X128287017Y-107156655D01*
X128225694Y-107190140D01*
X128156002Y-107185156D01*
X128111655Y-107156655D01*
X123825000Y-102870000D01*
X111884000Y-102870000D01*
X111816961Y-102850315D01*
X111771206Y-102797511D01*
X111760000Y-102746000D01*
X111760000Y-98640000D01*
X112055000Y-98640000D01*
X112656082Y-98640000D01*
X112630000Y-98737339D01*
X112630000Y-98842661D01*
X112656082Y-98940000D01*
X112055001Y-98940000D01*
X112055001Y-99509785D01*
X112055002Y-99509808D01*
X112057908Y-99534869D01*
X112057909Y-99534873D01*
X112103211Y-99637474D01*
X112103214Y-99637479D01*
X112182520Y-99716785D01*
X112182525Y-99716788D01*
X112285123Y-99762089D01*
X112310206Y-99764999D01*
X112879999Y-99764999D01*
X112880000Y-99764998D01*
X112880000Y-99163918D01*
X112977339Y-99190000D01*
X113082661Y-99190000D01*
X113180000Y-99163918D01*
X113180000Y-99764999D01*
X113749786Y-99764999D01*
X113749808Y-99764997D01*
X113774869Y-99762091D01*
X113774873Y-99762090D01*
X113877474Y-99716788D01*
X113877479Y-99716785D01*
X113956785Y-99637479D01*
X113956788Y-99637474D01*
X114002089Y-99534877D01*
X114002089Y-99534875D01*
X114004999Y-99509794D01*
X114005000Y-99509791D01*
X114005000Y-98940000D01*
X113403918Y-98940000D01*
X113430000Y-98842661D01*
X113430000Y-98737339D01*
X113403918Y-98640000D01*
X114004999Y-98640000D01*
X114004999Y-98070214D01*
X114004997Y-98070191D01*
X114002091Y-98045130D01*
X114002090Y-98045126D01*
X113956788Y-97942525D01*
X113956785Y-97942520D01*
X113877479Y-97863214D01*
X113877474Y-97863211D01*
X113774876Y-97817910D01*
X113749794Y-97815000D01*
X113463682Y-97815000D01*
X113396643Y-97795315D01*
X113350888Y-97742511D01*
X113340944Y-97673353D01*
X113369969Y-97609797D01*
X113413244Y-97577721D01*
X113470161Y-97552381D01*
X113619050Y-97444207D01*
X113742195Y-97307440D01*
X113834214Y-97148059D01*
X113891085Y-96973029D01*
X113910322Y-96790000D01*
X113891085Y-96606971D01*
X113846640Y-96470185D01*
X113834216Y-96431946D01*
X113834213Y-96431940D01*
X113742195Y-96272560D01*
X113619050Y-96135793D01*
X113619048Y-96135791D01*
X113470165Y-96027621D01*
X113470162Y-96027619D01*
X113470161Y-96027619D01*
X113364966Y-95980783D01*
X113302038Y-95952765D01*
X113302033Y-95952763D01*
X113122019Y-95914500D01*
X112937981Y-95914500D01*
X112757966Y-95952763D01*
X112757961Y-95952765D01*
X112589839Y-96027619D01*
X112589834Y-96027621D01*
X112440951Y-96135791D01*
X112440949Y-96135793D01*
X112317804Y-96272561D01*
X112225786Y-96431940D01*
X112225783Y-96431946D01*
X112173292Y-96593500D01*
X112168915Y-96606971D01*
X112149678Y-96790000D01*
X112168915Y-96973029D01*
X112168916Y-96973032D01*
X112225783Y-97148053D01*
X112225786Y-97148059D01*
X112317805Y-97307440D01*
X112378636Y-97375000D01*
X112440949Y-97444206D01*
X112440951Y-97444208D01*
X112589834Y-97552378D01*
X112589836Y-97552379D01*
X112589839Y-97552381D01*
X112646754Y-97577721D01*
X112699990Y-97622970D01*
X112720312Y-97689819D01*
X112701267Y-97757043D01*
X112648901Y-97803299D01*
X112596318Y-97815000D01*
X112310214Y-97815000D01*
X112310191Y-97815002D01*
X112285130Y-97817908D01*
X112285126Y-97817909D01*
X112182525Y-97863211D01*
X112182520Y-97863214D01*
X112103214Y-97942520D01*
X112103211Y-97942525D01*
X112057910Y-98045122D01*
X112057910Y-98045124D01*
X112055000Y-98070205D01*
X112055000Y-98640000D01*
X111760000Y-98640000D01*
X111760000Y-94615001D01*
X136554318Y-94615001D01*
X136574955Y-94771760D01*
X136574956Y-94771762D01*
X136635464Y-94917841D01*
X136731718Y-95043282D01*
X136857159Y-95139536D01*
X137003238Y-95200044D01*
X137081619Y-95210363D01*
X137159999Y-95220682D01*
X137160000Y-95220682D01*
X137160001Y-95220682D01*
X137237082Y-95210534D01*
X137316762Y-95200044D01*
X137462841Y-95139536D01*
X137553952Y-95069623D01*
X137619121Y-95044430D01*
X137629438Y-95044000D01*
X138012400Y-95044000D01*
X138079439Y-95063685D01*
X138125194Y-95116489D01*
X138129441Y-95127045D01*
X138163884Y-95225475D01*
X138163884Y-95225476D01*
X138242288Y-95331710D01*
X138242289Y-95331711D01*
X138348521Y-95410114D01*
X138348523Y-95410114D01*
X138348525Y-95410116D01*
X138352602Y-95411542D01*
X138356463Y-95414311D01*
X138356740Y-95414458D01*
X138356720Y-95414495D01*
X138409377Y-95452261D01*
X138435127Y-95517213D01*
X138421672Y-95585775D01*
X138373287Y-95636180D01*
X138357141Y-95643938D01*
X138289588Y-95670578D01*
X138289586Y-95670579D01*
X138171856Y-95759856D01*
X138082579Y-95877586D01*
X138082576Y-95877592D01*
X138028373Y-96015041D01*
X138018000Y-96101428D01*
X138018000Y-96293500D01*
X139568000Y-96293500D01*
X139568000Y-96101428D01*
X139557626Y-96015041D01*
X139503423Y-95877592D01*
X139503420Y-95877586D01*
X139414143Y-95759856D01*
X139296413Y-95670579D01*
X139296409Y-95670577D01*
X139228859Y-95643938D01*
X139173715Y-95601032D01*
X139150523Y-95535124D01*
X139166644Y-95467139D01*
X139216962Y-95418663D01*
X139233387Y-95411546D01*
X139237475Y-95410116D01*
X139343711Y-95331711D01*
X139401962Y-95252782D01*
X139457606Y-95210534D01*
X139527262Y-95205075D01*
X139588812Y-95238142D01*
X139589243Y-95238569D01*
X139634291Y-95283617D01*
X139672238Y-95321564D01*
X139672258Y-95321585D01*
X139736139Y-95385466D01*
X139767376Y-95403500D01*
X139810358Y-95428317D01*
X139810360Y-95428317D01*
X139810361Y-95428318D01*
X139893147Y-95450500D01*
X140225853Y-95450500D01*
X140292892Y-95470185D01*
X140298444Y-95475000D01*
X140637743Y-95475000D01*
X140643823Y-95475299D01*
X140645860Y-95475498D01*
X140645867Y-95475500D01*
X142100132Y-95475499D01*
X142100132Y-95475498D01*
X142102163Y-95475299D01*
X142108245Y-95475000D01*
X142442258Y-95475000D01*
X142442258Y-95474999D01*
X142437380Y-95441520D01*
X142382412Y-95329080D01*
X142376444Y-95320722D01*
X142377930Y-95319660D01*
X142350385Y-95269216D01*
X142348148Y-95230701D01*
X142348497Y-95227147D01*
X142348500Y-95227133D01*
X142348499Y-95022868D01*
X142332515Y-94942505D01*
X142332513Y-94942502D01*
X142327841Y-94931222D01*
X142329285Y-94930623D01*
X142312563Y-94877211D01*
X142328517Y-94819056D01*
X142327842Y-94818777D01*
X142330070Y-94813396D01*
X142331049Y-94809831D01*
X142332452Y-94807647D01*
X142332516Y-94807493D01*
X142342088Y-94759365D01*
X142348500Y-94727133D01*
X142348499Y-94522868D01*
X142332515Y-94442505D01*
X142297652Y-94390329D01*
X142271624Y-94351375D01*
X142212932Y-94312159D01*
X142180495Y-94290485D01*
X142180493Y-94290484D01*
X142180490Y-94290483D01*
X142100136Y-94274500D01*
X140645870Y-94274500D01*
X140565504Y-94290485D01*
X140474375Y-94351375D01*
X140413485Y-94442505D01*
X140413483Y-94442509D01*
X140397500Y-94522863D01*
X140397500Y-94522865D01*
X140397500Y-94522867D01*
X140397500Y-94615001D01*
X140397501Y-94675499D01*
X140377817Y-94742539D01*
X140325013Y-94788294D01*
X140273501Y-94799500D01*
X140122188Y-94799500D01*
X140055149Y-94779815D01*
X140034507Y-94763181D01*
X139886327Y-94615001D01*
X139729362Y-94458035D01*
X139692250Y-94436608D01*
X139655140Y-94415182D01*
X139613746Y-94404091D01*
X139572353Y-94393000D01*
X139572352Y-94393000D01*
X139564293Y-94391939D01*
X139564504Y-94390329D01*
X139506561Y-94373315D01*
X139460806Y-94320511D01*
X139456559Y-94309955D01*
X139432285Y-94240587D01*
X139422116Y-94211525D01*
X139402997Y-94185620D01*
X139343711Y-94105289D01*
X139343710Y-94105288D01*
X139237476Y-94026884D01*
X139112848Y-93983274D01*
X139112849Y-93983274D01*
X139083260Y-93980500D01*
X139083256Y-93980500D01*
X138502744Y-93980500D01*
X138502740Y-93980500D01*
X138473150Y-93983274D01*
X138348523Y-94026884D01*
X138242289Y-94105288D01*
X138242288Y-94105289D01*
X138163884Y-94211523D01*
X138163884Y-94211524D01*
X138129441Y-94309955D01*
X138088719Y-94366731D01*
X138023766Y-94392478D01*
X138012400Y-94393000D01*
X137800875Y-94393000D01*
X137733836Y-94373315D01*
X137688081Y-94320511D01*
X137686323Y-94316473D01*
X137684536Y-94312159D01*
X137588282Y-94186718D01*
X137462841Y-94090464D01*
X137421862Y-94073490D01*
X137316762Y-94029956D01*
X137316760Y-94029955D01*
X137160001Y-94009318D01*
X137159999Y-94009318D01*
X137003239Y-94029955D01*
X137003237Y-94029956D01*
X136857160Y-94090463D01*
X136731718Y-94186718D01*
X136635463Y-94312160D01*
X136574956Y-94458237D01*
X136574955Y-94458239D01*
X136554318Y-94614998D01*
X136554318Y-94615001D01*
X111760000Y-94615001D01*
X111760000Y-93427129D01*
X142947500Y-93427129D01*
X142965321Y-93516726D01*
X142971884Y-93544720D01*
X142972357Y-93551690D01*
X142972500Y-93555894D01*
X142972500Y-93585620D01*
X142972829Y-93588122D01*
X142975648Y-93605076D01*
X142976146Y-93607548D01*
X142985763Y-93635668D01*
X142986985Y-93639682D01*
X142994683Y-93668407D01*
X142995653Y-93670748D01*
X143002758Y-93686381D01*
X143003878Y-93688639D01*
X143003881Y-93688644D01*
X143003882Y-93688645D01*
X143020461Y-93713335D01*
X143022659Y-93716862D01*
X143036054Y-93740061D01*
X143037535Y-93742626D01*
X143039108Y-93744676D01*
X143052162Y-93760545D01*
X143429365Y-94322282D01*
X143450396Y-94388911D01*
X143440983Y-94438859D01*
X143432956Y-94458237D01*
X143432955Y-94458239D01*
X143412318Y-94614998D01*
X143412318Y-94615001D01*
X143432955Y-94771760D01*
X143432956Y-94771762D01*
X143493464Y-94917841D01*
X143589718Y-95043282D01*
X143715159Y-95139536D01*
X143861238Y-95200044D01*
X143939619Y-95210363D01*
X144017999Y-95220682D01*
X144018000Y-95220682D01*
X144018001Y-95220682D01*
X144095082Y-95210534D01*
X144174762Y-95200044D01*
X144320841Y-95139536D01*
X144446282Y-95043282D01*
X144542536Y-94917841D01*
X144603044Y-94771762D01*
X144623682Y-94615000D01*
X144603044Y-94458238D01*
X144542536Y-94312159D01*
X144446282Y-94186718D01*
X144320841Y-94090464D01*
X144174762Y-94029956D01*
X144104010Y-94020641D01*
X144057476Y-94014515D01*
X143993580Y-93986248D01*
X143970721Y-93960706D01*
X143897164Y-93851165D01*
X143876135Y-93784539D01*
X143894465Y-93717117D01*
X143946337Y-93670308D01*
X143975920Y-93660424D01*
X143980495Y-93659515D01*
X143980500Y-93659511D01*
X143991778Y-93654841D01*
X143992376Y-93656286D01*
X144045782Y-93639563D01*
X144103943Y-93655516D01*
X144104223Y-93654842D01*
X144109590Y-93657065D01*
X144113162Y-93658045D01*
X144115351Y-93659451D01*
X144115506Y-93659516D01*
X144168594Y-93670075D01*
X144195867Y-93675500D01*
X144400132Y-93675499D01*
X144400137Y-93675497D01*
X144403700Y-93675147D01*
X144405556Y-93675499D01*
X144406223Y-93675499D01*
X144406223Y-93675625D01*
X144472346Y-93688165D01*
X144493590Y-93703628D01*
X144493722Y-93703444D01*
X144502080Y-93709411D01*
X144614520Y-93764379D01*
X144614522Y-93764380D01*
X144647999Y-93769257D01*
X144648000Y-93769257D01*
X144648000Y-93435254D01*
X144648299Y-93429171D01*
X144648497Y-93427143D01*
X144648500Y-93427133D01*
X144648499Y-91972868D01*
X144648499Y-91972867D01*
X144648499Y-91972865D01*
X144648299Y-91970834D01*
X144648000Y-91964754D01*
X144648000Y-91630742D01*
X144647999Y-91630741D01*
X144614519Y-91635619D01*
X144502084Y-91690586D01*
X144493723Y-91696556D01*
X144492662Y-91695071D01*
X144442207Y-91722616D01*
X144403717Y-91724852D01*
X144400139Y-91724500D01*
X144195870Y-91724500D01*
X144135867Y-91736434D01*
X144115505Y-91740485D01*
X144115504Y-91740485D01*
X144115501Y-91740486D01*
X144104220Y-91745159D01*
X144103621Y-91743714D01*
X144050204Y-91760436D01*
X143992061Y-91744481D01*
X143991781Y-91745159D01*
X143986383Y-91742923D01*
X143982825Y-91741947D01*
X143980648Y-91740547D01*
X143980494Y-91740484D01*
X143900135Y-91724500D01*
X143695870Y-91724500D01*
X143635867Y-91736434D01*
X143615505Y-91740485D01*
X143615504Y-91740485D01*
X143615501Y-91740486D01*
X143604220Y-91745159D01*
X143603621Y-91743714D01*
X143550204Y-91760436D01*
X143492061Y-91744481D01*
X143491781Y-91745159D01*
X143486383Y-91742923D01*
X143482825Y-91741947D01*
X143480648Y-91740547D01*
X143480494Y-91740484D01*
X143400135Y-91724500D01*
X143195870Y-91724500D01*
X143115504Y-91740485D01*
X143024375Y-91801375D01*
X142963485Y-91892505D01*
X142963483Y-91892509D01*
X142947500Y-91972862D01*
X142947500Y-93427129D01*
X111760000Y-93427129D01*
X111760000Y-93396362D01*
X111779685Y-93329323D01*
X111796319Y-93308681D01*
X112993681Y-92111319D01*
X113055004Y-92077834D01*
X113081362Y-92075000D01*
X120650000Y-92075000D01*
X122328000Y-90397000D01*
X142935000Y-90397000D01*
X142935000Y-90526571D01*
X142945373Y-90612958D01*
X142999576Y-90750407D01*
X142999579Y-90750413D01*
X143088856Y-90868143D01*
X143206586Y-90957420D01*
X143206592Y-90957423D01*
X143344041Y-91011626D01*
X143430428Y-91022000D01*
X143622500Y-91022000D01*
X143622500Y-90397000D01*
X142935000Y-90397000D01*
X122328000Y-90397000D01*
X122628000Y-90097000D01*
X142935000Y-90097000D01*
X143622500Y-90097000D01*
X143622500Y-89472000D01*
X143430428Y-89472000D01*
X143344041Y-89482373D01*
X143206592Y-89536576D01*
X143206586Y-89536579D01*
X143088856Y-89625856D01*
X142999579Y-89743586D01*
X142999576Y-89743592D01*
X142945373Y-89881041D01*
X142935000Y-89967428D01*
X142935000Y-90097000D01*
X122628000Y-90097000D01*
X127635000Y-85090000D01*
X127635000Y-72441362D01*
X127654685Y-72374323D01*
X127671319Y-72353681D01*
X128868681Y-71156319D01*
X128930004Y-71122834D01*
X128956362Y-71120000D01*
X132677500Y-71120000D01*
X132744539Y-71139685D01*
G37*
%TD.AperFunction*%
%TA.AperFunction,Conductor*%
G36*
X140121539Y-71139685D02*
G01*
X140167294Y-71192489D01*
X140178500Y-71244000D01*
X140178500Y-71664260D01*
X140181274Y-71693849D01*
X140224884Y-71818476D01*
X140303288Y-71924710D01*
X140303289Y-71924711D01*
X140409523Y-72003115D01*
X140409524Y-72003115D01*
X140409525Y-72003116D01*
X140534151Y-72046725D01*
X140534150Y-72046725D01*
X140563740Y-72049500D01*
X140563744Y-72049500D01*
X141169260Y-72049500D01*
X141198849Y-72046725D01*
X141204670Y-72044688D01*
X141323475Y-72003116D01*
X141429711Y-71924711D01*
X141458656Y-71885490D01*
X141514302Y-71843240D01*
X141583958Y-71837781D01*
X141633912Y-71860748D01*
X141683157Y-71898535D01*
X141683158Y-71898535D01*
X141683159Y-71898536D01*
X141829238Y-71959044D01*
X141907619Y-71969363D01*
X141985999Y-71979682D01*
X141986000Y-71979682D01*
X141986001Y-71979682D01*
X142038254Y-71972802D01*
X142142762Y-71959044D01*
X142288841Y-71898536D01*
X142414282Y-71802282D01*
X142510536Y-71676841D01*
X142571044Y-71530762D01*
X142591682Y-71374000D01*
X142576698Y-71260184D01*
X142587464Y-71191150D01*
X142633844Y-71138894D01*
X142699637Y-71120000D01*
X163270638Y-71120000D01*
X163337677Y-71139685D01*
X163358319Y-71156319D01*
X164935921Y-72733921D01*
X164969406Y-72795244D01*
X164964422Y-72864936D01*
X164922550Y-72920869D01*
X164889195Y-72938643D01*
X164772313Y-72979542D01*
X164772302Y-72979547D01*
X164629115Y-73069518D01*
X164629109Y-73069523D01*
X164552681Y-73145952D01*
X164491358Y-73179437D01*
X164421666Y-73174453D01*
X164377319Y-73145952D01*
X164300890Y-73069523D01*
X164300884Y-73069518D01*
X164157697Y-72979547D01*
X164157694Y-72979545D01*
X163998056Y-72923685D01*
X163830003Y-72904751D01*
X163829997Y-72904751D01*
X163661943Y-72923685D01*
X163502305Y-72979545D01*
X163502302Y-72979547D01*
X163359115Y-73069518D01*
X163359109Y-73069523D01*
X163282681Y-73145952D01*
X163221358Y-73179437D01*
X163151666Y-73174453D01*
X163107319Y-73145952D01*
X163030890Y-73069523D01*
X163030884Y-73069518D01*
X162887697Y-72979547D01*
X162887694Y-72979545D01*
X162728056Y-72923685D01*
X162560003Y-72904751D01*
X162559997Y-72904751D01*
X162391943Y-72923685D01*
X162232305Y-72979545D01*
X162232302Y-72979547D01*
X162089115Y-73069518D01*
X162089109Y-73069523D01*
X162012681Y-73145952D01*
X161951358Y-73179437D01*
X161881666Y-73174453D01*
X161837319Y-73145952D01*
X161760890Y-73069523D01*
X161760884Y-73069518D01*
X161617697Y-72979547D01*
X161617694Y-72979545D01*
X161458056Y-72923685D01*
X161290003Y-72904751D01*
X161289997Y-72904751D01*
X161121943Y-72923685D01*
X160962305Y-72979545D01*
X160962302Y-72979547D01*
X160819115Y-73069518D01*
X160819109Y-73069523D01*
X160742681Y-73145952D01*
X160681358Y-73179437D01*
X160611666Y-73174453D01*
X160567319Y-73145952D01*
X160490890Y-73069523D01*
X160490884Y-73069518D01*
X160347697Y-72979547D01*
X160347694Y-72979545D01*
X160188056Y-72923685D01*
X160020003Y-72904751D01*
X160019997Y-72904751D01*
X159851943Y-72923685D01*
X159692305Y-72979545D01*
X159692302Y-72979547D01*
X159549115Y-73069518D01*
X159549109Y-73069523D01*
X159429524Y-73189108D01*
X159425178Y-73194558D01*
X159424929Y-73194359D01*
X159413728Y-73208402D01*
X159022607Y-73599523D01*
X158983134Y-73504225D01*
X158905775Y-73426866D01*
X158810476Y-73387392D01*
X159235666Y-72962200D01*
X159235666Y-72962199D01*
X159177345Y-72919826D01*
X159177340Y-72919823D01*
X159014115Y-72847150D01*
X159014110Y-72847148D01*
X158839339Y-72810000D01*
X158660661Y-72810000D01*
X158485889Y-72847148D01*
X158322661Y-72919822D01*
X158264332Y-72962199D01*
X158264332Y-72962200D01*
X158689524Y-73387392D01*
X158594225Y-73426866D01*
X158516866Y-73504225D01*
X158477392Y-73599524D01*
X158115000Y-73237132D01*
X157752607Y-73599524D01*
X157713134Y-73504225D01*
X157635775Y-73426866D01*
X157540476Y-73387392D01*
X157965666Y-72962200D01*
X157965666Y-72962199D01*
X157907345Y-72919826D01*
X157907340Y-72919823D01*
X157744115Y-72847150D01*
X157744110Y-72847148D01*
X157569339Y-72810000D01*
X157390661Y-72810000D01*
X157215889Y-72847148D01*
X157052661Y-72919822D01*
X156994332Y-72962199D01*
X156994332Y-72962200D01*
X157419524Y-73387392D01*
X157324225Y-73426866D01*
X157246866Y-73504225D01*
X157207392Y-73599524D01*
X156845000Y-73237132D01*
X156482607Y-73599524D01*
X156443134Y-73504225D01*
X156365775Y-73426866D01*
X156270476Y-73387392D01*
X156695666Y-72962200D01*
X156695666Y-72962199D01*
X156637345Y-72919826D01*
X156637340Y-72919823D01*
X156474115Y-72847150D01*
X156474110Y-72847148D01*
X156299339Y-72810000D01*
X156120661Y-72810000D01*
X155945889Y-72847148D01*
X155782661Y-72919822D01*
X155724332Y-72962199D01*
X155724332Y-72962200D01*
X156149524Y-73387392D01*
X156054225Y-73426866D01*
X155976866Y-73504225D01*
X155937392Y-73599524D01*
X155575000Y-73237132D01*
X155212607Y-73599524D01*
X155173134Y-73504225D01*
X155095775Y-73426866D01*
X155000476Y-73387392D01*
X155425666Y-72962200D01*
X155425666Y-72962199D01*
X155367345Y-72919826D01*
X155367340Y-72919823D01*
X155204115Y-72847150D01*
X155204110Y-72847148D01*
X155029339Y-72810000D01*
X154850661Y-72810000D01*
X154675889Y-72847148D01*
X154512661Y-72919822D01*
X154454332Y-72962199D01*
X154454332Y-72962200D01*
X154879524Y-73387392D01*
X154784225Y-73426866D01*
X154706866Y-73504225D01*
X154667392Y-73599524D01*
X154305000Y-73237132D01*
X153942607Y-73599524D01*
X153903134Y-73504225D01*
X153825775Y-73426866D01*
X153730476Y-73387392D01*
X154155666Y-72962200D01*
X154155666Y-72962199D01*
X154097345Y-72919826D01*
X154097340Y-72919823D01*
X153934115Y-72847150D01*
X153934110Y-72847148D01*
X153759339Y-72810000D01*
X153580661Y-72810000D01*
X153405889Y-72847148D01*
X153242661Y-72919822D01*
X153184332Y-72962199D01*
X153184332Y-72962200D01*
X153609524Y-73387392D01*
X153514225Y-73426866D01*
X153436866Y-73504225D01*
X153397392Y-73599524D01*
X153035000Y-73237132D01*
X152672607Y-73599524D01*
X152633134Y-73504225D01*
X152555775Y-73426866D01*
X152460476Y-73387392D01*
X152885666Y-72962200D01*
X152885666Y-72962199D01*
X152827345Y-72919826D01*
X152827340Y-72919823D01*
X152664115Y-72847150D01*
X152664110Y-72847148D01*
X152489339Y-72810000D01*
X152310661Y-72810000D01*
X152135889Y-72847148D01*
X151972661Y-72919822D01*
X151914332Y-72962199D01*
X151914332Y-72962200D01*
X152339524Y-73387392D01*
X152244225Y-73426866D01*
X152166866Y-73504225D01*
X152127392Y-73599524D01*
X151736273Y-73208405D01*
X151725068Y-73194353D01*
X151724818Y-73194553D01*
X151720480Y-73189113D01*
X151677318Y-73145951D01*
X151600890Y-73069523D01*
X151600887Y-73069521D01*
X151600886Y-73069520D01*
X151600884Y-73069518D01*
X151457697Y-72979547D01*
X151457694Y-72979545D01*
X151298056Y-72923685D01*
X151130003Y-72904751D01*
X151129997Y-72904751D01*
X150961943Y-72923685D01*
X150802305Y-72979545D01*
X150802302Y-72979547D01*
X150659115Y-73069518D01*
X150659109Y-73069523D01*
X150582681Y-73145952D01*
X150521358Y-73179437D01*
X150451666Y-73174453D01*
X150407319Y-73145952D01*
X150330890Y-73069523D01*
X150330884Y-73069518D01*
X150187697Y-72979547D01*
X150187694Y-72979545D01*
X150028056Y-72923685D01*
X149860003Y-72904751D01*
X149859997Y-72904751D01*
X149691943Y-72923685D01*
X149532305Y-72979545D01*
X149532302Y-72979547D01*
X149389115Y-73069518D01*
X149389109Y-73069523D01*
X149269524Y-73189108D01*
X149265178Y-73194558D01*
X149264929Y-73194359D01*
X149253728Y-73208402D01*
X148862607Y-73599523D01*
X148823134Y-73504225D01*
X148745775Y-73426866D01*
X148650476Y-73387392D01*
X149075666Y-72962200D01*
X149075666Y-72962199D01*
X149017345Y-72919826D01*
X149017340Y-72919823D01*
X148854115Y-72847150D01*
X148854110Y-72847148D01*
X148679339Y-72810000D01*
X148500661Y-72810000D01*
X148325889Y-72847148D01*
X148162661Y-72919822D01*
X148104332Y-72962199D01*
X148104332Y-72962200D01*
X148529524Y-73387392D01*
X148434225Y-73426866D01*
X148356866Y-73504225D01*
X148317392Y-73599524D01*
X147926273Y-73208405D01*
X147915068Y-73194353D01*
X147914818Y-73194553D01*
X147910480Y-73189113D01*
X147867318Y-73145951D01*
X147790890Y-73069523D01*
X147790887Y-73069521D01*
X147790886Y-73069520D01*
X147790884Y-73069518D01*
X147647697Y-72979547D01*
X147647694Y-72979545D01*
X147488056Y-72923685D01*
X147320003Y-72904751D01*
X147319997Y-72904751D01*
X147151943Y-72923685D01*
X146992305Y-72979545D01*
X146992302Y-72979547D01*
X146849115Y-73069518D01*
X146849109Y-73069523D01*
X146772681Y-73145952D01*
X146711358Y-73179437D01*
X146641666Y-73174453D01*
X146597319Y-73145952D01*
X146520890Y-73069523D01*
X146520884Y-73069518D01*
X146377697Y-72979547D01*
X146377694Y-72979545D01*
X146218056Y-72923685D01*
X146050003Y-72904751D01*
X146049997Y-72904751D01*
X145881943Y-72923685D01*
X145722305Y-72979545D01*
X145722302Y-72979547D01*
X145579115Y-73069518D01*
X145579109Y-73069523D01*
X145502681Y-73145952D01*
X145441358Y-73179437D01*
X145371666Y-73174453D01*
X145327319Y-73145952D01*
X145250890Y-73069523D01*
X145250884Y-73069518D01*
X145107697Y-72979547D01*
X145107694Y-72979545D01*
X144948056Y-72923685D01*
X144780003Y-72904751D01*
X144779997Y-72904751D01*
X144611943Y-72923685D01*
X144452305Y-72979545D01*
X144452302Y-72979547D01*
X144309115Y-73069518D01*
X144309109Y-73069523D01*
X144232681Y-73145952D01*
X144171358Y-73179437D01*
X144101666Y-73174453D01*
X144057319Y-73145952D01*
X143980890Y-73069523D01*
X143980884Y-73069518D01*
X143837697Y-72979547D01*
X143837694Y-72979545D01*
X143678056Y-72923685D01*
X143510003Y-72904751D01*
X143509997Y-72904751D01*
X143341943Y-72923685D01*
X143182305Y-72979545D01*
X143182302Y-72979547D01*
X143039115Y-73069518D01*
X143039109Y-73069523D01*
X142962681Y-73145952D01*
X142901358Y-73179437D01*
X142831666Y-73174453D01*
X142787319Y-73145952D01*
X142710890Y-73069523D01*
X142710884Y-73069518D01*
X142567697Y-72979547D01*
X142567694Y-72979545D01*
X142408056Y-72923685D01*
X142240003Y-72904751D01*
X142239997Y-72904751D01*
X142071943Y-72923685D01*
X141912305Y-72979545D01*
X141912302Y-72979547D01*
X141769115Y-73069518D01*
X141769109Y-73069523D01*
X141692681Y-73145952D01*
X141631358Y-73179437D01*
X141561666Y-73174453D01*
X141517319Y-73145952D01*
X141440890Y-73069523D01*
X141440884Y-73069518D01*
X141297697Y-72979547D01*
X141297694Y-72979545D01*
X141138056Y-72923685D01*
X140970003Y-72904751D01*
X140969997Y-72904751D01*
X140801943Y-72923685D01*
X140642305Y-72979545D01*
X140642302Y-72979547D01*
X140499115Y-73069518D01*
X140499109Y-73069523D01*
X140422681Y-73145952D01*
X140361358Y-73179437D01*
X140291666Y-73174453D01*
X140247319Y-73145952D01*
X140170890Y-73069523D01*
X140170884Y-73069518D01*
X140027697Y-72979547D01*
X140027694Y-72979545D01*
X139868056Y-72923685D01*
X139700003Y-72904751D01*
X139699997Y-72904751D01*
X139531943Y-72923685D01*
X139372305Y-72979545D01*
X139372302Y-72979547D01*
X139229115Y-73069518D01*
X139229109Y-73069523D01*
X139152681Y-73145952D01*
X139091358Y-73179437D01*
X139021666Y-73174453D01*
X138977319Y-73145952D01*
X138900890Y-73069523D01*
X138900887Y-73069521D01*
X138813527Y-73014628D01*
X138767236Y-72962293D01*
X138755500Y-72909635D01*
X138755500Y-72173500D01*
X138775185Y-72106461D01*
X138827989Y-72060706D01*
X138879500Y-72049500D01*
X139344260Y-72049500D01*
X139373849Y-72046725D01*
X139379670Y-72044688D01*
X139498475Y-72003116D01*
X139604711Y-71924711D01*
X139683116Y-71818475D01*
X139726725Y-71693849D01*
X139729500Y-71664256D01*
X139729500Y-71244000D01*
X139749185Y-71176961D01*
X139801989Y-71131206D01*
X139853500Y-71120000D01*
X140054500Y-71120000D01*
X140121539Y-71139685D01*
G37*
%TD.AperFunction*%
%TD*%
M02*
