%TF.GenerationSoftware,KiCad,Pcbnew,7.99.0-3539-g7abe2e3ea0*%
%TF.CreationDate,2023-11-11T22:30:26+01:00*%
%TF.ProjectId,KS100,4b533130-302e-46b6-9963-61645f706362,rev?*%
%TF.SameCoordinates,Original*%
%TF.FileFunction,Copper,L2,Bot*%
%TF.FilePolarity,Positive*%
%FSLAX46Y46*%
G04 Gerber Fmt 4.6, Leading zero omitted, Abs format (unit mm)*
G04 Created by KiCad (PCBNEW 7.99.0-3539-g7abe2e3ea0) date 2023-11-11 22:30:26*
%MOMM*%
%LPD*%
G01*
G04 APERTURE LIST*
%TA.AperFunction,ComponentPad*%
%ADD10R,2.250000X2.250000*%
%TD*%
%TA.AperFunction,ComponentPad*%
%ADD11C,2.250000*%
%TD*%
%TA.AperFunction,ComponentPad*%
%ADD12R,0.850000X0.850000*%
%TD*%
%TA.AperFunction,ComponentPad*%
%ADD13O,0.850000X0.850000*%
%TD*%
%TA.AperFunction,ComponentPad*%
%ADD14R,1.350000X1.350000*%
%TD*%
%TA.AperFunction,ComponentPad*%
%ADD15O,1.350000X1.350000*%
%TD*%
%TA.AperFunction,ComponentPad*%
%ADD16C,1.100000*%
%TD*%
%TA.AperFunction,ViaPad*%
%ADD17C,0.800000*%
%TD*%
%TA.AperFunction,Conductor*%
%ADD18C,0.250000*%
%TD*%
%TA.AperFunction,Conductor*%
%ADD19C,0.300000*%
%TD*%
G04 APERTURE END LIST*
D10*
%TO.P,SW28,1,1*%
%TO.N,/Calculator/X6*%
X171450000Y-128270000D03*
D11*
%TO.P,SW28,2,2*%
%TO.N,/Calculator/Y3*%
X177950000Y-128270000D03*
%TD*%
D10*
%TO.P,SW10,1,1*%
%TO.N,/Calculator/X2*%
X130810000Y-143510000D03*
D11*
%TO.P,SW10,2,2*%
%TO.N,/Calculator/Y5*%
X137310000Y-143510000D03*
%TD*%
D10*
%TO.P,SW27,1,1*%
%TO.N,/Calculator/X6*%
X171450000Y-120650000D03*
D11*
%TO.P,SW27,2,2*%
%TO.N,/Calculator/Y2*%
X177950000Y-120650000D03*
%TD*%
D10*
%TO.P,SW11,1,1*%
%TO.N,/Calculator/X3*%
X140970000Y-113030000D03*
D11*
%TO.P,SW11,2,2*%
%TO.N,/Calculator/Y1*%
X147470000Y-113030000D03*
%TD*%
D10*
%TO.P,SW7,1,1*%
%TO.N,/Calculator/X2*%
X130810000Y-120650000D03*
D11*
%TO.P,SW7,2,2*%
%TO.N,/Calculator/Y2*%
X137310000Y-120650000D03*
%TD*%
D10*
%TO.P,SW15,1,1*%
%TO.N,/Calculator/X3*%
X140970000Y-143510000D03*
D11*
%TO.P,SW15,2,2*%
%TO.N,/Calculator/Y5*%
X147470000Y-143510000D03*
%TD*%
D10*
%TO.P,SW24,1,1*%
%TO.N,/Calculator/X5*%
X161290000Y-135890000D03*
D11*
%TO.P,SW24,2,2*%
%TO.N,/Calculator/Y4*%
X167790000Y-135890000D03*
%TD*%
D10*
%TO.P,SW6,1,1*%
%TO.N,/Calculator/X2*%
X130810000Y-113030000D03*
D11*
%TO.P,SW6,2,2*%
%TO.N,/Calculator/Y1*%
X137310000Y-113030000D03*
%TD*%
D10*
%TO.P,SW12,1,1*%
%TO.N,/Calculator/X3*%
X140970000Y-120650000D03*
D11*
%TO.P,SW12,2,2*%
%TO.N,/Calculator/Y2*%
X147470000Y-120650000D03*
%TD*%
D10*
%TO.P,SW3,1,1*%
%TO.N,/Calculator/X1*%
X119940000Y-128270000D03*
D11*
%TO.P,SW3,2,2*%
%TO.N,/Calculator/Y3*%
X126440000Y-128270000D03*
%TD*%
D10*
%TO.P,SW14,1,1*%
%TO.N,/Calculator/X3*%
X140970000Y-135890000D03*
D11*
%TO.P,SW14,2,2*%
%TO.N,/Calculator/Y4*%
X147470000Y-135890000D03*
%TD*%
D12*
%TO.P,J2,1,Pin_1*%
%TO.N,/Calculator/NRST*%
X147415000Y-108585000D03*
D13*
%TO.P,J2,2,Pin_2*%
%TO.N,/Calculator/SWCLK*%
X146415000Y-108585000D03*
%TO.P,J2,3,Pin_3*%
%TO.N,/Calculator/SWDIO*%
X145415000Y-108585000D03*
%TO.P,J2,4,Pin_4*%
%TO.N,GND*%
X144415000Y-108585000D03*
%TD*%
D10*
%TO.P,SW4,1,1*%
%TO.N,/Calculator/X1*%
X119940000Y-135890000D03*
D11*
%TO.P,SW4,2,2*%
%TO.N,/Calculator/Y4*%
X126440000Y-135890000D03*
%TD*%
D10*
%TO.P,SW23,1,1*%
%TO.N,/Calculator/X5*%
X161290000Y-128270000D03*
D11*
%TO.P,SW23,2,2*%
%TO.N,/Calculator/Y3*%
X167790000Y-128270000D03*
%TD*%
D10*
%TO.P,SW19,1,1*%
%TO.N,/Calculator/X4*%
X151130000Y-135890000D03*
D11*
%TO.P,SW19,2,2*%
%TO.N,/Calculator/Y4*%
X157630000Y-135890000D03*
%TD*%
D10*
%TO.P,SW26,1,1*%
%TO.N,/Calculator/X6*%
X171450000Y-113030000D03*
D11*
%TO.P,SW26,2,2*%
%TO.N,/Calculator/Y1*%
X177950000Y-113030000D03*
%TD*%
D10*
%TO.P,SW29,1,1*%
%TO.N,/Calculator/X6*%
X171450000Y-135890000D03*
D11*
%TO.P,SW29,2,2*%
%TO.N,/Calculator/Y4*%
X177950000Y-135890000D03*
%TD*%
D10*
%TO.P,SW1,1,1*%
%TO.N,/Calculator/X1*%
X119940000Y-113030000D03*
D11*
%TO.P,SW1,2,2*%
%TO.N,/Calculator/Y1*%
X126440000Y-113030000D03*
%TD*%
D14*
%TO.P,J1,1,Pin_1*%
%TO.N,+BATT*%
X113030000Y-98790000D03*
D15*
%TO.P,J1,2,Pin_2*%
%TO.N,GND*%
X113030000Y-96790000D03*
%TD*%
D10*
%TO.P,SW30,1,1*%
%TO.N,/Calculator/X6*%
X171450000Y-143510000D03*
D11*
%TO.P,SW30,2,2*%
%TO.N,/Calculator/Y5*%
X177950000Y-143510000D03*
%TD*%
D10*
%TO.P,SW25,1,1*%
%TO.N,/Calculator/X5*%
X161290000Y-143510000D03*
D11*
%TO.P,SW25,2,2*%
%TO.N,/Calculator/Y5*%
X167790000Y-143510000D03*
%TD*%
D10*
%TO.P,SW5,1,1*%
%TO.N,/Calculator/X1*%
X119940000Y-142875000D03*
D11*
%TO.P,SW5,2,2*%
%TO.N,/Calculator/Y5*%
X126440000Y-142875000D03*
%TD*%
D16*
%TO.P,J3,1,Pin_1*%
%TO.N,/Calculator/NCS*%
X165100000Y-73660000D03*
%TO.P,J3,2,Pin_2*%
%TO.N,/Calculator/LCD_RST*%
X163830000Y-73660000D03*
%TO.P,J3,3,Pin_3*%
%TO.N,/Calculator/A0*%
X162560000Y-73660000D03*
%TO.P,J3,4,Pin_4*%
%TO.N,/Calculator/WR*%
X161290000Y-73660000D03*
%TO.P,J3,5,Pin_5*%
%TO.N,/Calculator/RD*%
X160020000Y-73660000D03*
%TO.P,J3,6,Pin_6*%
%TO.N,+BATT*%
X158750000Y-73660000D03*
%TO.P,J3,7,Pin_7*%
X157480000Y-73660000D03*
%TO.P,J3,8,Pin_8*%
X156210000Y-73660000D03*
%TO.P,J3,9,Pin_9*%
X154940000Y-73660000D03*
%TO.P,J3,10,Pin_10*%
X153670000Y-73660000D03*
%TO.P,J3,11,Pin_11*%
X152400000Y-73660000D03*
%TO.P,J3,12,Pin_12*%
%TO.N,/Calculator/SCL*%
X151130000Y-73660000D03*
%TO.P,J3,13,Pin_13*%
%TO.N,/Calculator/SI*%
X149860000Y-73660000D03*
%TO.P,J3,14,Pin_14*%
%TO.N,+BATT*%
X148590000Y-73660000D03*
%TO.P,J3,15,Pin_15*%
%TO.N,GND*%
X147320000Y-73660000D03*
%TO.P,J3,16,Pin_16*%
%TO.N,Net-(J3-Pin_16)*%
X146050000Y-73660000D03*
%TO.P,J3,17,Pin_17*%
%TO.N,Net-(J3-Pin_17)*%
X144780000Y-73660000D03*
%TO.P,J3,18,Pin_18*%
%TO.N,Net-(J3-Pin_18)*%
X143510000Y-73660000D03*
%TO.P,J3,19,Pin_19*%
%TO.N,Net-(J3-Pin_19)*%
X142240000Y-73660000D03*
%TO.P,J3,20,Pin_20*%
%TO.N,Net-(J3-Pin_20)*%
X140970000Y-73660000D03*
%TO.P,J3,21,Pin_21*%
%TO.N,Net-(J3-Pin_21)*%
X139700000Y-73660000D03*
%TO.P,J3,22,Pin_22*%
%TO.N,Net-(J3-Pin_22)*%
X138430000Y-73660000D03*
%TO.P,J3,23,Pin_23*%
%TO.N,Net-(J3-Pin_23)*%
X137160000Y-73660000D03*
%TO.P,J3,24,Pin_24*%
%TO.N,Net-(J3-Pin_24)*%
X135890000Y-73660000D03*
%TO.P,J3,25,Pin_25*%
%TO.N,Net-(J3-Pin_25)*%
X134620000Y-73660000D03*
%TO.P,J3,26,Pin_26*%
%TO.N,Net-(J3-Pin_26)*%
X133350000Y-73660000D03*
%TO.P,J3,27,Pin_27*%
%TO.N,/Calculator/C86*%
X132080000Y-73660000D03*
%TO.P,J3,28,Pin_28*%
%TO.N,GND*%
X130810000Y-73660000D03*
%TD*%
D10*
%TO.P,SW21,1,1*%
%TO.N,/Calculator/X5*%
X161290000Y-113030000D03*
D11*
%TO.P,SW21,2,2*%
%TO.N,/Calculator/Y1*%
X167790000Y-113030000D03*
%TD*%
D10*
%TO.P,SW17,1,1*%
%TO.N,/Calculator/X4*%
X151130000Y-120650000D03*
D11*
%TO.P,SW17,2,2*%
%TO.N,/Calculator/Y2*%
X157630000Y-120650000D03*
%TD*%
D10*
%TO.P,SW22,1,1*%
%TO.N,/Calculator/X5*%
X161290000Y-120650000D03*
D11*
%TO.P,SW22,2,2*%
%TO.N,/Calculator/Y2*%
X167790000Y-120650000D03*
%TD*%
D10*
%TO.P,SW18,1,1*%
%TO.N,/Calculator/X4*%
X151130000Y-128270000D03*
D11*
%TO.P,SW18,2,2*%
%TO.N,/Calculator/Y3*%
X157630000Y-128270000D03*
%TD*%
D10*
%TO.P,SW16,1,1*%
%TO.N,/Calculator/X4*%
X151130000Y-113030000D03*
D11*
%TO.P,SW16,2,2*%
%TO.N,/Calculator/Y1*%
X157630000Y-113030000D03*
%TD*%
D10*
%TO.P,SW2,1,1*%
%TO.N,/Calculator/X1*%
X119940000Y-120650000D03*
D11*
%TO.P,SW2,2,2*%
%TO.N,/Calculator/Y2*%
X126440000Y-120650000D03*
%TD*%
D10*
%TO.P,SW13,1,1*%
%TO.N,/Calculator/X3*%
X140970000Y-128270000D03*
D11*
%TO.P,SW13,2,2*%
%TO.N,/Calculator/Y3*%
X147470000Y-128270000D03*
%TD*%
D10*
%TO.P,SW20,1,1*%
%TO.N,/Calculator/X4*%
X151130000Y-143510000D03*
D11*
%TO.P,SW20,2,2*%
%TO.N,/Calculator/Y5*%
X157630000Y-143510000D03*
%TD*%
D10*
%TO.P,SW31,1,1*%
%TO.N,GND*%
X142782000Y-86310000D03*
D11*
%TO.P,SW31,2,2*%
%TO.N,/Calculator/NRST*%
X149282000Y-86310000D03*
%TD*%
D10*
%TO.P,SW9,1,1*%
%TO.N,/Calculator/X2*%
X130810000Y-135890000D03*
D11*
%TO.P,SW9,2,2*%
%TO.N,/Calculator/Y4*%
X137310000Y-135890000D03*
%TD*%
D10*
%TO.P,SW8,1,1*%
%TO.N,/Calculator/X2*%
X130810000Y-128270000D03*
D11*
%TO.P,SW8,2,2*%
%TO.N,/Calculator/Y3*%
X137310000Y-128270000D03*
%TD*%
D17*
%TO.N,/Calculator/NCS*%
X148522500Y-94615000D03*
%TO.N,/Calculator/LCD_RST*%
X149224664Y-91321500D03*
%TO.N,/Calculator/RD*%
X149987000Y-95885000D03*
%TO.N,/Calculator/WR*%
X150368000Y-94742000D03*
%TO.N,/Calculator/A0*%
X150749000Y-91059000D03*
%TO.N,unconnected-(U1-PA2-Pad16)*%
X144018000Y-94615000D03*
%TO.N,/Calculator/C86*%
X132334000Y-97282000D03*
X132334000Y-88138000D03*
%TO.N,/Calculator/NCS*%
X165100000Y-94742000D03*
%TO.N,GND*%
X149479000Y-76327000D03*
X147320000Y-88900000D03*
X142839701Y-101400500D03*
X137160000Y-94615000D03*
X159893000Y-97155000D03*
X147955000Y-106590500D03*
X141986000Y-71374000D03*
X156210000Y-94615000D03*
%TO.N,/Calculator/LCD_RST*%
X163703000Y-88519000D03*
%TO.N,/Calculator/WR*%
X161290000Y-91313000D03*
%TO.N,/Calculator/SCL*%
X143637000Y-116078000D03*
%TO.N,/Calculator/A0*%
X162560000Y-89916000D03*
%TO.N,/Calculator/RD*%
X160020000Y-94615000D03*
%TO.N,/Calculator/SI*%
X145798000Y-94107000D03*
%TD*%
D18*
%TO.N,/Calculator/RD*%
X156845000Y-95885000D02*
X149987000Y-95885000D01*
X158115000Y-94615000D02*
X156845000Y-95885000D01*
X160020000Y-94615000D02*
X158115000Y-94615000D01*
%TO.N,/Calculator/NCS*%
X161280695Y-94742000D02*
X165100000Y-94742000D01*
X159316848Y-96705847D02*
X161280695Y-94742000D01*
X149782542Y-96705847D02*
X159316848Y-96705847D01*
X148522500Y-95445805D02*
X149782542Y-96705847D01*
X148522500Y-94615000D02*
X148522500Y-95445805D01*
%TO.N,/Calculator/LCD_RST*%
X152027164Y-88519000D02*
X149224664Y-91321500D01*
X163703000Y-88519000D02*
X152027164Y-88519000D01*
%TO.N,/Calculator/WR*%
X150368000Y-94742000D02*
X152908000Y-92202000D01*
X152908000Y-92202000D02*
X160401000Y-92202000D01*
X160401000Y-92202000D02*
X161290000Y-91313000D01*
%TO.N,/Calculator/A0*%
X155130500Y-91059000D02*
X150749000Y-91059000D01*
X156273500Y-89916000D02*
X155130500Y-91059000D01*
X162560000Y-89916000D02*
X156273500Y-89916000D01*
%TO.N,/Calculator/SI*%
X150204000Y-78269000D02*
X150204000Y-74004000D01*
X145796000Y-94105000D02*
X145796000Y-82677000D01*
X145798000Y-94107000D02*
X145796000Y-94105000D01*
X150204000Y-74004000D02*
X149860000Y-73660000D01*
X145796000Y-82677000D02*
X150204000Y-78269000D01*
%TO.N,/Calculator/C86*%
X132334000Y-88138000D02*
X132334000Y-97282000D01*
D19*
%TO.N,/Calculator/Y2*%
X165250000Y-123190000D02*
X167790000Y-120650000D01*
X126440000Y-120650000D02*
X127915000Y-119175000D01*
X137310000Y-120650000D02*
X139850000Y-123190000D01*
X148945000Y-119175000D02*
X156155000Y-119175000D01*
X127915000Y-119175000D02*
X135835000Y-119175000D01*
X144930000Y-123190000D02*
X147470000Y-120650000D01*
X160170000Y-123190000D02*
X165250000Y-123190000D01*
X147470000Y-120650000D02*
X148945000Y-119175000D01*
X157630000Y-120650000D02*
X160170000Y-123190000D01*
X139850000Y-123190000D02*
X144930000Y-123190000D01*
X135835000Y-119175000D02*
X137310000Y-120650000D01*
X167790000Y-120650000D02*
X170330000Y-118110000D01*
X170330000Y-118110000D02*
X175410000Y-118110000D01*
X156155000Y-119175000D02*
X157630000Y-120650000D01*
X175410000Y-118110000D02*
X177950000Y-120650000D01*
%TO.N,/Calculator/Y3*%
X157630000Y-128270000D02*
X155090000Y-125730000D01*
X138785000Y-129745000D02*
X137310000Y-128270000D01*
X137310000Y-128270000D02*
X134770000Y-125730000D01*
X169265000Y-126795000D02*
X176475000Y-126795000D01*
X167790000Y-128270000D02*
X169265000Y-126795000D01*
X159105000Y-129745000D02*
X157630000Y-128270000D01*
X145995000Y-129745000D02*
X138785000Y-129745000D01*
X166315000Y-129745000D02*
X159105000Y-129745000D01*
X176475000Y-126795000D02*
X177950000Y-128270000D01*
X147470000Y-128270000D02*
X145995000Y-129745000D01*
X167790000Y-128270000D02*
X166315000Y-129745000D01*
X155090000Y-125730000D02*
X150010000Y-125730000D01*
X134770000Y-125730000D02*
X128980000Y-125730000D01*
X150010000Y-125730000D02*
X147470000Y-128270000D01*
X128980000Y-125730000D02*
X126440000Y-128270000D01*
%TO.N,/Calculator/Y4*%
X128980000Y-133350000D02*
X134770000Y-133350000D01*
X157630000Y-135890000D02*
X160170000Y-138430000D01*
X139850000Y-138430000D02*
X144930000Y-138430000D01*
X155090000Y-133350000D02*
X157630000Y-135890000D01*
X134770000Y-133350000D02*
X137310000Y-135890000D01*
X167790000Y-135890000D02*
X169265000Y-134415000D01*
X126440000Y-135890000D02*
X128980000Y-133350000D01*
X144930000Y-138430000D02*
X147470000Y-135890000D01*
X165250000Y-138430000D02*
X167790000Y-135890000D01*
X176475000Y-134415000D02*
X177950000Y-135890000D01*
X137310000Y-135890000D02*
X139850000Y-138430000D01*
X147470000Y-135890000D02*
X150010000Y-133350000D01*
X169265000Y-134415000D02*
X176475000Y-134415000D01*
X150010000Y-133350000D02*
X155090000Y-133350000D01*
X160170000Y-138430000D02*
X165250000Y-138430000D01*
%TO.N,/Calculator/Y5*%
X145995000Y-144985000D02*
X138785000Y-144985000D01*
X155090000Y-140970000D02*
X150010000Y-140970000D01*
X147470000Y-143510000D02*
X145995000Y-144985000D01*
X138785000Y-144985000D02*
X137310000Y-143510000D01*
X157630000Y-143510000D02*
X155090000Y-140970000D01*
X150010000Y-140970000D02*
X147470000Y-143510000D01*
X176475000Y-142035000D02*
X177950000Y-143510000D01*
X135550000Y-141750000D02*
X137310000Y-143510000D01*
X167790000Y-143510000D02*
X169265000Y-142035000D01*
X166315000Y-144985000D02*
X159105000Y-144985000D01*
X126440000Y-142875000D02*
X127565000Y-141750000D01*
X127565000Y-141750000D02*
X135550000Y-141750000D01*
X169265000Y-142035000D02*
X176475000Y-142035000D01*
X167790000Y-143510000D02*
X166315000Y-144985000D01*
X159105000Y-144985000D02*
X157630000Y-143510000D01*
%TO.N,/Calculator/Y1*%
X148945000Y-114505000D02*
X147470000Y-113030000D01*
X177950000Y-113030000D02*
X176475000Y-114505000D01*
X127915000Y-114505000D02*
X126440000Y-113030000D01*
X165250000Y-110490000D02*
X160170000Y-110490000D01*
X139850000Y-110490000D02*
X144930000Y-110490000D01*
X167790000Y-113030000D02*
X165250000Y-110490000D01*
X169265000Y-114505000D02*
X167790000Y-113030000D01*
X135835000Y-114505000D02*
X127915000Y-114505000D01*
X137310000Y-113030000D02*
X139850000Y-110490000D01*
X157630000Y-113030000D02*
X156155000Y-114505000D01*
X176475000Y-114505000D02*
X169265000Y-114505000D01*
X144930000Y-110490000D02*
X147470000Y-113030000D01*
X156155000Y-114505000D02*
X148945000Y-114505000D01*
X160170000Y-110490000D02*
X157630000Y-113030000D01*
X137310000Y-113030000D02*
X135835000Y-114505000D01*
D18*
%TO.N,/Calculator/SCL*%
X173863000Y-70993000D02*
X152781000Y-70993000D01*
X184531000Y-110617000D02*
X184531000Y-81661000D01*
X151130000Y-72644000D02*
X151130000Y-73660000D01*
X143637000Y-116078000D02*
X179070000Y-116078000D01*
X179070000Y-116078000D02*
X184531000Y-110617000D01*
X184531000Y-81661000D02*
X173863000Y-70993000D01*
X152781000Y-70993000D02*
X151130000Y-72644000D01*
%TD*%
%TA.AperFunction,Conductor*%
%TO.N,GND*%
G36*
X152172085Y-70504685D02*
G01*
X152217840Y-70557489D01*
X152227784Y-70626647D01*
X152198759Y-70690203D01*
X152192727Y-70696681D01*
X150731269Y-72158140D01*
X150644144Y-72245264D01*
X150644138Y-72245272D01*
X150575692Y-72347705D01*
X150575685Y-72347719D01*
X150555213Y-72397146D01*
X150548564Y-72413199D01*
X150542347Y-72428208D01*
X150528538Y-72461545D01*
X150528535Y-72461553D01*
X150504500Y-72582389D01*
X150504500Y-72606460D01*
X150484815Y-72673499D01*
X150432011Y-72719254D01*
X150362853Y-72729198D01*
X150322048Y-72715819D01*
X150263957Y-72684769D01*
X150263954Y-72684768D01*
X150065934Y-72624700D01*
X150065932Y-72624699D01*
X150065934Y-72624699D01*
X149860000Y-72604417D01*
X149654067Y-72624699D01*
X149456041Y-72684769D01*
X149283453Y-72777020D01*
X149215050Y-72791262D01*
X149166547Y-72777020D01*
X148993958Y-72684769D01*
X148894944Y-72654734D01*
X148795934Y-72624700D01*
X148795932Y-72624699D01*
X148795934Y-72624699D01*
X148590000Y-72604417D01*
X148384067Y-72624699D01*
X148186041Y-72684769D01*
X148012924Y-72777303D01*
X147944521Y-72791545D01*
X147896018Y-72777304D01*
X147723762Y-72685232D01*
X147525834Y-72625191D01*
X147320000Y-72604919D01*
X147114165Y-72625191D01*
X146916237Y-72685232D01*
X146743982Y-72777304D01*
X146675579Y-72791545D01*
X146627076Y-72777303D01*
X146453958Y-72684769D01*
X146354944Y-72654734D01*
X146255934Y-72624700D01*
X146255932Y-72624699D01*
X146255934Y-72624699D01*
X146050000Y-72604417D01*
X145844067Y-72624699D01*
X145646041Y-72684769D01*
X145473453Y-72777020D01*
X145405050Y-72791262D01*
X145356547Y-72777020D01*
X145183958Y-72684769D01*
X145084944Y-72654734D01*
X144985934Y-72624700D01*
X144985932Y-72624699D01*
X144985934Y-72624699D01*
X144780000Y-72604417D01*
X144574067Y-72624699D01*
X144376041Y-72684769D01*
X144203453Y-72777020D01*
X144135050Y-72791262D01*
X144086547Y-72777020D01*
X143913958Y-72684769D01*
X143814944Y-72654734D01*
X143715934Y-72624700D01*
X143715932Y-72624699D01*
X143715934Y-72624699D01*
X143510000Y-72604417D01*
X143304067Y-72624699D01*
X143106041Y-72684769D01*
X142933453Y-72777020D01*
X142865050Y-72791262D01*
X142816547Y-72777020D01*
X142643958Y-72684769D01*
X142544944Y-72654734D01*
X142445934Y-72624700D01*
X142445932Y-72624699D01*
X142445934Y-72624699D01*
X142240000Y-72604417D01*
X142034067Y-72624699D01*
X141836041Y-72684769D01*
X141663453Y-72777020D01*
X141595050Y-72791262D01*
X141546547Y-72777020D01*
X141373958Y-72684769D01*
X141274944Y-72654734D01*
X141175934Y-72624700D01*
X141175932Y-72624699D01*
X141175934Y-72624699D01*
X140970000Y-72604417D01*
X140764067Y-72624699D01*
X140566041Y-72684769D01*
X140393453Y-72777020D01*
X140325050Y-72791262D01*
X140276547Y-72777020D01*
X140103958Y-72684769D01*
X140004944Y-72654734D01*
X139905934Y-72624700D01*
X139905932Y-72624699D01*
X139905934Y-72624699D01*
X139700000Y-72604417D01*
X139494067Y-72624699D01*
X139296041Y-72684769D01*
X139123453Y-72777020D01*
X139055050Y-72791262D01*
X139006547Y-72777020D01*
X138833958Y-72684769D01*
X138734944Y-72654734D01*
X138635934Y-72624700D01*
X138635932Y-72624699D01*
X138635934Y-72624699D01*
X138430000Y-72604417D01*
X138224067Y-72624699D01*
X138026041Y-72684769D01*
X137853453Y-72777020D01*
X137785050Y-72791262D01*
X137736547Y-72777020D01*
X137563958Y-72684769D01*
X137464944Y-72654734D01*
X137365934Y-72624700D01*
X137365932Y-72624699D01*
X137365934Y-72624699D01*
X137160000Y-72604417D01*
X136954067Y-72624699D01*
X136756041Y-72684769D01*
X136583453Y-72777020D01*
X136515050Y-72791262D01*
X136466547Y-72777020D01*
X136293958Y-72684769D01*
X136194944Y-72654734D01*
X136095934Y-72624700D01*
X136095932Y-72624699D01*
X136095934Y-72624699D01*
X135890000Y-72604417D01*
X135684067Y-72624699D01*
X135486041Y-72684769D01*
X135313453Y-72777020D01*
X135245050Y-72791262D01*
X135196547Y-72777020D01*
X135023958Y-72684769D01*
X134924944Y-72654734D01*
X134825934Y-72624700D01*
X134825932Y-72624699D01*
X134825934Y-72624699D01*
X134620000Y-72604417D01*
X134414067Y-72624699D01*
X134216041Y-72684769D01*
X134043453Y-72777020D01*
X133975050Y-72791262D01*
X133926547Y-72777020D01*
X133753958Y-72684769D01*
X133654944Y-72654734D01*
X133555934Y-72624700D01*
X133555932Y-72624699D01*
X133555934Y-72624699D01*
X133350000Y-72604417D01*
X133144067Y-72624699D01*
X132946041Y-72684769D01*
X132773453Y-72777020D01*
X132705050Y-72791262D01*
X132656547Y-72777020D01*
X132483958Y-72684769D01*
X132384944Y-72654734D01*
X132285934Y-72624700D01*
X132285932Y-72624699D01*
X132285934Y-72624699D01*
X132080000Y-72604417D01*
X131874067Y-72624699D01*
X131676041Y-72684769D01*
X131502924Y-72777303D01*
X131434521Y-72791545D01*
X131386018Y-72777304D01*
X131213762Y-72685232D01*
X131015834Y-72625191D01*
X130810000Y-72604919D01*
X130604166Y-72625191D01*
X130406234Y-72685234D01*
X130264529Y-72760975D01*
X130264529Y-72760976D01*
X130905418Y-73401865D01*
X130864701Y-73385000D01*
X130755299Y-73385000D01*
X130654225Y-73426866D01*
X130576866Y-73504225D01*
X130535000Y-73605299D01*
X130535000Y-73714701D01*
X130576866Y-73815775D01*
X130654225Y-73893134D01*
X130755299Y-73935000D01*
X130864701Y-73935000D01*
X130905415Y-73918135D01*
X130264529Y-74559022D01*
X130406235Y-74634766D01*
X130604165Y-74694808D01*
X130810000Y-74715080D01*
X131015834Y-74694808D01*
X131213764Y-74634766D01*
X131386016Y-74542695D01*
X131454419Y-74528453D01*
X131502921Y-74542694D01*
X131676046Y-74635232D01*
X131874066Y-74695300D01*
X131874065Y-74695300D01*
X131892529Y-74697118D01*
X132080000Y-74715583D01*
X132285934Y-74695300D01*
X132483954Y-74635232D01*
X132656548Y-74542977D01*
X132724949Y-74528736D01*
X132773450Y-74542976D01*
X132946046Y-74635232D01*
X133144066Y-74695300D01*
X133144065Y-74695300D01*
X133162529Y-74697118D01*
X133350000Y-74715583D01*
X133555934Y-74695300D01*
X133753954Y-74635232D01*
X133926548Y-74542977D01*
X133994949Y-74528736D01*
X134043450Y-74542976D01*
X134216046Y-74635232D01*
X134414066Y-74695300D01*
X134414065Y-74695300D01*
X134432529Y-74697118D01*
X134620000Y-74715583D01*
X134825934Y-74695300D01*
X135023954Y-74635232D01*
X135196548Y-74542977D01*
X135264949Y-74528736D01*
X135313450Y-74542976D01*
X135486046Y-74635232D01*
X135684066Y-74695300D01*
X135684065Y-74695300D01*
X135702529Y-74697118D01*
X135890000Y-74715583D01*
X136095934Y-74695300D01*
X136293954Y-74635232D01*
X136466548Y-74542977D01*
X136534949Y-74528736D01*
X136583450Y-74542976D01*
X136756046Y-74635232D01*
X136954066Y-74695300D01*
X136954065Y-74695300D01*
X136972529Y-74697118D01*
X137160000Y-74715583D01*
X137365934Y-74695300D01*
X137563954Y-74635232D01*
X137736548Y-74542977D01*
X137804949Y-74528736D01*
X137853450Y-74542976D01*
X138026046Y-74635232D01*
X138224066Y-74695300D01*
X138224065Y-74695300D01*
X138242529Y-74697118D01*
X138430000Y-74715583D01*
X138635934Y-74695300D01*
X138833954Y-74635232D01*
X139006548Y-74542977D01*
X139074949Y-74528736D01*
X139123450Y-74542976D01*
X139296046Y-74635232D01*
X139494066Y-74695300D01*
X139494065Y-74695300D01*
X139512529Y-74697118D01*
X139700000Y-74715583D01*
X139905934Y-74695300D01*
X140103954Y-74635232D01*
X140276548Y-74542977D01*
X140344949Y-74528736D01*
X140393450Y-74542976D01*
X140566046Y-74635232D01*
X140764066Y-74695300D01*
X140764065Y-74695300D01*
X140782529Y-74697118D01*
X140970000Y-74715583D01*
X141175934Y-74695300D01*
X141373954Y-74635232D01*
X141546548Y-74542977D01*
X141614949Y-74528736D01*
X141663450Y-74542976D01*
X141836046Y-74635232D01*
X142034066Y-74695300D01*
X142034065Y-74695300D01*
X142052529Y-74697118D01*
X142240000Y-74715583D01*
X142445934Y-74695300D01*
X142643954Y-74635232D01*
X142816548Y-74542977D01*
X142884949Y-74528736D01*
X142933450Y-74542976D01*
X143106046Y-74635232D01*
X143304066Y-74695300D01*
X143304065Y-74695300D01*
X143322529Y-74697118D01*
X143510000Y-74715583D01*
X143715934Y-74695300D01*
X143913954Y-74635232D01*
X144086548Y-74542977D01*
X144154949Y-74528736D01*
X144203450Y-74542976D01*
X144376046Y-74635232D01*
X144574066Y-74695300D01*
X144574065Y-74695300D01*
X144592529Y-74697118D01*
X144780000Y-74715583D01*
X144985934Y-74695300D01*
X145183954Y-74635232D01*
X145356548Y-74542977D01*
X145424949Y-74528736D01*
X145473450Y-74542976D01*
X145646046Y-74635232D01*
X145844066Y-74695300D01*
X145844065Y-74695300D01*
X145862529Y-74697118D01*
X146050000Y-74715583D01*
X146255934Y-74695300D01*
X146453954Y-74635232D01*
X146627078Y-74542693D01*
X146695476Y-74528453D01*
X146743981Y-74542695D01*
X146916233Y-74634766D01*
X147114165Y-74694808D01*
X147320000Y-74715080D01*
X147525834Y-74694808D01*
X147723764Y-74634766D01*
X147896016Y-74542695D01*
X147964419Y-74528453D01*
X148012921Y-74542694D01*
X148186046Y-74635232D01*
X148384066Y-74695300D01*
X148384065Y-74695300D01*
X148402529Y-74697118D01*
X148590000Y-74715583D01*
X148795934Y-74695300D01*
X148993954Y-74635232D01*
X149166548Y-74542977D01*
X149234949Y-74528736D01*
X149283450Y-74542976D01*
X149456046Y-74635232D01*
X149490497Y-74645682D01*
X149548934Y-74683978D01*
X149577390Y-74747791D01*
X149578500Y-74764342D01*
X149578500Y-77958547D01*
X149558815Y-78025586D01*
X149542181Y-78046228D01*
X145310144Y-82278264D01*
X145310138Y-82278272D01*
X145241692Y-82380705D01*
X145241685Y-82380719D01*
X145208347Y-82461208D01*
X145194538Y-82494545D01*
X145194535Y-82494553D01*
X145170500Y-82615389D01*
X145170500Y-93410534D01*
X145150815Y-93477573D01*
X145138650Y-93493506D01*
X145065466Y-93574785D01*
X144970821Y-93738715D01*
X144970818Y-93738722D01*
X144912326Y-93918742D01*
X144912325Y-93918746D01*
X144909086Y-93949564D01*
X144882501Y-94014178D01*
X144825203Y-94054162D01*
X144755384Y-94056820D01*
X144695211Y-94021310D01*
X144693616Y-94019572D01*
X144688759Y-94014178D01*
X144623871Y-93942112D01*
X144623870Y-93942111D01*
X144470734Y-93830851D01*
X144470729Y-93830848D01*
X144297807Y-93753857D01*
X144297802Y-93753855D01*
X144152001Y-93722865D01*
X144112646Y-93714500D01*
X143923354Y-93714500D01*
X143890897Y-93721398D01*
X143738197Y-93753855D01*
X143738192Y-93753857D01*
X143565270Y-93830848D01*
X143565265Y-93830851D01*
X143412129Y-93942111D01*
X143285466Y-94082785D01*
X143190821Y-94246715D01*
X143190818Y-94246722D01*
X143132327Y-94426740D01*
X143132326Y-94426744D01*
X143112540Y-94615000D01*
X143132326Y-94803256D01*
X143132327Y-94803259D01*
X143190818Y-94983277D01*
X143190821Y-94983284D01*
X143285467Y-95147216D01*
X143384017Y-95256666D01*
X143412129Y-95287888D01*
X143565265Y-95399148D01*
X143565270Y-95399151D01*
X143738192Y-95476142D01*
X143738197Y-95476144D01*
X143923354Y-95515500D01*
X143923355Y-95515500D01*
X144112644Y-95515500D01*
X144112646Y-95515500D01*
X144297803Y-95476144D01*
X144470730Y-95399151D01*
X144623871Y-95287888D01*
X144750533Y-95147216D01*
X144845179Y-94983284D01*
X144903674Y-94803256D01*
X144906913Y-94772436D01*
X144933496Y-94707824D01*
X144990793Y-94667839D01*
X145060612Y-94665178D01*
X145120786Y-94700686D01*
X145122361Y-94702403D01*
X145176337Y-94762349D01*
X145192129Y-94779888D01*
X145345265Y-94891148D01*
X145345270Y-94891151D01*
X145518192Y-94968142D01*
X145518197Y-94968144D01*
X145703354Y-95007500D01*
X145703355Y-95007500D01*
X145892644Y-95007500D01*
X145892646Y-95007500D01*
X146077803Y-94968144D01*
X146250730Y-94891151D01*
X146403871Y-94779888D01*
X146530533Y-94639216D01*
X146544514Y-94615000D01*
X147617040Y-94615000D01*
X147636826Y-94803256D01*
X147636827Y-94803259D01*
X147695318Y-94983277D01*
X147695321Y-94983284D01*
X147789967Y-95147216D01*
X147825799Y-95187011D01*
X147865150Y-95230715D01*
X147895380Y-95293706D01*
X147897000Y-95313687D01*
X147897000Y-95507416D01*
X147921035Y-95628249D01*
X147921040Y-95628266D01*
X147968185Y-95742085D01*
X147968189Y-95742092D01*
X148002415Y-95793314D01*
X148036640Y-95844536D01*
X148036641Y-95844537D01*
X148036642Y-95844538D01*
X148123767Y-95931663D01*
X148123768Y-95931663D01*
X148130835Y-95938730D01*
X148130834Y-95938730D01*
X148130838Y-95938733D01*
X149383804Y-97191701D01*
X149383807Y-97191704D01*
X149420588Y-97216280D01*
X149486256Y-97260158D01*
X149600090Y-97307310D01*
X149720930Y-97331346D01*
X149720934Y-97331347D01*
X149720935Y-97331347D01*
X159378456Y-97331347D01*
X159438877Y-97319328D01*
X159499300Y-97307310D01*
X159499305Y-97307308D01*
X159532639Y-97293500D01*
X159565113Y-97280049D01*
X159613134Y-97260159D01*
X159664357Y-97225931D01*
X159715581Y-97191705D01*
X159802706Y-97104580D01*
X159802707Y-97104578D01*
X159809773Y-97097512D01*
X159809775Y-97097508D01*
X161503466Y-95403819D01*
X161564789Y-95370334D01*
X161591147Y-95367500D01*
X164396252Y-95367500D01*
X164463291Y-95387185D01*
X164488400Y-95408526D01*
X164494126Y-95414885D01*
X164494130Y-95414889D01*
X164647265Y-95526148D01*
X164647270Y-95526151D01*
X164820192Y-95603142D01*
X164820197Y-95603144D01*
X165005354Y-95642500D01*
X165005355Y-95642500D01*
X165194644Y-95642500D01*
X165194646Y-95642500D01*
X165379803Y-95603144D01*
X165552730Y-95526151D01*
X165705871Y-95414888D01*
X165832533Y-95274216D01*
X165927179Y-95110284D01*
X165985674Y-94930256D01*
X166005460Y-94742000D01*
X165985674Y-94553744D01*
X165927179Y-94373716D01*
X165832533Y-94209784D01*
X165705871Y-94069112D01*
X165705870Y-94069111D01*
X165552734Y-93957851D01*
X165552729Y-93957848D01*
X165379807Y-93880857D01*
X165379802Y-93880855D01*
X165234001Y-93849865D01*
X165194646Y-93841500D01*
X165005354Y-93841500D01*
X164972897Y-93848398D01*
X164820197Y-93880855D01*
X164820192Y-93880857D01*
X164647270Y-93957848D01*
X164647265Y-93957851D01*
X164494130Y-94069110D01*
X164494126Y-94069114D01*
X164488400Y-94075474D01*
X164428913Y-94112121D01*
X164396252Y-94116500D01*
X161219084Y-94116500D01*
X161158666Y-94128518D01*
X161098240Y-94140537D01*
X161098239Y-94140538D01*
X161082469Y-94147071D01*
X160984413Y-94187685D01*
X160984408Y-94187688D01*
X160970869Y-94196735D01*
X160904192Y-94217612D01*
X160836812Y-94199127D01*
X160794592Y-94155632D01*
X160771999Y-94116500D01*
X160752533Y-94082784D01*
X160625871Y-93942112D01*
X160625870Y-93942111D01*
X160472734Y-93830851D01*
X160472729Y-93830848D01*
X160299807Y-93753857D01*
X160299802Y-93753855D01*
X160154001Y-93722865D01*
X160114646Y-93714500D01*
X159925354Y-93714500D01*
X159892897Y-93721398D01*
X159740197Y-93753855D01*
X159740192Y-93753857D01*
X159567270Y-93830848D01*
X159567265Y-93830851D01*
X159414130Y-93942110D01*
X159414126Y-93942114D01*
X159408400Y-93948474D01*
X159348913Y-93985121D01*
X159316252Y-93989500D01*
X158053389Y-93989500D01*
X157992971Y-94001518D01*
X157932546Y-94013537D01*
X157818716Y-94060687D01*
X157818707Y-94060692D01*
X157716268Y-94129140D01*
X157657724Y-94187685D01*
X157629142Y-94216267D01*
X157629139Y-94216270D01*
X157122295Y-94723115D01*
X156622229Y-95223181D01*
X156560906Y-95256666D01*
X156534548Y-95259500D01*
X151317367Y-95259500D01*
X151250328Y-95239815D01*
X151204573Y-95187011D01*
X151194629Y-95117853D01*
X151199436Y-95097182D01*
X151253674Y-94930256D01*
X151271321Y-94762344D01*
X151297904Y-94697734D01*
X151306951Y-94687638D01*
X153130772Y-92863819D01*
X153192095Y-92830334D01*
X153218453Y-92827500D01*
X160462608Y-92827500D01*
X160523029Y-92815481D01*
X160583452Y-92803463D01*
X160583457Y-92803461D01*
X160616791Y-92789653D01*
X160643623Y-92778538D01*
X160697286Y-92756312D01*
X160748509Y-92722084D01*
X160799733Y-92687858D01*
X160886858Y-92600733D01*
X160886859Y-92600731D01*
X160893925Y-92593665D01*
X160893927Y-92593661D01*
X161237771Y-92249819D01*
X161299094Y-92216334D01*
X161325452Y-92213500D01*
X161384644Y-92213500D01*
X161384646Y-92213500D01*
X161569803Y-92174144D01*
X161742730Y-92097151D01*
X161895871Y-91985888D01*
X162022533Y-91845216D01*
X162117179Y-91681284D01*
X162175674Y-91501256D01*
X162195460Y-91313000D01*
X162175674Y-91124744D01*
X162117179Y-90944716D01*
X162117176Y-90944710D01*
X162115214Y-90940305D01*
X162105922Y-90871056D01*
X162135543Y-90807777D01*
X162194674Y-90770557D01*
X162264540Y-90771214D01*
X162278922Y-90776577D01*
X162280192Y-90777142D01*
X162280197Y-90777144D01*
X162465354Y-90816500D01*
X162465355Y-90816500D01*
X162654644Y-90816500D01*
X162654646Y-90816500D01*
X162839803Y-90777144D01*
X163012730Y-90700151D01*
X163165871Y-90588888D01*
X163292533Y-90448216D01*
X163387179Y-90284284D01*
X163445674Y-90104256D01*
X163465460Y-89916000D01*
X163445674Y-89727744D01*
X163392389Y-89563750D01*
X163390394Y-89493909D01*
X163426474Y-89434076D01*
X163489175Y-89403248D01*
X163536099Y-89404141D01*
X163608354Y-89419500D01*
X163608355Y-89419500D01*
X163797644Y-89419500D01*
X163797646Y-89419500D01*
X163982803Y-89380144D01*
X164155730Y-89303151D01*
X164308871Y-89191888D01*
X164435533Y-89051216D01*
X164530179Y-88887284D01*
X164588674Y-88707256D01*
X164608460Y-88519000D01*
X164588674Y-88330744D01*
X164530179Y-88150716D01*
X164435533Y-87986784D01*
X164308871Y-87846112D01*
X164308870Y-87846111D01*
X164155734Y-87734851D01*
X164155729Y-87734848D01*
X163982807Y-87657857D01*
X163982802Y-87657855D01*
X163837001Y-87626865D01*
X163797646Y-87618500D01*
X163608354Y-87618500D01*
X163575897Y-87625398D01*
X163423197Y-87657855D01*
X163423192Y-87657857D01*
X163250270Y-87734848D01*
X163250265Y-87734851D01*
X163097130Y-87846110D01*
X163097126Y-87846114D01*
X163091400Y-87852474D01*
X163031913Y-87889121D01*
X162999252Y-87893500D01*
X152091815Y-87893500D01*
X152091795Y-87893499D01*
X152088771Y-87893499D01*
X151965558Y-87893499D01*
X151915159Y-87903523D01*
X151864760Y-87913548D01*
X151844717Y-87917535D01*
X151844711Y-87917537D01*
X151837673Y-87920452D01*
X151730882Y-87964686D01*
X151730872Y-87964691D01*
X151628431Y-88033141D01*
X151628427Y-88033144D01*
X149276893Y-90384681D01*
X149215570Y-90418166D01*
X149189212Y-90421000D01*
X149130018Y-90421000D01*
X149097561Y-90427898D01*
X148944861Y-90460355D01*
X148944856Y-90460357D01*
X148771934Y-90537348D01*
X148771929Y-90537351D01*
X148618793Y-90648611D01*
X148492130Y-90789285D01*
X148397485Y-90953215D01*
X148397482Y-90953222D01*
X148338991Y-91133240D01*
X148338990Y-91133244D01*
X148319204Y-91321500D01*
X148338990Y-91509756D01*
X148338991Y-91509759D01*
X148397482Y-91689777D01*
X148397485Y-91689784D01*
X148492131Y-91853716D01*
X148587380Y-91959500D01*
X148618793Y-91994388D01*
X148771929Y-92105648D01*
X148771934Y-92105651D01*
X148944856Y-92182642D01*
X148944861Y-92182644D01*
X149130018Y-92222000D01*
X149130019Y-92222000D01*
X149319308Y-92222000D01*
X149319310Y-92222000D01*
X149504467Y-92182644D01*
X149677394Y-92105651D01*
X149830535Y-91994388D01*
X149957197Y-91853716D01*
X149992836Y-91791988D01*
X150043403Y-91743772D01*
X150112010Y-91730549D01*
X150173108Y-91753670D01*
X150296265Y-91843148D01*
X150296270Y-91843151D01*
X150469192Y-91920142D01*
X150469197Y-91920144D01*
X150654354Y-91959500D01*
X150654355Y-91959500D01*
X150843644Y-91959500D01*
X150843646Y-91959500D01*
X151028803Y-91920144D01*
X151201730Y-91843151D01*
X151354871Y-91731888D01*
X151357788Y-91728647D01*
X151360600Y-91725526D01*
X151420087Y-91688879D01*
X151452748Y-91684500D01*
X152241546Y-91684500D01*
X152308585Y-91704185D01*
X152354340Y-91756989D01*
X152364284Y-91826147D01*
X152335259Y-91889703D01*
X152329227Y-91896181D01*
X150420229Y-93805181D01*
X150358906Y-93838666D01*
X150332548Y-93841500D01*
X150273354Y-93841500D01*
X150240897Y-93848398D01*
X150088197Y-93880855D01*
X150088192Y-93880857D01*
X149915270Y-93957848D01*
X149915265Y-93957851D01*
X149762129Y-94069111D01*
X149635467Y-94209783D01*
X149584170Y-94298632D01*
X149533602Y-94346847D01*
X149464995Y-94360069D01*
X149400131Y-94334101D01*
X149359603Y-94277187D01*
X149358877Y-94275027D01*
X149349679Y-94246716D01*
X149255033Y-94082784D01*
X149128371Y-93942112D01*
X149128370Y-93942111D01*
X148975234Y-93830851D01*
X148975229Y-93830848D01*
X148802307Y-93753857D01*
X148802302Y-93753855D01*
X148656501Y-93722865D01*
X148617146Y-93714500D01*
X148427854Y-93714500D01*
X148395397Y-93721398D01*
X148242697Y-93753855D01*
X148242692Y-93753857D01*
X148069770Y-93830848D01*
X148069765Y-93830851D01*
X147916629Y-93942111D01*
X147789966Y-94082785D01*
X147695321Y-94246715D01*
X147695318Y-94246722D01*
X147636827Y-94426740D01*
X147636826Y-94426744D01*
X147617040Y-94615000D01*
X146544514Y-94615000D01*
X146625179Y-94475284D01*
X146683674Y-94295256D01*
X146703460Y-94107000D01*
X146683674Y-93918744D01*
X146625179Y-93738716D01*
X146530533Y-93574784D01*
X146530529Y-93574778D01*
X146453350Y-93489062D01*
X146423120Y-93426070D01*
X146421500Y-93406090D01*
X146421500Y-86310000D01*
X147651474Y-86310000D01*
X147671547Y-86565064D01*
X147731279Y-86813864D01*
X147829188Y-87050239D01*
X147829190Y-87050242D01*
X147962875Y-87268396D01*
X147962878Y-87268401D01*
X148035857Y-87353848D01*
X148129044Y-87462956D01*
X148222037Y-87542379D01*
X148323598Y-87629121D01*
X148323600Y-87629122D01*
X148323601Y-87629123D01*
X148370489Y-87657856D01*
X148541757Y-87762809D01*
X148541760Y-87762811D01*
X148778135Y-87860720D01*
X148778140Y-87860722D01*
X149026930Y-87920452D01*
X149282000Y-87940526D01*
X149537070Y-87920452D01*
X149785860Y-87860722D01*
X149951311Y-87792190D01*
X150022239Y-87762811D01*
X150022240Y-87762810D01*
X150022243Y-87762809D01*
X150240399Y-87629123D01*
X150434956Y-87462956D01*
X150601123Y-87268399D01*
X150734809Y-87050243D01*
X150782536Y-86935021D01*
X150783765Y-86932051D01*
X150832722Y-86813860D01*
X150892452Y-86565070D01*
X150912526Y-86310000D01*
X150892452Y-86054930D01*
X150832722Y-85806140D01*
X150802832Y-85733978D01*
X150734811Y-85569760D01*
X150734809Y-85569757D01*
X150601124Y-85351603D01*
X150601121Y-85351598D01*
X150541319Y-85281579D01*
X150434956Y-85157044D01*
X150328591Y-85066200D01*
X150240401Y-84990878D01*
X150240396Y-84990875D01*
X150022242Y-84857190D01*
X150022239Y-84857188D01*
X149785864Y-84759279D01*
X149785860Y-84759278D01*
X149537070Y-84699548D01*
X149537067Y-84699547D01*
X149537064Y-84699547D01*
X149282000Y-84679474D01*
X149026935Y-84699547D01*
X149026931Y-84699547D01*
X149026930Y-84699548D01*
X148902535Y-84729413D01*
X148778135Y-84759279D01*
X148541760Y-84857188D01*
X148541757Y-84857190D01*
X148323603Y-84990875D01*
X148323598Y-84990878D01*
X148129044Y-85157044D01*
X147962878Y-85351598D01*
X147962875Y-85351603D01*
X147829190Y-85569757D01*
X147829188Y-85569760D01*
X147731279Y-85806135D01*
X147671547Y-86054935D01*
X147651474Y-86310000D01*
X146421500Y-86310000D01*
X146421500Y-82987452D01*
X146441185Y-82920413D01*
X146457819Y-82899771D01*
X150689854Y-78667737D01*
X150689857Y-78667734D01*
X150758311Y-78565286D01*
X150805463Y-78451451D01*
X150829500Y-78330607D01*
X150829500Y-78207394D01*
X150829500Y-74822799D01*
X150849185Y-74755760D01*
X150901989Y-74710005D01*
X150965653Y-74699396D01*
X151130000Y-74715583D01*
X151335934Y-74695300D01*
X151533954Y-74635232D01*
X151706548Y-74542977D01*
X151774949Y-74528736D01*
X151823450Y-74542976D01*
X151996046Y-74635232D01*
X152194066Y-74695300D01*
X152194065Y-74695300D01*
X152212529Y-74697118D01*
X152400000Y-74715583D01*
X152605934Y-74695300D01*
X152803954Y-74635232D01*
X152976548Y-74542977D01*
X153044949Y-74528736D01*
X153093450Y-74542976D01*
X153266046Y-74635232D01*
X153464066Y-74695300D01*
X153464065Y-74695300D01*
X153482529Y-74697118D01*
X153670000Y-74715583D01*
X153875934Y-74695300D01*
X154073954Y-74635232D01*
X154246548Y-74542977D01*
X154314949Y-74528736D01*
X154363450Y-74542976D01*
X154536046Y-74635232D01*
X154734066Y-74695300D01*
X154734065Y-74695300D01*
X154752529Y-74697118D01*
X154940000Y-74715583D01*
X155145934Y-74695300D01*
X155343954Y-74635232D01*
X155516548Y-74542977D01*
X155584949Y-74528736D01*
X155633450Y-74542976D01*
X155806046Y-74635232D01*
X156004066Y-74695300D01*
X156004065Y-74695300D01*
X156022529Y-74697118D01*
X156210000Y-74715583D01*
X156415934Y-74695300D01*
X156613954Y-74635232D01*
X156786548Y-74542977D01*
X156854949Y-74528736D01*
X156903450Y-74542976D01*
X157076046Y-74635232D01*
X157274066Y-74695300D01*
X157274065Y-74695300D01*
X157292529Y-74697118D01*
X157480000Y-74715583D01*
X157685934Y-74695300D01*
X157883954Y-74635232D01*
X158056548Y-74542977D01*
X158124949Y-74528736D01*
X158173450Y-74542976D01*
X158346046Y-74635232D01*
X158544066Y-74695300D01*
X158544065Y-74695300D01*
X158562529Y-74697118D01*
X158750000Y-74715583D01*
X158955934Y-74695300D01*
X159153954Y-74635232D01*
X159326548Y-74542977D01*
X159394949Y-74528736D01*
X159443450Y-74542976D01*
X159616046Y-74635232D01*
X159814066Y-74695300D01*
X159814065Y-74695300D01*
X159832529Y-74697118D01*
X160020000Y-74715583D01*
X160225934Y-74695300D01*
X160423954Y-74635232D01*
X160596548Y-74542977D01*
X160664949Y-74528736D01*
X160713450Y-74542976D01*
X160886046Y-74635232D01*
X161084066Y-74695300D01*
X161084065Y-74695300D01*
X161102529Y-74697118D01*
X161290000Y-74715583D01*
X161495934Y-74695300D01*
X161693954Y-74635232D01*
X161866548Y-74542977D01*
X161934949Y-74528736D01*
X161983450Y-74542976D01*
X162156046Y-74635232D01*
X162354066Y-74695300D01*
X162354065Y-74695300D01*
X162372529Y-74697118D01*
X162560000Y-74715583D01*
X162765934Y-74695300D01*
X162963954Y-74635232D01*
X163136548Y-74542977D01*
X163204949Y-74528736D01*
X163253450Y-74542976D01*
X163426046Y-74635232D01*
X163624066Y-74695300D01*
X163624065Y-74695300D01*
X163642529Y-74697118D01*
X163830000Y-74715583D01*
X164035934Y-74695300D01*
X164233954Y-74635232D01*
X164406548Y-74542977D01*
X164474949Y-74528736D01*
X164523450Y-74542976D01*
X164696046Y-74635232D01*
X164894066Y-74695300D01*
X164894065Y-74695300D01*
X164912529Y-74697118D01*
X165100000Y-74715583D01*
X165305934Y-74695300D01*
X165503954Y-74635232D01*
X165686450Y-74537685D01*
X165846410Y-74406410D01*
X165977685Y-74246450D01*
X166075232Y-74063954D01*
X166135300Y-73865934D01*
X166155583Y-73660000D01*
X166135300Y-73454066D01*
X166075232Y-73256046D01*
X165977685Y-73073550D01*
X165925702Y-73010209D01*
X165846410Y-72913589D01*
X165686452Y-72782317D01*
X165686453Y-72782317D01*
X165686450Y-72782315D01*
X165503954Y-72684768D01*
X165305934Y-72624700D01*
X165305932Y-72624699D01*
X165305934Y-72624699D01*
X165100000Y-72604417D01*
X164894067Y-72624699D01*
X164696041Y-72684769D01*
X164523453Y-72777020D01*
X164455050Y-72791262D01*
X164406547Y-72777020D01*
X164233958Y-72684769D01*
X164134944Y-72654734D01*
X164035934Y-72624700D01*
X164035932Y-72624699D01*
X164035934Y-72624699D01*
X163830000Y-72604417D01*
X163624067Y-72624699D01*
X163426041Y-72684769D01*
X163253453Y-72777020D01*
X163185050Y-72791262D01*
X163136547Y-72777020D01*
X162963958Y-72684769D01*
X162864944Y-72654734D01*
X162765934Y-72624700D01*
X162765932Y-72624699D01*
X162765934Y-72624699D01*
X162560000Y-72604417D01*
X162354067Y-72624699D01*
X162156041Y-72684769D01*
X161983453Y-72777020D01*
X161915050Y-72791262D01*
X161866547Y-72777020D01*
X161693958Y-72684769D01*
X161594944Y-72654734D01*
X161495934Y-72624700D01*
X161495932Y-72624699D01*
X161495934Y-72624699D01*
X161290000Y-72604417D01*
X161084067Y-72624699D01*
X160886041Y-72684769D01*
X160713453Y-72777020D01*
X160645050Y-72791262D01*
X160596547Y-72777020D01*
X160423958Y-72684769D01*
X160324944Y-72654734D01*
X160225934Y-72624700D01*
X160225932Y-72624699D01*
X160225934Y-72624699D01*
X160020000Y-72604417D01*
X159814067Y-72624699D01*
X159616041Y-72684769D01*
X159443453Y-72777020D01*
X159375050Y-72791262D01*
X159326547Y-72777020D01*
X159153958Y-72684769D01*
X159054944Y-72654734D01*
X158955934Y-72624700D01*
X158955932Y-72624699D01*
X158955934Y-72624699D01*
X158750000Y-72604417D01*
X158544067Y-72624699D01*
X158346041Y-72684769D01*
X158173453Y-72777020D01*
X158105050Y-72791262D01*
X158056547Y-72777020D01*
X157883958Y-72684769D01*
X157784944Y-72654734D01*
X157685934Y-72624700D01*
X157685932Y-72624699D01*
X157685934Y-72624699D01*
X157480000Y-72604417D01*
X157274067Y-72624699D01*
X157076041Y-72684769D01*
X156903453Y-72777020D01*
X156835050Y-72791262D01*
X156786547Y-72777020D01*
X156613958Y-72684769D01*
X156514944Y-72654734D01*
X156415934Y-72624700D01*
X156415932Y-72624699D01*
X156415934Y-72624699D01*
X156210000Y-72604417D01*
X156004067Y-72624699D01*
X155806041Y-72684769D01*
X155633453Y-72777020D01*
X155565050Y-72791262D01*
X155516547Y-72777020D01*
X155343958Y-72684769D01*
X155244944Y-72654734D01*
X155145934Y-72624700D01*
X155145932Y-72624699D01*
X155145934Y-72624699D01*
X154940000Y-72604417D01*
X154734067Y-72624699D01*
X154536041Y-72684769D01*
X154363453Y-72777020D01*
X154295050Y-72791262D01*
X154246547Y-72777020D01*
X154073958Y-72684769D01*
X153974944Y-72654734D01*
X153875934Y-72624700D01*
X153875932Y-72624699D01*
X153875934Y-72624699D01*
X153670000Y-72604417D01*
X153464067Y-72624699D01*
X153266041Y-72684769D01*
X153093453Y-72777020D01*
X153025050Y-72791262D01*
X152976547Y-72777020D01*
X152803958Y-72684769D01*
X152704944Y-72654734D01*
X152605934Y-72624700D01*
X152605932Y-72624699D01*
X152605934Y-72624699D01*
X152418463Y-72606235D01*
X152400000Y-72604417D01*
X152399999Y-72604417D01*
X152399997Y-72604417D01*
X152361275Y-72608230D01*
X152292629Y-72595210D01*
X152241919Y-72547144D01*
X152225247Y-72479293D01*
X152247904Y-72413199D01*
X152261433Y-72397156D01*
X153003772Y-71654819D01*
X153065095Y-71621334D01*
X153091453Y-71618500D01*
X173552548Y-71618500D01*
X173619587Y-71638185D01*
X173640229Y-71654819D01*
X183869181Y-81883771D01*
X183902666Y-81945094D01*
X183905500Y-81971452D01*
X183905500Y-108778138D01*
X183885815Y-108845177D01*
X183869181Y-108865819D01*
X182916319Y-109818681D01*
X182854996Y-109852166D01*
X182828638Y-109855000D01*
X165404203Y-109855000D01*
X165380011Y-109852617D01*
X165350771Y-109846800D01*
X165314070Y-109839500D01*
X165314069Y-109839500D01*
X160105931Y-109839500D01*
X160105930Y-109839500D01*
X160069228Y-109846800D01*
X160039988Y-109852617D01*
X160015797Y-109855000D01*
X145084203Y-109855000D01*
X145060011Y-109852617D01*
X145030771Y-109846800D01*
X144994070Y-109839500D01*
X144994069Y-109839500D01*
X139785931Y-109839500D01*
X139785930Y-109839500D01*
X139749228Y-109846800D01*
X139719988Y-109852617D01*
X139695797Y-109855000D01*
X116891362Y-109855000D01*
X116824323Y-109835315D01*
X116803681Y-109818681D01*
X115820000Y-108835000D01*
X143523628Y-108835000D01*
X143565316Y-108963306D01*
X143565317Y-108963307D01*
X143662536Y-109131694D01*
X143662535Y-109131694D01*
X143792639Y-109276190D01*
X143792642Y-109276192D01*
X143949950Y-109390484D01*
X144127587Y-109469573D01*
X144164999Y-109477524D01*
X144165000Y-109477524D01*
X144165000Y-108835000D01*
X143523628Y-108835000D01*
X115820000Y-108835000D01*
X115619728Y-108634728D01*
X144165000Y-108634728D01*
X144203060Y-108726614D01*
X144273386Y-108796940D01*
X144365272Y-108835000D01*
X144464728Y-108835000D01*
X144516177Y-108813689D01*
X144564856Y-108963510D01*
X144564857Y-108963511D01*
X144648387Y-109108189D01*
X144665000Y-109170189D01*
X144665000Y-109477524D01*
X144702414Y-109469573D01*
X144702415Y-109469573D01*
X144863949Y-109397653D01*
X144933199Y-109388368D01*
X144964809Y-109397648D01*
X145127429Y-109470051D01*
X145127432Y-109470051D01*
X145127433Y-109470052D01*
X145317726Y-109510500D01*
X145512274Y-109510500D01*
X145702566Y-109470052D01*
X145702565Y-109470052D01*
X145702571Y-109470051D01*
X145864569Y-109397925D01*
X145933815Y-109388642D01*
X145965425Y-109397922D01*
X146127429Y-109470051D01*
X146127432Y-109470051D01*
X146127433Y-109470052D01*
X146317726Y-109510500D01*
X146512274Y-109510500D01*
X146702571Y-109470051D01*
X146702573Y-109470049D01*
X146708755Y-109468042D01*
X146709756Y-109471124D01*
X146764741Y-109463197D01*
X146790463Y-109469757D01*
X146882517Y-109504091D01*
X146942127Y-109510500D01*
X147887872Y-109510499D01*
X147947483Y-109504091D01*
X148082331Y-109453796D01*
X148197546Y-109367546D01*
X148283796Y-109252331D01*
X148334091Y-109117483D01*
X148340500Y-109057873D01*
X148340499Y-108112128D01*
X148334091Y-108052517D01*
X148328790Y-108038305D01*
X148283797Y-107917671D01*
X148283793Y-107917664D01*
X148197547Y-107802455D01*
X148197544Y-107802452D01*
X148082335Y-107716206D01*
X148082328Y-107716202D01*
X147947482Y-107665908D01*
X147947483Y-107665908D01*
X147887883Y-107659501D01*
X147887881Y-107659500D01*
X147887873Y-107659500D01*
X147887864Y-107659500D01*
X146942129Y-107659500D01*
X146942123Y-107659501D01*
X146882516Y-107665908D01*
X146790472Y-107700239D01*
X146720780Y-107705223D01*
X146708934Y-107701390D01*
X146708750Y-107701957D01*
X146702573Y-107699950D01*
X146702571Y-107699949D01*
X146702568Y-107699948D01*
X146702567Y-107699948D01*
X146512274Y-107659500D01*
X146317726Y-107659500D01*
X146127430Y-107699948D01*
X146127427Y-107699949D01*
X145965434Y-107772072D01*
X145896184Y-107781356D01*
X145864566Y-107772072D01*
X145702572Y-107699949D01*
X145702569Y-107699948D01*
X145512274Y-107659500D01*
X145317726Y-107659500D01*
X145127430Y-107699948D01*
X145127427Y-107699949D01*
X144964817Y-107772346D01*
X144895567Y-107781630D01*
X144863948Y-107772346D01*
X144702414Y-107700426D01*
X144665000Y-107692473D01*
X144665000Y-107999811D01*
X144648387Y-108061811D01*
X144564857Y-108206488D01*
X144564856Y-108206489D01*
X144516176Y-108356310D01*
X144464728Y-108335000D01*
X144365272Y-108335000D01*
X144273386Y-108373060D01*
X144203060Y-108443386D01*
X144165000Y-108535272D01*
X144165000Y-108634728D01*
X115619728Y-108634728D01*
X115320000Y-108335000D01*
X143523628Y-108335000D01*
X144165000Y-108335000D01*
X144165000Y-107692473D01*
X144127585Y-107700426D01*
X144127580Y-107700428D01*
X143949953Y-107779513D01*
X143792643Y-107893806D01*
X143662535Y-108038305D01*
X143565317Y-108206692D01*
X143565316Y-108206693D01*
X143523628Y-108334999D01*
X143523628Y-108335000D01*
X115320000Y-108335000D01*
X111796319Y-104811319D01*
X111762834Y-104749996D01*
X111760000Y-104723638D01*
X111760000Y-99877904D01*
X111779685Y-99810865D01*
X111832489Y-99765110D01*
X111901647Y-99755166D01*
X111965203Y-99784191D01*
X111983260Y-99803585D01*
X111997454Y-99822546D01*
X111997457Y-99822548D01*
X112112664Y-99908793D01*
X112112671Y-99908797D01*
X112247517Y-99959091D01*
X112247516Y-99959091D01*
X112254444Y-99959835D01*
X112307127Y-99965500D01*
X113752872Y-99965499D01*
X113812483Y-99959091D01*
X113947331Y-99908796D01*
X114062546Y-99822546D01*
X114148796Y-99707331D01*
X114199091Y-99572483D01*
X114205500Y-99512873D01*
X114205499Y-98067128D01*
X114199091Y-98007517D01*
X114148796Y-97872669D01*
X114148795Y-97872668D01*
X114148793Y-97872664D01*
X114062547Y-97757455D01*
X113976494Y-97693035D01*
X113934624Y-97637101D01*
X113929640Y-97567409D01*
X113951852Y-97519042D01*
X114033284Y-97411208D01*
X114097623Y-97282000D01*
X131428540Y-97282000D01*
X131448326Y-97470256D01*
X131448327Y-97470259D01*
X131506818Y-97650277D01*
X131506821Y-97650284D01*
X131601467Y-97814216D01*
X131728129Y-97954888D01*
X131881265Y-98066148D01*
X131881270Y-98066151D01*
X132054192Y-98143142D01*
X132054197Y-98143144D01*
X132239354Y-98182500D01*
X132239355Y-98182500D01*
X132428644Y-98182500D01*
X132428646Y-98182500D01*
X132613803Y-98143144D01*
X132786730Y-98066151D01*
X132939871Y-97954888D01*
X133066533Y-97814216D01*
X133161179Y-97650284D01*
X133219674Y-97470256D01*
X133239460Y-97282000D01*
X133219674Y-97093744D01*
X133161179Y-96913716D01*
X133066533Y-96749784D01*
X132991350Y-96666284D01*
X132961120Y-96603292D01*
X132959500Y-96583312D01*
X132959500Y-88836687D01*
X132979185Y-88769648D01*
X132991350Y-88753715D01*
X133009891Y-88733122D01*
X133066533Y-88670216D01*
X133161179Y-88506284D01*
X133219674Y-88326256D01*
X133239460Y-88138000D01*
X133219674Y-87949744D01*
X133161179Y-87769716D01*
X133066533Y-87605784D01*
X132955837Y-87482844D01*
X141157000Y-87482844D01*
X141163401Y-87542372D01*
X141163403Y-87542379D01*
X141213645Y-87677086D01*
X141213649Y-87677093D01*
X141299809Y-87792187D01*
X141299812Y-87792190D01*
X141414906Y-87878350D01*
X141414913Y-87878354D01*
X141549620Y-87928596D01*
X141549627Y-87928598D01*
X141609155Y-87934999D01*
X141609172Y-87935000D01*
X142532000Y-87935000D01*
X142532000Y-86910001D01*
X142592402Y-86935021D01*
X142717981Y-86960000D01*
X142846019Y-86960000D01*
X142971598Y-86935021D01*
X143032000Y-86910001D01*
X143032000Y-87935000D01*
X143954828Y-87935000D01*
X143954844Y-87934999D01*
X144014372Y-87928598D01*
X144014379Y-87928596D01*
X144149086Y-87878354D01*
X144149093Y-87878350D01*
X144264187Y-87792190D01*
X144264190Y-87792187D01*
X144350350Y-87677093D01*
X144350354Y-87677086D01*
X144400596Y-87542379D01*
X144400598Y-87542372D01*
X144406999Y-87482844D01*
X144407000Y-87482827D01*
X144407000Y-86560000D01*
X143382001Y-86560000D01*
X143407021Y-86499598D01*
X143432000Y-86374019D01*
X143432000Y-86245981D01*
X143407021Y-86120402D01*
X143382001Y-86060000D01*
X144407000Y-86060000D01*
X144407000Y-85137172D01*
X144406999Y-85137155D01*
X144400598Y-85077627D01*
X144400596Y-85077620D01*
X144350354Y-84942913D01*
X144350350Y-84942906D01*
X144264190Y-84827812D01*
X144264187Y-84827809D01*
X144149093Y-84741649D01*
X144149086Y-84741645D01*
X144014379Y-84691403D01*
X144014372Y-84691401D01*
X143954844Y-84685000D01*
X143032000Y-84685000D01*
X143032000Y-85709998D01*
X142971598Y-85684979D01*
X142846019Y-85660000D01*
X142717981Y-85660000D01*
X142592402Y-85684979D01*
X142532000Y-85709998D01*
X142532000Y-84685000D01*
X141609155Y-84685000D01*
X141549627Y-84691401D01*
X141549620Y-84691403D01*
X141414913Y-84741645D01*
X141414906Y-84741649D01*
X141299812Y-84827809D01*
X141299809Y-84827812D01*
X141213649Y-84942906D01*
X141213645Y-84942913D01*
X141163403Y-85077620D01*
X141163401Y-85077627D01*
X141157000Y-85137155D01*
X141157000Y-86060000D01*
X142181999Y-86060000D01*
X142156979Y-86120402D01*
X142132000Y-86245981D01*
X142132000Y-86374019D01*
X142156979Y-86499598D01*
X142181999Y-86560000D01*
X141157000Y-86560000D01*
X141157000Y-87482844D01*
X132955837Y-87482844D01*
X132939871Y-87465112D01*
X132936904Y-87462956D01*
X132786734Y-87353851D01*
X132786729Y-87353848D01*
X132613807Y-87276857D01*
X132613802Y-87276855D01*
X132468001Y-87245865D01*
X132428646Y-87237500D01*
X132239354Y-87237500D01*
X132206897Y-87244398D01*
X132054197Y-87276855D01*
X132054192Y-87276857D01*
X131881270Y-87353848D01*
X131881265Y-87353851D01*
X131728129Y-87465111D01*
X131601466Y-87605785D01*
X131506821Y-87769715D01*
X131506818Y-87769722D01*
X131451321Y-87940525D01*
X131448326Y-87949744D01*
X131428540Y-88138000D01*
X131448326Y-88326256D01*
X131448327Y-88326259D01*
X131506818Y-88506277D01*
X131506821Y-88506284D01*
X131601467Y-88670216D01*
X131634818Y-88707256D01*
X131676650Y-88753715D01*
X131706880Y-88816706D01*
X131708500Y-88836687D01*
X131708500Y-96583312D01*
X131688815Y-96650351D01*
X131676650Y-96666284D01*
X131601466Y-96749784D01*
X131506821Y-96913715D01*
X131506818Y-96913722D01*
X131448327Y-97093740D01*
X131448326Y-97093744D01*
X131428540Y-97282000D01*
X114097623Y-97282000D01*
X114130348Y-97216280D01*
X114180505Y-97040000D01*
X113345686Y-97040000D01*
X113350080Y-97035606D01*
X113402741Y-96944394D01*
X113430000Y-96842661D01*
X113430000Y-96737339D01*
X113402741Y-96635606D01*
X113350080Y-96544394D01*
X113345686Y-96540000D01*
X114180505Y-96540000D01*
X114180505Y-96539999D01*
X114130348Y-96363719D01*
X114033284Y-96168791D01*
X113902054Y-95995014D01*
X113741131Y-95848314D01*
X113555987Y-95733677D01*
X113555985Y-95733676D01*
X113352931Y-95655013D01*
X113352921Y-95655010D01*
X113280001Y-95641378D01*
X113280000Y-95641379D01*
X113280000Y-96474314D01*
X113275606Y-96469920D01*
X113184394Y-96417259D01*
X113082661Y-96390000D01*
X112977339Y-96390000D01*
X112875606Y-96417259D01*
X112784394Y-96469920D01*
X112780000Y-96474314D01*
X112780000Y-95641379D01*
X112779998Y-95641378D01*
X112707078Y-95655010D01*
X112707068Y-95655013D01*
X112504014Y-95733676D01*
X112504012Y-95733677D01*
X112318869Y-95848314D01*
X112318868Y-95848314D01*
X112157945Y-95995014D01*
X112026715Y-96168791D01*
X111995000Y-96232484D01*
X111947497Y-96283721D01*
X111879834Y-96301142D01*
X111813494Y-96279216D01*
X111769539Y-96224905D01*
X111760000Y-96177212D01*
X111760000Y-91491362D01*
X111779685Y-91424323D01*
X111796319Y-91403681D01*
X112358681Y-90841319D01*
X112420004Y-90807834D01*
X112446362Y-90805000D01*
X118110000Y-90805000D01*
X126365000Y-82550000D01*
X126365000Y-73660000D01*
X129754919Y-73660000D01*
X129775191Y-73865834D01*
X129835233Y-74063766D01*
X129910975Y-74205469D01*
X129910976Y-74205469D01*
X130456447Y-73660000D01*
X129910976Y-73114529D01*
X129910975Y-73114529D01*
X129835234Y-73256234D01*
X129775191Y-73454166D01*
X129754919Y-73660000D01*
X126365000Y-73660000D01*
X126365000Y-70609000D01*
X126384685Y-70541961D01*
X126437489Y-70496206D01*
X126489000Y-70485000D01*
X152105046Y-70485000D01*
X152172085Y-70504685D01*
G37*
%TD.AperFunction*%
%TD*%
M02*
