M48
; DRILL file {KiCad 7.99.0-3539-g7abe2e3ea0} date 2023-11-11T22:30:56+0100
; FORMAT={-:-/ absolute / inch / decimal}
; #@! TF.CreationDate,2023-11-11T22:30:56+01:00
; #@! TF.GenerationSoftware,Kicad,Pcbnew,7.99.0-3539-g7abe2e3ea0
; #@! TF.FileFunction,Plated,1,2,PTH
FMAT,2
INCH
; #@! TA.AperFunction,Plated,PTH,ViaDrill
T1C0.0157
; #@! TA.AperFunction,Plated,PTH,ComponentDrill
T2C0.0197
; #@! TA.AperFunction,Plated,PTH,ComponentDrill
T3C0.0217
; #@! TA.AperFunction,Plated,PTH,ComponentDrill
T4C0.0315
; #@! TA.AperFunction,Plated,PTH,ComponentDrill
T5C0.0512
%
G90
G05
T1
X5.21Y-3.47
X5.21Y-3.83
X5.4Y-3.725
X5.59Y-2.81
X5.6236Y-3.9921
X5.655Y-4.57
X5.67Y-3.725
X5.7401Y-3.705
X5.8Y-3.5
X5.825Y-4.1965
X5.8473Y-3.725
X5.875Y-3.5953
X5.885Y-3.005
X5.905Y-3.775
X5.92Y-3.73
X5.935Y-3.585
X6.15Y-3.725
X6.295Y-3.825
X6.3Y-3.725
X6.35Y-3.595
X6.4Y-3.54
X6.445Y-3.485
X6.5Y-3.73
T2
X5.6856Y-4.275
X5.725Y-4.275
X5.7644Y-4.275
X5.8037Y-4.275
T3
X5.15Y-2.9
X5.2Y-2.9
X5.25Y-2.9
X5.3Y-2.9
X5.35Y-2.9
X5.4Y-2.9
X5.45Y-2.9
X5.5Y-2.9
X5.55Y-2.9
X5.6Y-2.9
X5.65Y-2.9
X5.7Y-2.9
X5.75Y-2.9
X5.8Y-2.9
X5.85Y-2.9
X5.9Y-2.9
X5.95Y-2.9
X6.0Y-2.9
X6.05Y-2.9
X6.1Y-2.9
X6.15Y-2.9
X6.2Y-2.9
X6.25Y-2.9
X6.3Y-2.9
X6.35Y-2.9
X6.4Y-2.9
X6.45Y-2.9
X6.5Y-2.9
T4
X4.45Y-3.8106
X4.45Y-3.8894
T5
X4.722Y-4.45
X4.722Y-4.75
X4.722Y-5.05
X4.722Y-5.35
X4.722Y-5.625
X4.978Y-4.45
X4.978Y-4.75
X4.978Y-5.05
X4.978Y-5.35
X4.978Y-5.625
X5.15Y-4.45
X5.15Y-4.75
X5.15Y-5.05
X5.15Y-5.35
X5.15Y-5.65
X5.4059Y-4.45
X5.4059Y-4.75
X5.4059Y-5.05
X5.4059Y-5.35
X5.4059Y-5.65
X5.55Y-4.45
X5.55Y-4.75
X5.55Y-5.05
X5.55Y-5.35
X5.55Y-5.65
X5.6213Y-3.398
X5.8059Y-4.45
X5.8059Y-4.75
X5.8059Y-5.05
X5.8059Y-5.35
X5.8059Y-5.65
X5.8772Y-3.398
X5.95Y-4.45
X5.95Y-4.75
X5.95Y-5.05
X5.95Y-5.35
X5.95Y-5.65
X6.2059Y-4.45
X6.2059Y-4.75
X6.2059Y-5.05
X6.2059Y-5.35
X6.2059Y-5.65
X6.35Y-4.45
X6.35Y-4.75
X6.35Y-5.05
X6.35Y-5.35
X6.35Y-5.65
X6.6059Y-4.45
X6.6059Y-4.75
X6.6059Y-5.05
X6.6059Y-5.35
X6.6059Y-5.65
X6.75Y-4.45
X6.75Y-4.75
X6.75Y-5.05
X6.75Y-5.35
X6.75Y-5.65
X7.0059Y-4.45
X7.0059Y-4.75
X7.0059Y-5.05
X7.0059Y-5.35
X7.0059Y-5.65
T0
M30
